G04 #@! TF.FileFunction,Soldermask,Top*
%FSLAX46Y46*%
G04 Gerber Fmt 4.6, Leading zero omitted, Abs format (unit mm)*
G04 Created by KiCad (PCBNEW (2015-10-21 BZR 6273, Git ad10218)-product) date Sat 24 Oct 2015 11:21:38 PM CEST*
%MOMM*%
G01*
G04 APERTURE LIST*
%ADD10C,0.100000*%
%ADD11R,1.900000X1.650000*%
%ADD12R,1.400000X2.400000*%
%ADD13R,1.600000X2.600000*%
%ADD14R,2.050000X2.050000*%
%ADD15R,1.900000X1.700000*%
%ADD16R,1.598880X1.598880*%
%ADD17R,2.000200X1.901140*%
%ADD18R,0.908000X1.543000*%
G04 APERTURE END LIST*
D10*
D11*
X184926174Y-29233456D03*
X182426174Y-29233456D03*
X186350000Y-43100000D03*
X188850000Y-43100000D03*
X183250000Y-47750000D03*
X185750000Y-47750000D03*
X183250000Y-45500000D03*
X185750000Y-45500000D03*
X179950000Y-33300000D03*
X177450000Y-33300000D03*
D12*
X185800000Y-50700000D03*
D13*
X184600000Y-50700000D03*
D12*
X183400000Y-50700000D03*
D14*
X191770000Y-25600000D03*
X191770000Y-29210000D03*
X177800000Y-44450000D03*
X191770000Y-44450000D03*
D15*
X180226174Y-29233456D03*
X177526174Y-29233456D03*
X183650000Y-43100000D03*
X180950000Y-43100000D03*
X177650000Y-53250000D03*
X180350000Y-53250000D03*
X183350000Y-53250000D03*
X186050000Y-53250000D03*
X189050000Y-53250000D03*
X191750000Y-53250000D03*
D16*
X177699240Y-39300860D03*
X179700760Y-39300860D03*
D17*
X178700000Y-36049660D03*
D18*
X182295000Y-34325000D03*
X183565000Y-34325000D03*
X184835000Y-34325000D03*
X186105000Y-34325000D03*
X186105000Y-40675000D03*
X184835000Y-40675000D03*
X183565000Y-40675000D03*
X182295000Y-40675000D03*
D16*
X188499240Y-39300860D03*
X190500760Y-39300860D03*
D17*
X189500000Y-36049660D03*
D16*
X180900000Y-46850980D03*
X180900000Y-48949020D03*
D15*
X188050000Y-51100000D03*
X190750000Y-51100000D03*
M02*
