G04 #@! TF.FileFunction,Legend,Top*
%FSLAX46Y46*%
G04 Gerber Fmt 4.6, Leading zero omitted, Abs format (unit mm)*
G04 Created by KiCad (PCBNEW (2015-10-08 BZR 6256, Git 7d5cb75)-product) date Fri 09 Oct 2015 09:14:55 PM CEST*
%MOMM*%
G01*
G04 APERTURE LIST*
%ADD10C,0.100000*%
%ADD11C,0.150000*%
%ADD12C,0.200000*%
%ADD13C,0.002540*%
%ADD14R,1.900000X1.650000*%
%ADD15R,1.400000X2.400000*%
%ADD16R,1.600000X2.600000*%
%ADD17R,2.050000X2.050000*%
%ADD18R,1.900000X1.700000*%
%ADD19R,1.598880X1.598880*%
%ADD20R,2.000200X1.901140*%
%ADD21R,0.908000X1.543000*%
G04 APERTURE END LIST*
D10*
D11*
X177442857Y-40552381D02*
X177776190Y-41552381D01*
X178109524Y-40552381D01*
X178442857Y-41552381D02*
X178442857Y-40885714D01*
X178442857Y-41076190D02*
X178490476Y-40980952D01*
X178538095Y-40933333D01*
X178633333Y-40885714D01*
X178728572Y-40885714D01*
X179442858Y-41504762D02*
X179347620Y-41552381D01*
X179157143Y-41552381D01*
X179061905Y-41504762D01*
X179014286Y-41409524D01*
X179014286Y-41028571D01*
X179061905Y-40933333D01*
X179157143Y-40885714D01*
X179347620Y-40885714D01*
X179442858Y-40933333D01*
X179490477Y-41028571D01*
X179490477Y-41123810D01*
X179014286Y-41219048D01*
X179776191Y-40885714D02*
X180157143Y-40885714D01*
X179919048Y-41552381D02*
X179919048Y-40695238D01*
X179966667Y-40600000D01*
X180061905Y-40552381D01*
X180157143Y-40552381D01*
X188571429Y-33785714D02*
X188571429Y-34595238D01*
X188523810Y-34690476D01*
X188476191Y-34738095D01*
X188380952Y-34785714D01*
X188238095Y-34785714D01*
X188142857Y-34738095D01*
X188571429Y-34404762D02*
X188476191Y-34452381D01*
X188285714Y-34452381D01*
X188190476Y-34404762D01*
X188142857Y-34357143D01*
X188095238Y-34261905D01*
X188095238Y-33976190D01*
X188142857Y-33880952D01*
X188190476Y-33833333D01*
X188285714Y-33785714D01*
X188476191Y-33785714D01*
X188571429Y-33833333D01*
X189476191Y-34452381D02*
X189476191Y-33928571D01*
X189428572Y-33833333D01*
X189333334Y-33785714D01*
X189142857Y-33785714D01*
X189047619Y-33833333D01*
X189476191Y-34404762D02*
X189380953Y-34452381D01*
X189142857Y-34452381D01*
X189047619Y-34404762D01*
X189000000Y-34309524D01*
X189000000Y-34214286D01*
X189047619Y-34119048D01*
X189142857Y-34071429D01*
X189380953Y-34071429D01*
X189476191Y-34023810D01*
X189952381Y-34452381D02*
X189952381Y-33785714D01*
X189952381Y-33452381D02*
X189904762Y-33500000D01*
X189952381Y-33547619D01*
X190000000Y-33500000D01*
X189952381Y-33452381D01*
X189952381Y-33547619D01*
X190428571Y-33785714D02*
X190428571Y-34452381D01*
X190428571Y-33880952D02*
X190476190Y-33833333D01*
X190571428Y-33785714D01*
X190714286Y-33785714D01*
X190809524Y-33833333D01*
X190857143Y-33928571D01*
X190857143Y-34452381D01*
X186976190Y-28652381D02*
X187309523Y-29652381D01*
X187642857Y-28652381D01*
X188119047Y-29652381D02*
X188023809Y-29604762D01*
X187976190Y-29557143D01*
X187928571Y-29461905D01*
X187928571Y-29176190D01*
X187976190Y-29080952D01*
X188023809Y-29033333D01*
X188119047Y-28985714D01*
X188261905Y-28985714D01*
X188357143Y-29033333D01*
X188404762Y-29080952D01*
X188452381Y-29176190D01*
X188452381Y-29461905D01*
X188404762Y-29557143D01*
X188357143Y-29604762D01*
X188261905Y-29652381D01*
X188119047Y-29652381D01*
X189309524Y-28985714D02*
X189309524Y-29652381D01*
X188880952Y-28985714D02*
X188880952Y-29509524D01*
X188928571Y-29604762D01*
X189023809Y-29652381D01*
X189166667Y-29652381D01*
X189261905Y-29604762D01*
X189309524Y-29557143D01*
X189642857Y-28985714D02*
X190023809Y-28985714D01*
X189785714Y-28652381D02*
X189785714Y-29509524D01*
X189833333Y-29604762D01*
X189928571Y-29652381D01*
X190023809Y-29652381D01*
X190938096Y-46400000D02*
X190842858Y-46352381D01*
X190700001Y-46352381D01*
X190557143Y-46400000D01*
X190461905Y-46495238D01*
X190414286Y-46590476D01*
X190366667Y-46780952D01*
X190366667Y-46923810D01*
X190414286Y-47114286D01*
X190461905Y-47209524D01*
X190557143Y-47304762D01*
X190700001Y-47352381D01*
X190795239Y-47352381D01*
X190938096Y-47304762D01*
X190985715Y-47257143D01*
X190985715Y-46923810D01*
X190795239Y-46923810D01*
X191414286Y-47352381D02*
X191414286Y-46352381D01*
X191985715Y-47352381D01*
X191985715Y-46352381D01*
X192461905Y-47352381D02*
X192461905Y-46352381D01*
X192700000Y-46352381D01*
X192842858Y-46400000D01*
X192938096Y-46495238D01*
X192985715Y-46590476D01*
X193033334Y-46780952D01*
X193033334Y-46923810D01*
X192985715Y-47114286D01*
X192938096Y-47209524D01*
X192842858Y-47304762D01*
X192700000Y-47352381D01*
X192461905Y-47352381D01*
X177709524Y-46252381D02*
X177233333Y-46252381D01*
X177185714Y-46728571D01*
X177233333Y-46680952D01*
X177328571Y-46633333D01*
X177566667Y-46633333D01*
X177661905Y-46680952D01*
X177709524Y-46728571D01*
X177757143Y-46823810D01*
X177757143Y-47061905D01*
X177709524Y-47157143D01*
X177661905Y-47204762D01*
X177566667Y-47252381D01*
X177328571Y-47252381D01*
X177233333Y-47204762D01*
X177185714Y-47157143D01*
X178042857Y-46252381D02*
X178376190Y-47252381D01*
X178709524Y-46252381D01*
X182971428Y-27804762D02*
X183066666Y-27852381D01*
X183257142Y-27852381D01*
X183352381Y-27804762D01*
X183400000Y-27709524D01*
X183400000Y-27661905D01*
X183352381Y-27566667D01*
X183257142Y-27519048D01*
X183114285Y-27519048D01*
X183019047Y-27471429D01*
X182971428Y-27376190D01*
X182971428Y-27328571D01*
X183019047Y-27233333D01*
X183114285Y-27185714D01*
X183257142Y-27185714D01*
X183352381Y-27233333D01*
X184209524Y-27804762D02*
X184114286Y-27852381D01*
X183923809Y-27852381D01*
X183828571Y-27804762D01*
X183780952Y-27709524D01*
X183780952Y-27328571D01*
X183828571Y-27233333D01*
X183923809Y-27185714D01*
X184114286Y-27185714D01*
X184209524Y-27233333D01*
X184257143Y-27328571D01*
X184257143Y-27423810D01*
X183780952Y-27519048D01*
X184685714Y-27185714D02*
X184685714Y-27852381D01*
X184685714Y-27280952D02*
X184733333Y-27233333D01*
X184828571Y-27185714D01*
X184971429Y-27185714D01*
X185066667Y-27233333D01*
X185114286Y-27328571D01*
X185114286Y-27852381D01*
X185542857Y-27804762D02*
X185638095Y-27852381D01*
X185828571Y-27852381D01*
X185923810Y-27804762D01*
X185971429Y-27709524D01*
X185971429Y-27661905D01*
X185923810Y-27566667D01*
X185828571Y-27519048D01*
X185685714Y-27519048D01*
X185590476Y-27471429D01*
X185542857Y-27376190D01*
X185542857Y-27328571D01*
X185590476Y-27233333D01*
X185685714Y-27185714D01*
X185828571Y-27185714D01*
X185923810Y-27233333D01*
X186780953Y-27804762D02*
X186685715Y-27852381D01*
X186495238Y-27852381D01*
X186400000Y-27804762D01*
X186352381Y-27709524D01*
X186352381Y-27328571D01*
X186400000Y-27233333D01*
X186495238Y-27185714D01*
X186685715Y-27185714D01*
X186780953Y-27233333D01*
X186828572Y-27328571D01*
X186828572Y-27423810D01*
X186352381Y-27519048D01*
X183176174Y-30083456D02*
X184176174Y-30083456D01*
X184176174Y-28383456D02*
X183176174Y-28383456D01*
X188100000Y-42250000D02*
X187100000Y-42250000D01*
X187100000Y-43950000D02*
X188100000Y-43950000D01*
X185000000Y-46900000D02*
X184000000Y-46900000D01*
X184000000Y-48600000D02*
X185000000Y-48600000D01*
X185000000Y-44650000D02*
X184000000Y-44650000D01*
X184000000Y-46350000D02*
X185000000Y-46350000D01*
X178200000Y-34150000D02*
X179200000Y-34150000D01*
X179200000Y-32450000D02*
X178200000Y-32450000D01*
D12*
X186500000Y-51900000D02*
X182700000Y-51900000D01*
X182700000Y-51900000D02*
X182700000Y-49500000D01*
X182700000Y-49500000D02*
X186500000Y-49500000D01*
X186500000Y-49500000D02*
X186500000Y-51900000D01*
X183630000Y-26670000D02*
X186170000Y-26670000D01*
X183630000Y-24130000D02*
X186170000Y-24130000D01*
X186170000Y-24130000D02*
X186170000Y-26670000D01*
X183630000Y-26670000D02*
X183630000Y-24130000D01*
X190500000Y-30480000D02*
X193040000Y-30480000D01*
X190500000Y-27940000D02*
X193040000Y-27940000D01*
X193040000Y-27940000D02*
X193040000Y-30480000D01*
X190500000Y-30480000D02*
X190500000Y-27940000D01*
X176530000Y-45720000D02*
X179070000Y-45720000D01*
X176530000Y-43180000D02*
X179070000Y-43180000D01*
X179070000Y-43180000D02*
X179070000Y-45720000D01*
X176530000Y-45720000D02*
X176530000Y-43180000D01*
X190500000Y-45720000D02*
X193040000Y-45720000D01*
X190500000Y-43180000D02*
X193040000Y-43180000D01*
X193040000Y-43180000D02*
X193040000Y-45720000D01*
X190500000Y-45720000D02*
X190500000Y-43180000D01*
D11*
X178276174Y-28358456D02*
X179476174Y-28358456D01*
X179476174Y-30108456D02*
X178276174Y-30108456D01*
X181700000Y-42225000D02*
X182900000Y-42225000D01*
X182900000Y-43975000D02*
X181700000Y-43975000D01*
X179600000Y-54125000D02*
X178400000Y-54125000D01*
X178400000Y-52375000D02*
X179600000Y-52375000D01*
X185300000Y-54125000D02*
X184100000Y-54125000D01*
X184100000Y-52375000D02*
X185300000Y-52375000D01*
X191000000Y-54125000D02*
X189800000Y-54125000D01*
X189800000Y-52375000D02*
X191000000Y-52375000D01*
D12*
X177899900Y-37500000D02*
X179500100Y-37500000D01*
X178700000Y-36699900D02*
X178700000Y-38300100D01*
X179997403Y-37500000D02*
G75*
G03X179997403Y-37500000I-1297403J0D01*
G01*
X178700000Y-35749940D02*
X180500860Y-35749940D01*
X180500860Y-35749940D02*
X180500860Y-39498980D01*
X180500860Y-39498980D02*
X176899140Y-39498980D01*
X176899140Y-39498980D02*
X176899140Y-35749940D01*
X176899140Y-35749940D02*
X178700000Y-35749940D01*
D11*
X181660000Y-35214000D02*
X186740000Y-35214000D01*
X186740000Y-35214000D02*
X186740000Y-39786000D01*
X186740000Y-39786000D02*
X181660000Y-39786000D01*
X181660000Y-39786000D02*
X181660000Y-35214000D01*
X181660000Y-36738000D02*
X182168000Y-36738000D01*
X182168000Y-36738000D02*
X182168000Y-38008000D01*
X182168000Y-38008000D02*
X181660000Y-38008000D01*
D12*
X188699900Y-37500000D02*
X190300100Y-37500000D01*
X189500000Y-36699900D02*
X189500000Y-38300100D01*
X190797403Y-37500000D02*
G75*
G03X190797403Y-37500000I-1297403J0D01*
G01*
X189500000Y-35749940D02*
X191300860Y-35749940D01*
X191300860Y-35749940D02*
X191300860Y-39498980D01*
X191300860Y-39498980D02*
X187699140Y-39498980D01*
X187699140Y-39498980D02*
X187699140Y-35749940D01*
X187699140Y-35749940D02*
X189500000Y-35749940D01*
D13*
G36*
X180816420Y-49810640D02*
X180854520Y-49805560D01*
X180887540Y-49795400D01*
X180902780Y-49787780D01*
X180935800Y-49764920D01*
X180961200Y-49736980D01*
X180978980Y-49706500D01*
X180991680Y-49670940D01*
X180999300Y-49635380D01*
X180996760Y-49597280D01*
X180989140Y-49561720D01*
X180971360Y-49526160D01*
X180961200Y-49510920D01*
X180945960Y-49493140D01*
X180928180Y-49477900D01*
X180912940Y-49465200D01*
X180907860Y-49462660D01*
X180874840Y-49447420D01*
X180841820Y-49439800D01*
X180803720Y-49437260D01*
X180791020Y-49437260D01*
X180770700Y-49439800D01*
X180752920Y-49444880D01*
X180732600Y-49455040D01*
X180709740Y-49465200D01*
X180679260Y-49490600D01*
X180656400Y-49521080D01*
X180636080Y-49554100D01*
X180631000Y-49569340D01*
X180625920Y-49589660D01*
X180623380Y-49602360D01*
X180623380Y-49604900D01*
X180623380Y-49604900D01*
X180623380Y-49597280D01*
X180623380Y-49597280D01*
X180615760Y-49571880D01*
X180608140Y-49549020D01*
X180595440Y-49526160D01*
X180575120Y-49498220D01*
X180547180Y-49472820D01*
X180514160Y-49452500D01*
X180476060Y-49439800D01*
X180437960Y-49437260D01*
X180427800Y-49437260D01*
X180397320Y-49439800D01*
X180369380Y-49447420D01*
X180364300Y-49449960D01*
X180331280Y-49467740D01*
X180303340Y-49490600D01*
X180280480Y-49521080D01*
X180262700Y-49551560D01*
X180252540Y-49584580D01*
X180252540Y-49587120D01*
X180250000Y-49594740D01*
X180250000Y-49599820D01*
X180250000Y-49599820D01*
X180250000Y-49594740D01*
X180247460Y-49584580D01*
X180247460Y-49582040D01*
X180234760Y-49549020D01*
X180216980Y-49516000D01*
X180194120Y-49488060D01*
X180171260Y-49470280D01*
X180138240Y-49452500D01*
X180102680Y-49439800D01*
X180062040Y-49437260D01*
X180034100Y-49439800D01*
X179998540Y-49447420D01*
X179962980Y-49465200D01*
X179932500Y-49488060D01*
X179909640Y-49518540D01*
X179904560Y-49523620D01*
X179896940Y-49536320D01*
X179891860Y-49549020D01*
X179889320Y-49556640D01*
X179881700Y-49574420D01*
X179879160Y-49589660D01*
X179876620Y-49602360D01*
X179876620Y-49604900D01*
X179876620Y-49604900D01*
X179874080Y-49597280D01*
X179871540Y-49576960D01*
X179861380Y-49551560D01*
X179851220Y-49528700D01*
X179828360Y-49498220D01*
X179797880Y-49472820D01*
X179764860Y-49452500D01*
X179729300Y-49439800D01*
X179691200Y-49437260D01*
X179655640Y-49439800D01*
X179617540Y-49449960D01*
X179584520Y-49467740D01*
X179554040Y-49493140D01*
X179538800Y-49510920D01*
X179526100Y-49531240D01*
X179513400Y-49554100D01*
X179508320Y-49574420D01*
X179500700Y-49612520D01*
X179503240Y-49648080D01*
X179510860Y-49683640D01*
X179526100Y-49716660D01*
X179546420Y-49744600D01*
X179571820Y-49770000D01*
X179602300Y-49790320D01*
X179635320Y-49803020D01*
X179673420Y-49810640D01*
X179678500Y-49810640D01*
X179716600Y-49810640D01*
X179752160Y-49800480D01*
X179785180Y-49785240D01*
X179797880Y-49775080D01*
X179823280Y-49754760D01*
X179846140Y-49726820D01*
X179861380Y-49698880D01*
X179863920Y-49688720D01*
X179869000Y-49673480D01*
X179874080Y-49655700D01*
X179876620Y-49643000D01*
X179876620Y-49635380D01*
X179876620Y-49643000D01*
X179876620Y-49650620D01*
X179881700Y-49665860D01*
X179886780Y-49686180D01*
X179891860Y-49701420D01*
X179902020Y-49719200D01*
X179924880Y-49749680D01*
X179952820Y-49775080D01*
X179985840Y-49795400D01*
X180023940Y-49808100D01*
X180029020Y-49808100D01*
X180054420Y-49810640D01*
X180082360Y-49810640D01*
X180107760Y-49805560D01*
X180133160Y-49797940D01*
X180166180Y-49780160D01*
X180199200Y-49754760D01*
X180199200Y-49752220D01*
X180222060Y-49726820D01*
X180237300Y-49693800D01*
X180247460Y-49663320D01*
X180247460Y-49660780D01*
X180250000Y-49653160D01*
X180250000Y-49648080D01*
X180250000Y-49650620D01*
X180252540Y-49658240D01*
X180252540Y-49660780D01*
X180257620Y-49681100D01*
X180265240Y-49701420D01*
X180277940Y-49721740D01*
X180293180Y-49744600D01*
X180321120Y-49772540D01*
X180354140Y-49792860D01*
X180392240Y-49805560D01*
X180397320Y-49808100D01*
X180422720Y-49810640D01*
X180450660Y-49810640D01*
X180476060Y-49808100D01*
X180496380Y-49800480D01*
X180531940Y-49785240D01*
X180562420Y-49762380D01*
X180587820Y-49734440D01*
X180608140Y-49701420D01*
X180610680Y-49691260D01*
X180618300Y-49673480D01*
X180620840Y-49655700D01*
X180623380Y-49643000D01*
X180623380Y-49643000D01*
X180623380Y-49643000D01*
X180625920Y-49650620D01*
X180625920Y-49650620D01*
X180631000Y-49673480D01*
X180641160Y-49698880D01*
X180651320Y-49721740D01*
X180656400Y-49729360D01*
X180679260Y-49757300D01*
X180709740Y-49780160D01*
X180742760Y-49797940D01*
X180778320Y-49808100D01*
X180816420Y-49810640D01*
X180816420Y-49810640D01*
G37*
X180816420Y-49810640D02*
X180854520Y-49805560D01*
X180887540Y-49795400D01*
X180902780Y-49787780D01*
X180935800Y-49764920D01*
X180961200Y-49736980D01*
X180978980Y-49706500D01*
X180991680Y-49670940D01*
X180999300Y-49635380D01*
X180996760Y-49597280D01*
X180989140Y-49561720D01*
X180971360Y-49526160D01*
X180961200Y-49510920D01*
X180945960Y-49493140D01*
X180928180Y-49477900D01*
X180912940Y-49465200D01*
X180907860Y-49462660D01*
X180874840Y-49447420D01*
X180841820Y-49439800D01*
X180803720Y-49437260D01*
X180791020Y-49437260D01*
X180770700Y-49439800D01*
X180752920Y-49444880D01*
X180732600Y-49455040D01*
X180709740Y-49465200D01*
X180679260Y-49490600D01*
X180656400Y-49521080D01*
X180636080Y-49554100D01*
X180631000Y-49569340D01*
X180625920Y-49589660D01*
X180623380Y-49602360D01*
X180623380Y-49604900D01*
X180623380Y-49604900D01*
X180623380Y-49597280D01*
X180623380Y-49597280D01*
X180615760Y-49571880D01*
X180608140Y-49549020D01*
X180595440Y-49526160D01*
X180575120Y-49498220D01*
X180547180Y-49472820D01*
X180514160Y-49452500D01*
X180476060Y-49439800D01*
X180437960Y-49437260D01*
X180427800Y-49437260D01*
X180397320Y-49439800D01*
X180369380Y-49447420D01*
X180364300Y-49449960D01*
X180331280Y-49467740D01*
X180303340Y-49490600D01*
X180280480Y-49521080D01*
X180262700Y-49551560D01*
X180252540Y-49584580D01*
X180252540Y-49587120D01*
X180250000Y-49594740D01*
X180250000Y-49599820D01*
X180250000Y-49599820D01*
X180250000Y-49594740D01*
X180247460Y-49584580D01*
X180247460Y-49582040D01*
X180234760Y-49549020D01*
X180216980Y-49516000D01*
X180194120Y-49488060D01*
X180171260Y-49470280D01*
X180138240Y-49452500D01*
X180102680Y-49439800D01*
X180062040Y-49437260D01*
X180034100Y-49439800D01*
X179998540Y-49447420D01*
X179962980Y-49465200D01*
X179932500Y-49488060D01*
X179909640Y-49518540D01*
X179904560Y-49523620D01*
X179896940Y-49536320D01*
X179891860Y-49549020D01*
X179889320Y-49556640D01*
X179881700Y-49574420D01*
X179879160Y-49589660D01*
X179876620Y-49602360D01*
X179876620Y-49604900D01*
X179876620Y-49604900D01*
X179874080Y-49597280D01*
X179871540Y-49576960D01*
X179861380Y-49551560D01*
X179851220Y-49528700D01*
X179828360Y-49498220D01*
X179797880Y-49472820D01*
X179764860Y-49452500D01*
X179729300Y-49439800D01*
X179691200Y-49437260D01*
X179655640Y-49439800D01*
X179617540Y-49449960D01*
X179584520Y-49467740D01*
X179554040Y-49493140D01*
X179538800Y-49510920D01*
X179526100Y-49531240D01*
X179513400Y-49554100D01*
X179508320Y-49574420D01*
X179500700Y-49612520D01*
X179503240Y-49648080D01*
X179510860Y-49683640D01*
X179526100Y-49716660D01*
X179546420Y-49744600D01*
X179571820Y-49770000D01*
X179602300Y-49790320D01*
X179635320Y-49803020D01*
X179673420Y-49810640D01*
X179678500Y-49810640D01*
X179716600Y-49810640D01*
X179752160Y-49800480D01*
X179785180Y-49785240D01*
X179797880Y-49775080D01*
X179823280Y-49754760D01*
X179846140Y-49726820D01*
X179861380Y-49698880D01*
X179863920Y-49688720D01*
X179869000Y-49673480D01*
X179874080Y-49655700D01*
X179876620Y-49643000D01*
X179876620Y-49635380D01*
X179876620Y-49643000D01*
X179876620Y-49650620D01*
X179881700Y-49665860D01*
X179886780Y-49686180D01*
X179891860Y-49701420D01*
X179902020Y-49719200D01*
X179924880Y-49749680D01*
X179952820Y-49775080D01*
X179985840Y-49795400D01*
X180023940Y-49808100D01*
X180029020Y-49808100D01*
X180054420Y-49810640D01*
X180082360Y-49810640D01*
X180107760Y-49805560D01*
X180133160Y-49797940D01*
X180166180Y-49780160D01*
X180199200Y-49754760D01*
X180199200Y-49752220D01*
X180222060Y-49726820D01*
X180237300Y-49693800D01*
X180247460Y-49663320D01*
X180247460Y-49660780D01*
X180250000Y-49653160D01*
X180250000Y-49648080D01*
X180250000Y-49650620D01*
X180252540Y-49658240D01*
X180252540Y-49660780D01*
X180257620Y-49681100D01*
X180265240Y-49701420D01*
X180277940Y-49721740D01*
X180293180Y-49744600D01*
X180321120Y-49772540D01*
X180354140Y-49792860D01*
X180392240Y-49805560D01*
X180397320Y-49808100D01*
X180422720Y-49810640D01*
X180450660Y-49810640D01*
X180476060Y-49808100D01*
X180496380Y-49800480D01*
X180531940Y-49785240D01*
X180562420Y-49762380D01*
X180587820Y-49734440D01*
X180608140Y-49701420D01*
X180610680Y-49691260D01*
X180618300Y-49673480D01*
X180620840Y-49655700D01*
X180623380Y-49643000D01*
X180623380Y-49643000D01*
X180623380Y-49643000D01*
X180625920Y-49650620D01*
X180625920Y-49650620D01*
X180631000Y-49673480D01*
X180641160Y-49698880D01*
X180651320Y-49721740D01*
X180656400Y-49729360D01*
X180679260Y-49757300D01*
X180709740Y-49780160D01*
X180742760Y-49797940D01*
X180778320Y-49808100D01*
X180816420Y-49810640D01*
G36*
X179302580Y-49437260D02*
X179325440Y-49434720D01*
X179345760Y-49434720D01*
X179371160Y-49427100D01*
X179406720Y-49411860D01*
X179437200Y-49389000D01*
X179462600Y-49361060D01*
X179482920Y-49328040D01*
X179495620Y-49292480D01*
X179500700Y-49254380D01*
X179498160Y-49216280D01*
X179488000Y-49180720D01*
X179472760Y-49147700D01*
X179447360Y-49117220D01*
X179416880Y-49091820D01*
X179409260Y-49086740D01*
X179371160Y-49071500D01*
X179335600Y-49061340D01*
X179294960Y-49061340D01*
X179256860Y-49068960D01*
X179226380Y-49081660D01*
X179193360Y-49104520D01*
X179167960Y-49132460D01*
X179145100Y-49165480D01*
X179132400Y-49203580D01*
X179127320Y-49221360D01*
X179127320Y-49246760D01*
X179127320Y-49269620D01*
X179129860Y-49289940D01*
X179132400Y-49297560D01*
X179147640Y-49335660D01*
X179167960Y-49368680D01*
X179198440Y-49396620D01*
X179231460Y-49416940D01*
X179246700Y-49424560D01*
X179269560Y-49432180D01*
X179289880Y-49434720D01*
X179302580Y-49437260D01*
X179302580Y-49437260D01*
G37*
X179302580Y-49437260D02*
X179325440Y-49434720D01*
X179345760Y-49434720D01*
X179371160Y-49427100D01*
X179406720Y-49411860D01*
X179437200Y-49389000D01*
X179462600Y-49361060D01*
X179482920Y-49328040D01*
X179495620Y-49292480D01*
X179500700Y-49254380D01*
X179498160Y-49216280D01*
X179488000Y-49180720D01*
X179472760Y-49147700D01*
X179447360Y-49117220D01*
X179416880Y-49091820D01*
X179409260Y-49086740D01*
X179371160Y-49071500D01*
X179335600Y-49061340D01*
X179294960Y-49061340D01*
X179256860Y-49068960D01*
X179226380Y-49081660D01*
X179193360Y-49104520D01*
X179167960Y-49132460D01*
X179145100Y-49165480D01*
X179132400Y-49203580D01*
X179127320Y-49221360D01*
X179127320Y-49246760D01*
X179127320Y-49269620D01*
X179129860Y-49289940D01*
X179132400Y-49297560D01*
X179147640Y-49335660D01*
X179167960Y-49368680D01*
X179198440Y-49396620D01*
X179231460Y-49416940D01*
X179246700Y-49424560D01*
X179269560Y-49432180D01*
X179289880Y-49434720D01*
X179302580Y-49437260D01*
G36*
X181189800Y-49437260D02*
X181227900Y-49432180D01*
X181266000Y-49419480D01*
X181301560Y-49396620D01*
X181309180Y-49391540D01*
X181334580Y-49363600D01*
X181354900Y-49330580D01*
X181367600Y-49295020D01*
X181372680Y-49274700D01*
X181372680Y-49251840D01*
X181372680Y-49226440D01*
X181370140Y-49208660D01*
X181367600Y-49198500D01*
X181352360Y-49160400D01*
X181332040Y-49129920D01*
X181304100Y-49101980D01*
X181271080Y-49081660D01*
X181235520Y-49068960D01*
X181197420Y-49061340D01*
X181182180Y-49061340D01*
X181144080Y-49066420D01*
X181108520Y-49076580D01*
X181078040Y-49096900D01*
X181050100Y-49119760D01*
X181027240Y-49150240D01*
X181012000Y-49183260D01*
X181001840Y-49218820D01*
X180999300Y-49256920D01*
X181001840Y-49279780D01*
X181006920Y-49300100D01*
X181014540Y-49322960D01*
X181029780Y-49350900D01*
X181052640Y-49381380D01*
X181083120Y-49404240D01*
X181116140Y-49422020D01*
X181151700Y-49432180D01*
X181189800Y-49437260D01*
X181189800Y-49437260D01*
G37*
X181189800Y-49437260D02*
X181227900Y-49432180D01*
X181266000Y-49419480D01*
X181301560Y-49396620D01*
X181309180Y-49391540D01*
X181334580Y-49363600D01*
X181354900Y-49330580D01*
X181367600Y-49295020D01*
X181372680Y-49274700D01*
X181372680Y-49251840D01*
X181372680Y-49226440D01*
X181370140Y-49208660D01*
X181367600Y-49198500D01*
X181352360Y-49160400D01*
X181332040Y-49129920D01*
X181304100Y-49101980D01*
X181271080Y-49081660D01*
X181235520Y-49068960D01*
X181197420Y-49061340D01*
X181182180Y-49061340D01*
X181144080Y-49066420D01*
X181108520Y-49076580D01*
X181078040Y-49096900D01*
X181050100Y-49119760D01*
X181027240Y-49150240D01*
X181012000Y-49183260D01*
X181001840Y-49218820D01*
X180999300Y-49256920D01*
X181001840Y-49279780D01*
X181006920Y-49300100D01*
X181014540Y-49322960D01*
X181029780Y-49350900D01*
X181052640Y-49381380D01*
X181083120Y-49404240D01*
X181116140Y-49422020D01*
X181151700Y-49432180D01*
X181189800Y-49437260D01*
G36*
X178929200Y-49061340D02*
X178954600Y-49061340D01*
X178977460Y-49056260D01*
X179005400Y-49048640D01*
X179038420Y-49030860D01*
X179071440Y-49005460D01*
X179091760Y-48982600D01*
X179109540Y-48949580D01*
X179122240Y-48914020D01*
X179124780Y-48898780D01*
X179124780Y-48875920D01*
X179124780Y-48853060D01*
X179122240Y-48835280D01*
X179119700Y-48822580D01*
X179104460Y-48787020D01*
X179084140Y-48754000D01*
X179056200Y-48726060D01*
X179020640Y-48705740D01*
X179007940Y-48700660D01*
X178985080Y-48690500D01*
X178959680Y-48687960D01*
X178931740Y-48687960D01*
X178913960Y-48687960D01*
X178893640Y-48690500D01*
X178875860Y-48695580D01*
X178855540Y-48705740D01*
X178842840Y-48713360D01*
X178812360Y-48736220D01*
X178786960Y-48764160D01*
X178766640Y-48799720D01*
X178753940Y-48837820D01*
X178753940Y-48845440D01*
X178751400Y-48868300D01*
X178751400Y-48891160D01*
X178753940Y-48911480D01*
X178756480Y-48924180D01*
X178771720Y-48959740D01*
X178794580Y-48992760D01*
X178819980Y-49020700D01*
X178855540Y-49041020D01*
X178891100Y-49056260D01*
X178903800Y-49058800D01*
X178929200Y-49061340D01*
X178929200Y-49061340D01*
G37*
X178929200Y-49061340D02*
X178954600Y-49061340D01*
X178977460Y-49056260D01*
X179005400Y-49048640D01*
X179038420Y-49030860D01*
X179071440Y-49005460D01*
X179091760Y-48982600D01*
X179109540Y-48949580D01*
X179122240Y-48914020D01*
X179124780Y-48898780D01*
X179124780Y-48875920D01*
X179124780Y-48853060D01*
X179122240Y-48835280D01*
X179119700Y-48822580D01*
X179104460Y-48787020D01*
X179084140Y-48754000D01*
X179056200Y-48726060D01*
X179020640Y-48705740D01*
X179007940Y-48700660D01*
X178985080Y-48690500D01*
X178959680Y-48687960D01*
X178931740Y-48687960D01*
X178913960Y-48687960D01*
X178893640Y-48690500D01*
X178875860Y-48695580D01*
X178855540Y-48705740D01*
X178842840Y-48713360D01*
X178812360Y-48736220D01*
X178786960Y-48764160D01*
X178766640Y-48799720D01*
X178753940Y-48837820D01*
X178753940Y-48845440D01*
X178751400Y-48868300D01*
X178751400Y-48891160D01*
X178753940Y-48911480D01*
X178756480Y-48924180D01*
X178771720Y-48959740D01*
X178794580Y-48992760D01*
X178819980Y-49020700D01*
X178855540Y-49041020D01*
X178891100Y-49056260D01*
X178903800Y-49058800D01*
X178929200Y-49061340D01*
G36*
X180432880Y-49061340D02*
X180468440Y-49058800D01*
X180504000Y-49048640D01*
X180526860Y-49038480D01*
X180557340Y-49015620D01*
X180585280Y-48987680D01*
X180605600Y-48954660D01*
X180618300Y-48919100D01*
X180620840Y-48911480D01*
X180623380Y-48881000D01*
X180623380Y-48853060D01*
X180615760Y-48820040D01*
X180600520Y-48781940D01*
X180577660Y-48751460D01*
X180549720Y-48726060D01*
X180516700Y-48705740D01*
X180478600Y-48690500D01*
X180455740Y-48685420D01*
X180468440Y-48682880D01*
X180470980Y-48682880D01*
X180496380Y-48675260D01*
X180524320Y-48662560D01*
X180552260Y-48647320D01*
X180554800Y-48642240D01*
X180582740Y-48616840D01*
X180603060Y-48583820D01*
X180615760Y-48548260D01*
X180623380Y-48512700D01*
X180623380Y-48477140D01*
X180613220Y-48441580D01*
X180597980Y-48406020D01*
X180597980Y-48403480D01*
X180572580Y-48373000D01*
X180544640Y-48347600D01*
X180514160Y-48329820D01*
X180478600Y-48319660D01*
X180443040Y-48314580D01*
X180407480Y-48317120D01*
X180371920Y-48324740D01*
X180338900Y-48342520D01*
X180305880Y-48365380D01*
X180290640Y-48383160D01*
X180272860Y-48411100D01*
X180257620Y-48439040D01*
X180252540Y-48466980D01*
X180250000Y-48474600D01*
X180250000Y-48477140D01*
X180250000Y-48474600D01*
X180247460Y-48466980D01*
X180242380Y-48441580D01*
X180229680Y-48416180D01*
X180214440Y-48390780D01*
X180204280Y-48378080D01*
X180176340Y-48352680D01*
X180143320Y-48332360D01*
X180107760Y-48319660D01*
X180069660Y-48314580D01*
X180031560Y-48317120D01*
X180008700Y-48322200D01*
X179973140Y-48337440D01*
X179942660Y-48357760D01*
X179914720Y-48385700D01*
X179894400Y-48418720D01*
X179881700Y-48456820D01*
X179879160Y-48474600D01*
X179876620Y-48512700D01*
X179884240Y-48548260D01*
X179896940Y-48583820D01*
X179917260Y-48616840D01*
X179945200Y-48642240D01*
X179978220Y-48665100D01*
X179993460Y-48672720D01*
X180011240Y-48677800D01*
X180026480Y-48682880D01*
X180039180Y-48685420D01*
X180039180Y-48685420D01*
X180039180Y-48685420D01*
X180031560Y-48687960D01*
X180013780Y-48693040D01*
X179988380Y-48703200D01*
X179965520Y-48713360D01*
X179955360Y-48720980D01*
X179929960Y-48743840D01*
X179907100Y-48769240D01*
X179891860Y-48797180D01*
X179881700Y-48830200D01*
X179876620Y-48863220D01*
X179876620Y-48896240D01*
X179879160Y-48901320D01*
X179889320Y-48941960D01*
X179907100Y-48974980D01*
X179932500Y-49005460D01*
X179952820Y-49025780D01*
X179985840Y-49046100D01*
X180023940Y-49056260D01*
X180036640Y-49058800D01*
X180056960Y-49061340D01*
X180079820Y-49058800D01*
X180100140Y-49058800D01*
X180115380Y-49053720D01*
X180128080Y-49051180D01*
X180163640Y-49033400D01*
X180194120Y-49008000D01*
X180219520Y-48977520D01*
X180229680Y-48962280D01*
X180239840Y-48936880D01*
X180247460Y-48911480D01*
X180247460Y-48911480D01*
X180250000Y-48901320D01*
X180250000Y-48898780D01*
X180250000Y-48898780D01*
X180250000Y-48847980D01*
X180250000Y-48847980D01*
X180250000Y-48845440D01*
X180247460Y-48835280D01*
X180247460Y-48832740D01*
X180234760Y-48799720D01*
X180216980Y-48766700D01*
X180194120Y-48738760D01*
X180166180Y-48715900D01*
X180133160Y-48700660D01*
X180130620Y-48698120D01*
X180115380Y-48693040D01*
X180100140Y-48690500D01*
X180082360Y-48685420D01*
X180097600Y-48682880D01*
X180120460Y-48677800D01*
X180153480Y-48662560D01*
X180183960Y-48642240D01*
X180211900Y-48614300D01*
X180232220Y-48583820D01*
X180237300Y-48568580D01*
X180244920Y-48548260D01*
X180247460Y-48533020D01*
X180250000Y-48525400D01*
X180250000Y-48522860D01*
X180250000Y-48525400D01*
X180252540Y-48533020D01*
X180255080Y-48545720D01*
X180260160Y-48566040D01*
X180267780Y-48583820D01*
X180280480Y-48604140D01*
X180305880Y-48632080D01*
X180333820Y-48654940D01*
X180366840Y-48672720D01*
X180402400Y-48682880D01*
X180417640Y-48685420D01*
X180402400Y-48690500D01*
X180399860Y-48690500D01*
X180382080Y-48693040D01*
X180366840Y-48700660D01*
X180364300Y-48700660D01*
X180331280Y-48718440D01*
X180303340Y-48741300D01*
X180280480Y-48769240D01*
X180262700Y-48802260D01*
X180252540Y-48835280D01*
X180252540Y-48835280D01*
X180250000Y-48845440D01*
X180250000Y-48847980D01*
X180250000Y-48898780D01*
X180250000Y-48898780D01*
X180250000Y-48903860D01*
X180252540Y-48911480D01*
X180260160Y-48936880D01*
X180275400Y-48969900D01*
X180298260Y-49000380D01*
X180326200Y-49025780D01*
X180359220Y-49043560D01*
X180359220Y-49043560D01*
X180394780Y-49056260D01*
X180432880Y-49061340D01*
X180432880Y-49061340D01*
G37*
X180432880Y-49061340D02*
X180468440Y-49058800D01*
X180504000Y-49048640D01*
X180526860Y-49038480D01*
X180557340Y-49015620D01*
X180585280Y-48987680D01*
X180605600Y-48954660D01*
X180618300Y-48919100D01*
X180620840Y-48911480D01*
X180623380Y-48881000D01*
X180623380Y-48853060D01*
X180615760Y-48820040D01*
X180600520Y-48781940D01*
X180577660Y-48751460D01*
X180549720Y-48726060D01*
X180516700Y-48705740D01*
X180478600Y-48690500D01*
X180455740Y-48685420D01*
X180468440Y-48682880D01*
X180470980Y-48682880D01*
X180496380Y-48675260D01*
X180524320Y-48662560D01*
X180552260Y-48647320D01*
X180554800Y-48642240D01*
X180582740Y-48616840D01*
X180603060Y-48583820D01*
X180615760Y-48548260D01*
X180623380Y-48512700D01*
X180623380Y-48477140D01*
X180613220Y-48441580D01*
X180597980Y-48406020D01*
X180597980Y-48403480D01*
X180572580Y-48373000D01*
X180544640Y-48347600D01*
X180514160Y-48329820D01*
X180478600Y-48319660D01*
X180443040Y-48314580D01*
X180407480Y-48317120D01*
X180371920Y-48324740D01*
X180338900Y-48342520D01*
X180305880Y-48365380D01*
X180290640Y-48383160D01*
X180272860Y-48411100D01*
X180257620Y-48439040D01*
X180252540Y-48466980D01*
X180250000Y-48474600D01*
X180250000Y-48477140D01*
X180250000Y-48474600D01*
X180247460Y-48466980D01*
X180242380Y-48441580D01*
X180229680Y-48416180D01*
X180214440Y-48390780D01*
X180204280Y-48378080D01*
X180176340Y-48352680D01*
X180143320Y-48332360D01*
X180107760Y-48319660D01*
X180069660Y-48314580D01*
X180031560Y-48317120D01*
X180008700Y-48322200D01*
X179973140Y-48337440D01*
X179942660Y-48357760D01*
X179914720Y-48385700D01*
X179894400Y-48418720D01*
X179881700Y-48456820D01*
X179879160Y-48474600D01*
X179876620Y-48512700D01*
X179884240Y-48548260D01*
X179896940Y-48583820D01*
X179917260Y-48616840D01*
X179945200Y-48642240D01*
X179978220Y-48665100D01*
X179993460Y-48672720D01*
X180011240Y-48677800D01*
X180026480Y-48682880D01*
X180039180Y-48685420D01*
X180039180Y-48685420D01*
X180039180Y-48685420D01*
X180031560Y-48687960D01*
X180013780Y-48693040D01*
X179988380Y-48703200D01*
X179965520Y-48713360D01*
X179955360Y-48720980D01*
X179929960Y-48743840D01*
X179907100Y-48769240D01*
X179891860Y-48797180D01*
X179881700Y-48830200D01*
X179876620Y-48863220D01*
X179876620Y-48896240D01*
X179879160Y-48901320D01*
X179889320Y-48941960D01*
X179907100Y-48974980D01*
X179932500Y-49005460D01*
X179952820Y-49025780D01*
X179985840Y-49046100D01*
X180023940Y-49056260D01*
X180036640Y-49058800D01*
X180056960Y-49061340D01*
X180079820Y-49058800D01*
X180100140Y-49058800D01*
X180115380Y-49053720D01*
X180128080Y-49051180D01*
X180163640Y-49033400D01*
X180194120Y-49008000D01*
X180219520Y-48977520D01*
X180229680Y-48962280D01*
X180239840Y-48936880D01*
X180247460Y-48911480D01*
X180247460Y-48911480D01*
X180250000Y-48901320D01*
X180250000Y-48898780D01*
X180250000Y-48898780D01*
X180250000Y-48847980D01*
X180250000Y-48847980D01*
X180250000Y-48845440D01*
X180247460Y-48835280D01*
X180247460Y-48832740D01*
X180234760Y-48799720D01*
X180216980Y-48766700D01*
X180194120Y-48738760D01*
X180166180Y-48715900D01*
X180133160Y-48700660D01*
X180130620Y-48698120D01*
X180115380Y-48693040D01*
X180100140Y-48690500D01*
X180082360Y-48685420D01*
X180097600Y-48682880D01*
X180120460Y-48677800D01*
X180153480Y-48662560D01*
X180183960Y-48642240D01*
X180211900Y-48614300D01*
X180232220Y-48583820D01*
X180237300Y-48568580D01*
X180244920Y-48548260D01*
X180247460Y-48533020D01*
X180250000Y-48525400D01*
X180250000Y-48522860D01*
X180250000Y-48525400D01*
X180252540Y-48533020D01*
X180255080Y-48545720D01*
X180260160Y-48566040D01*
X180267780Y-48583820D01*
X180280480Y-48604140D01*
X180305880Y-48632080D01*
X180333820Y-48654940D01*
X180366840Y-48672720D01*
X180402400Y-48682880D01*
X180417640Y-48685420D01*
X180402400Y-48690500D01*
X180399860Y-48690500D01*
X180382080Y-48693040D01*
X180366840Y-48700660D01*
X180364300Y-48700660D01*
X180331280Y-48718440D01*
X180303340Y-48741300D01*
X180280480Y-48769240D01*
X180262700Y-48802260D01*
X180252540Y-48835280D01*
X180252540Y-48835280D01*
X180250000Y-48845440D01*
X180250000Y-48847980D01*
X180250000Y-48898780D01*
X180250000Y-48898780D01*
X180250000Y-48903860D01*
X180252540Y-48911480D01*
X180260160Y-48936880D01*
X180275400Y-48969900D01*
X180298260Y-49000380D01*
X180326200Y-49025780D01*
X180359220Y-49043560D01*
X180359220Y-49043560D01*
X180394780Y-49056260D01*
X180432880Y-49061340D01*
G36*
X181547940Y-49061340D02*
X181578420Y-49061340D01*
X181606360Y-49056260D01*
X181624140Y-49051180D01*
X181659700Y-49033400D01*
X181690180Y-49010540D01*
X181715580Y-48982600D01*
X181733360Y-48949580D01*
X181743520Y-48914020D01*
X181748600Y-48873380D01*
X181748600Y-48858140D01*
X181740980Y-48820040D01*
X181725740Y-48784480D01*
X181702880Y-48748920D01*
X181695260Y-48743840D01*
X181669860Y-48720980D01*
X181639380Y-48703200D01*
X181606360Y-48690500D01*
X181603820Y-48690500D01*
X181575880Y-48687960D01*
X181545400Y-48687960D01*
X181517460Y-48690500D01*
X181507300Y-48693040D01*
X181471740Y-48708280D01*
X181441260Y-48731140D01*
X181415860Y-48756540D01*
X181395540Y-48787020D01*
X181380300Y-48820040D01*
X181375220Y-48858140D01*
X181375220Y-48896240D01*
X181382840Y-48934340D01*
X181395540Y-48962280D01*
X181418400Y-48992760D01*
X181446340Y-49020700D01*
X181476820Y-49041020D01*
X181514920Y-49056260D01*
X181517460Y-49056260D01*
X181547940Y-49061340D01*
X181547940Y-49061340D01*
G37*
X181547940Y-49061340D02*
X181578420Y-49061340D01*
X181606360Y-49056260D01*
X181624140Y-49051180D01*
X181659700Y-49033400D01*
X181690180Y-49010540D01*
X181715580Y-48982600D01*
X181733360Y-48949580D01*
X181743520Y-48914020D01*
X181748600Y-48873380D01*
X181748600Y-48858140D01*
X181740980Y-48820040D01*
X181725740Y-48784480D01*
X181702880Y-48748920D01*
X181695260Y-48743840D01*
X181669860Y-48720980D01*
X181639380Y-48703200D01*
X181606360Y-48690500D01*
X181603820Y-48690500D01*
X181575880Y-48687960D01*
X181545400Y-48687960D01*
X181517460Y-48690500D01*
X181507300Y-48693040D01*
X181471740Y-48708280D01*
X181441260Y-48731140D01*
X181415860Y-48756540D01*
X181395540Y-48787020D01*
X181380300Y-48820040D01*
X181375220Y-48858140D01*
X181375220Y-48896240D01*
X181382840Y-48934340D01*
X181395540Y-48962280D01*
X181418400Y-48992760D01*
X181446340Y-49020700D01*
X181476820Y-49041020D01*
X181514920Y-49056260D01*
X181517460Y-49056260D01*
X181547940Y-49061340D01*
G36*
X179693740Y-47938660D02*
X179731840Y-47933580D01*
X179767400Y-47920880D01*
X179785180Y-47913260D01*
X179800420Y-47900560D01*
X179818200Y-47885320D01*
X179838520Y-47865000D01*
X179858840Y-47831980D01*
X179871540Y-47796420D01*
X179874080Y-47786260D01*
X179876620Y-47760860D01*
X179876620Y-47735460D01*
X179871540Y-47712600D01*
X179861380Y-47679580D01*
X179846140Y-47646560D01*
X179823280Y-47618620D01*
X179818200Y-47616080D01*
X179800420Y-47600840D01*
X179780100Y-47588140D01*
X179762320Y-47577980D01*
X179754700Y-47575440D01*
X179739460Y-47570360D01*
X179724220Y-47567820D01*
X179714060Y-47565280D01*
X179706440Y-47565280D01*
X179714060Y-47562740D01*
X179724220Y-47560200D01*
X179734380Y-47557660D01*
X179749620Y-47555120D01*
X179777560Y-47539880D01*
X179805500Y-47524640D01*
X179825820Y-47504320D01*
X179830900Y-47499240D01*
X179853760Y-47466220D01*
X179869000Y-47430660D01*
X179876620Y-47395100D01*
X179876620Y-47357000D01*
X179874080Y-47346840D01*
X179863920Y-47308740D01*
X179846140Y-47275720D01*
X179820740Y-47242700D01*
X179797880Y-47224920D01*
X179764860Y-47204600D01*
X179729300Y-47191900D01*
X179721680Y-47191900D01*
X179696280Y-47189360D01*
X179670880Y-47189360D01*
X179645480Y-47194440D01*
X179625160Y-47199520D01*
X179589600Y-47217300D01*
X179559120Y-47240160D01*
X179536260Y-47268100D01*
X179515940Y-47301120D01*
X179505780Y-47336680D01*
X179503240Y-47341760D01*
X179500700Y-47349380D01*
X179500700Y-47354460D01*
X179498160Y-47349380D01*
X179498160Y-47341760D01*
X179495620Y-47326520D01*
X179488000Y-47308740D01*
X179482920Y-47293500D01*
X179475300Y-47283340D01*
X179452440Y-47250320D01*
X179424500Y-47224920D01*
X179391480Y-47204600D01*
X179355920Y-47194440D01*
X179315280Y-47189360D01*
X179284800Y-47191900D01*
X179249240Y-47199520D01*
X179216220Y-47217300D01*
X179195900Y-47230000D01*
X179167960Y-47257940D01*
X179147640Y-47288420D01*
X179132400Y-47323980D01*
X179127320Y-47359540D01*
X179127320Y-47397640D01*
X179134940Y-47433200D01*
X179150180Y-47468760D01*
X179173040Y-47499240D01*
X179200980Y-47527180D01*
X179236540Y-47547500D01*
X179274640Y-47560200D01*
X179294960Y-47565280D01*
X179282260Y-47565280D01*
X179274640Y-47567820D01*
X179244160Y-47575440D01*
X179216220Y-47590680D01*
X179188280Y-47611000D01*
X179165420Y-47633860D01*
X179152720Y-47654180D01*
X179140020Y-47679580D01*
X179132400Y-47704980D01*
X179127320Y-47725300D01*
X179127320Y-47748160D01*
X179127320Y-47773560D01*
X179129860Y-47791340D01*
X179137480Y-47814200D01*
X179155260Y-47849760D01*
X179178120Y-47880240D01*
X179208600Y-47905640D01*
X179241620Y-47925960D01*
X179282260Y-47936120D01*
X179292420Y-47938660D01*
X179315280Y-47938660D01*
X179338140Y-47936120D01*
X179361000Y-47933580D01*
X179376240Y-47928500D01*
X179411800Y-47910720D01*
X179442280Y-47887860D01*
X179467680Y-47859920D01*
X179485460Y-47826900D01*
X179498160Y-47788800D01*
X179498160Y-47786260D01*
X179500700Y-47776100D01*
X179500700Y-47778640D01*
X179500700Y-47725300D01*
X179500700Y-47725300D01*
X179498160Y-47717680D01*
X179498160Y-47715140D01*
X179490540Y-47689740D01*
X179480380Y-47664340D01*
X179465140Y-47638940D01*
X179452440Y-47626240D01*
X179424500Y-47598300D01*
X179388940Y-47580520D01*
X179350840Y-47567820D01*
X179333060Y-47562740D01*
X179345760Y-47560200D01*
X179358460Y-47557660D01*
X179368620Y-47555120D01*
X179376240Y-47552580D01*
X179411800Y-47537340D01*
X179442280Y-47511940D01*
X179467680Y-47484000D01*
X179485460Y-47450980D01*
X179498160Y-47415420D01*
X179498160Y-47407800D01*
X179500700Y-47402720D01*
X179503240Y-47405260D01*
X179505780Y-47415420D01*
X179505780Y-47417960D01*
X179510860Y-47438280D01*
X179521020Y-47458600D01*
X179531180Y-47478920D01*
X179541340Y-47491620D01*
X179559120Y-47509400D01*
X179576900Y-47527180D01*
X179594680Y-47539880D01*
X179597220Y-47539880D01*
X179625160Y-47552580D01*
X179655640Y-47560200D01*
X179668340Y-47562740D01*
X179653100Y-47567820D01*
X179620080Y-47575440D01*
X179587060Y-47593220D01*
X179556580Y-47616080D01*
X179533720Y-47644020D01*
X179528640Y-47654180D01*
X179518480Y-47671960D01*
X179510860Y-47692280D01*
X179505780Y-47710060D01*
X179503240Y-47722760D01*
X179503240Y-47722760D01*
X179500700Y-47725300D01*
X179500700Y-47778640D01*
X179503240Y-47778640D01*
X179503240Y-47786260D01*
X179505780Y-47796420D01*
X179510860Y-47809120D01*
X179518480Y-47826900D01*
X179536260Y-47859920D01*
X179561660Y-47887860D01*
X179589600Y-47910720D01*
X179622620Y-47925960D01*
X179658180Y-47936120D01*
X179693740Y-47938660D01*
X179693740Y-47938660D01*
G37*
X179693740Y-47938660D02*
X179731840Y-47933580D01*
X179767400Y-47920880D01*
X179785180Y-47913260D01*
X179800420Y-47900560D01*
X179818200Y-47885320D01*
X179838520Y-47865000D01*
X179858840Y-47831980D01*
X179871540Y-47796420D01*
X179874080Y-47786260D01*
X179876620Y-47760860D01*
X179876620Y-47735460D01*
X179871540Y-47712600D01*
X179861380Y-47679580D01*
X179846140Y-47646560D01*
X179823280Y-47618620D01*
X179818200Y-47616080D01*
X179800420Y-47600840D01*
X179780100Y-47588140D01*
X179762320Y-47577980D01*
X179754700Y-47575440D01*
X179739460Y-47570360D01*
X179724220Y-47567820D01*
X179714060Y-47565280D01*
X179706440Y-47565280D01*
X179714060Y-47562740D01*
X179724220Y-47560200D01*
X179734380Y-47557660D01*
X179749620Y-47555120D01*
X179777560Y-47539880D01*
X179805500Y-47524640D01*
X179825820Y-47504320D01*
X179830900Y-47499240D01*
X179853760Y-47466220D01*
X179869000Y-47430660D01*
X179876620Y-47395100D01*
X179876620Y-47357000D01*
X179874080Y-47346840D01*
X179863920Y-47308740D01*
X179846140Y-47275720D01*
X179820740Y-47242700D01*
X179797880Y-47224920D01*
X179764860Y-47204600D01*
X179729300Y-47191900D01*
X179721680Y-47191900D01*
X179696280Y-47189360D01*
X179670880Y-47189360D01*
X179645480Y-47194440D01*
X179625160Y-47199520D01*
X179589600Y-47217300D01*
X179559120Y-47240160D01*
X179536260Y-47268100D01*
X179515940Y-47301120D01*
X179505780Y-47336680D01*
X179503240Y-47341760D01*
X179500700Y-47349380D01*
X179500700Y-47354460D01*
X179498160Y-47349380D01*
X179498160Y-47341760D01*
X179495620Y-47326520D01*
X179488000Y-47308740D01*
X179482920Y-47293500D01*
X179475300Y-47283340D01*
X179452440Y-47250320D01*
X179424500Y-47224920D01*
X179391480Y-47204600D01*
X179355920Y-47194440D01*
X179315280Y-47189360D01*
X179284800Y-47191900D01*
X179249240Y-47199520D01*
X179216220Y-47217300D01*
X179195900Y-47230000D01*
X179167960Y-47257940D01*
X179147640Y-47288420D01*
X179132400Y-47323980D01*
X179127320Y-47359540D01*
X179127320Y-47397640D01*
X179134940Y-47433200D01*
X179150180Y-47468760D01*
X179173040Y-47499240D01*
X179200980Y-47527180D01*
X179236540Y-47547500D01*
X179274640Y-47560200D01*
X179294960Y-47565280D01*
X179282260Y-47565280D01*
X179274640Y-47567820D01*
X179244160Y-47575440D01*
X179216220Y-47590680D01*
X179188280Y-47611000D01*
X179165420Y-47633860D01*
X179152720Y-47654180D01*
X179140020Y-47679580D01*
X179132400Y-47704980D01*
X179127320Y-47725300D01*
X179127320Y-47748160D01*
X179127320Y-47773560D01*
X179129860Y-47791340D01*
X179137480Y-47814200D01*
X179155260Y-47849760D01*
X179178120Y-47880240D01*
X179208600Y-47905640D01*
X179241620Y-47925960D01*
X179282260Y-47936120D01*
X179292420Y-47938660D01*
X179315280Y-47938660D01*
X179338140Y-47936120D01*
X179361000Y-47933580D01*
X179376240Y-47928500D01*
X179411800Y-47910720D01*
X179442280Y-47887860D01*
X179467680Y-47859920D01*
X179485460Y-47826900D01*
X179498160Y-47788800D01*
X179498160Y-47786260D01*
X179500700Y-47776100D01*
X179500700Y-47778640D01*
X179500700Y-47725300D01*
X179500700Y-47725300D01*
X179498160Y-47717680D01*
X179498160Y-47715140D01*
X179490540Y-47689740D01*
X179480380Y-47664340D01*
X179465140Y-47638940D01*
X179452440Y-47626240D01*
X179424500Y-47598300D01*
X179388940Y-47580520D01*
X179350840Y-47567820D01*
X179333060Y-47562740D01*
X179345760Y-47560200D01*
X179358460Y-47557660D01*
X179368620Y-47555120D01*
X179376240Y-47552580D01*
X179411800Y-47537340D01*
X179442280Y-47511940D01*
X179467680Y-47484000D01*
X179485460Y-47450980D01*
X179498160Y-47415420D01*
X179498160Y-47407800D01*
X179500700Y-47402720D01*
X179503240Y-47405260D01*
X179505780Y-47415420D01*
X179505780Y-47417960D01*
X179510860Y-47438280D01*
X179521020Y-47458600D01*
X179531180Y-47478920D01*
X179541340Y-47491620D01*
X179559120Y-47509400D01*
X179576900Y-47527180D01*
X179594680Y-47539880D01*
X179597220Y-47539880D01*
X179625160Y-47552580D01*
X179655640Y-47560200D01*
X179668340Y-47562740D01*
X179653100Y-47567820D01*
X179620080Y-47575440D01*
X179587060Y-47593220D01*
X179556580Y-47616080D01*
X179533720Y-47644020D01*
X179528640Y-47654180D01*
X179518480Y-47671960D01*
X179510860Y-47692280D01*
X179505780Y-47710060D01*
X179503240Y-47722760D01*
X179503240Y-47722760D01*
X179500700Y-47725300D01*
X179500700Y-47778640D01*
X179503240Y-47778640D01*
X179503240Y-47786260D01*
X179505780Y-47796420D01*
X179510860Y-47809120D01*
X179518480Y-47826900D01*
X179536260Y-47859920D01*
X179561660Y-47887860D01*
X179589600Y-47910720D01*
X179622620Y-47925960D01*
X179658180Y-47936120D01*
X179693740Y-47938660D01*
G36*
X180821500Y-47938660D02*
X180857060Y-47933580D01*
X180892620Y-47920880D01*
X180925640Y-47900560D01*
X180951040Y-47875160D01*
X180973900Y-47844680D01*
X180989140Y-47809120D01*
X180994220Y-47796420D01*
X180996760Y-47786260D01*
X180996760Y-47783720D01*
X180999300Y-47776100D01*
X180999300Y-47776100D01*
X180999300Y-47725300D01*
X180996760Y-47720220D01*
X180994220Y-47707520D01*
X180986600Y-47684660D01*
X180971360Y-47651640D01*
X180948500Y-47621160D01*
X180918020Y-47598300D01*
X180885000Y-47577980D01*
X180849440Y-47567820D01*
X180831660Y-47562740D01*
X180844360Y-47560200D01*
X180844360Y-47560200D01*
X180874840Y-47552580D01*
X180905320Y-47539880D01*
X180915480Y-47532260D01*
X180935800Y-47514480D01*
X180953580Y-47496700D01*
X180968820Y-47478920D01*
X180976440Y-47463680D01*
X180989140Y-47438280D01*
X180994220Y-47417960D01*
X180996760Y-47407800D01*
X180999300Y-47402720D01*
X180999300Y-47405260D01*
X181001840Y-47415420D01*
X181009460Y-47440820D01*
X181027240Y-47476380D01*
X181052640Y-47506860D01*
X181080580Y-47529720D01*
X181113600Y-47550040D01*
X181154240Y-47560200D01*
X181166940Y-47562740D01*
X181149160Y-47567820D01*
X181131380Y-47572900D01*
X181095820Y-47588140D01*
X181062800Y-47611000D01*
X181037400Y-47638940D01*
X181027240Y-47649100D01*
X181019620Y-47666880D01*
X181009460Y-47687200D01*
X181004380Y-47699900D01*
X181001840Y-47715140D01*
X181001840Y-47715140D01*
X180999300Y-47722760D01*
X180999300Y-47725300D01*
X180999300Y-47776100D01*
X180999300Y-47778640D01*
X181001840Y-47788800D01*
X181004380Y-47801500D01*
X181017080Y-47829440D01*
X181029780Y-47854840D01*
X181042480Y-47870080D01*
X181070420Y-47898020D01*
X181103440Y-47918340D01*
X181141540Y-47933580D01*
X181156780Y-47936120D01*
X181182180Y-47938660D01*
X181210120Y-47936120D01*
X181232980Y-47933580D01*
X181235520Y-47933580D01*
X181273620Y-47918340D01*
X181306640Y-47895480D01*
X181332040Y-47867540D01*
X181354900Y-47834520D01*
X181367600Y-47796420D01*
X181372680Y-47781180D01*
X181372680Y-47753240D01*
X181372680Y-47727840D01*
X181367600Y-47704980D01*
X181362520Y-47684660D01*
X181349820Y-47659260D01*
X181334580Y-47633860D01*
X181316800Y-47616080D01*
X181293940Y-47598300D01*
X181268540Y-47583060D01*
X181260920Y-47577980D01*
X181243140Y-47572900D01*
X181225360Y-47567820D01*
X181212660Y-47565280D01*
X181210120Y-47565280D01*
X181215200Y-47562740D01*
X181225360Y-47560200D01*
X181248220Y-47552580D01*
X181271080Y-47542420D01*
X181291400Y-47532260D01*
X181296480Y-47527180D01*
X181321880Y-47506860D01*
X181342200Y-47478920D01*
X181357440Y-47450980D01*
X181365060Y-47438280D01*
X181372680Y-47400180D01*
X181372680Y-47362080D01*
X181367600Y-47323980D01*
X181365060Y-47316360D01*
X181347280Y-47280800D01*
X181324420Y-47250320D01*
X181296480Y-47224920D01*
X181263460Y-47204600D01*
X181225360Y-47191900D01*
X181220280Y-47191900D01*
X181194880Y-47189360D01*
X181166940Y-47189360D01*
X181144080Y-47194440D01*
X181136460Y-47194440D01*
X181100900Y-47209680D01*
X181067880Y-47230000D01*
X181039940Y-47260480D01*
X181017080Y-47293500D01*
X181012000Y-47303660D01*
X181006920Y-47321440D01*
X181001840Y-47336680D01*
X181001840Y-47349380D01*
X181001840Y-47351920D01*
X180999300Y-47351920D01*
X180996760Y-47346840D01*
X180994220Y-47336680D01*
X180989140Y-47311280D01*
X180971360Y-47278260D01*
X180948500Y-47250320D01*
X180920560Y-47224920D01*
X180887540Y-47204600D01*
X180887540Y-47204600D01*
X180854520Y-47194440D01*
X180816420Y-47189360D01*
X180778320Y-47191900D01*
X180742760Y-47202060D01*
X180722440Y-47212220D01*
X180689420Y-47232540D01*
X180664020Y-47260480D01*
X180643700Y-47293500D01*
X180628460Y-47331600D01*
X180628460Y-47339220D01*
X180623380Y-47369700D01*
X180625920Y-47397640D01*
X180633540Y-47433200D01*
X180648780Y-47468760D01*
X180671640Y-47499240D01*
X180699580Y-47527180D01*
X180732600Y-47547500D01*
X180770700Y-47560200D01*
X180778320Y-47562740D01*
X180785940Y-47565280D01*
X180785940Y-47565280D01*
X180775780Y-47565280D01*
X180752920Y-47572900D01*
X180730060Y-47583060D01*
X180707200Y-47595760D01*
X180686880Y-47611000D01*
X180661480Y-47638940D01*
X180641160Y-47674500D01*
X180638620Y-47679580D01*
X180625920Y-47715140D01*
X180623380Y-47753240D01*
X180628460Y-47793880D01*
X180641160Y-47829440D01*
X180648780Y-47847220D01*
X180661480Y-47862460D01*
X180676720Y-47880240D01*
X180676720Y-47882780D01*
X180707200Y-47908180D01*
X180742760Y-47925960D01*
X180778320Y-47936120D01*
X180783400Y-47936120D01*
X180821500Y-47938660D01*
X180821500Y-47938660D01*
G37*
X180821500Y-47938660D02*
X180857060Y-47933580D01*
X180892620Y-47920880D01*
X180925640Y-47900560D01*
X180951040Y-47875160D01*
X180973900Y-47844680D01*
X180989140Y-47809120D01*
X180994220Y-47796420D01*
X180996760Y-47786260D01*
X180996760Y-47783720D01*
X180999300Y-47776100D01*
X180999300Y-47776100D01*
X180999300Y-47725300D01*
X180996760Y-47720220D01*
X180994220Y-47707520D01*
X180986600Y-47684660D01*
X180971360Y-47651640D01*
X180948500Y-47621160D01*
X180918020Y-47598300D01*
X180885000Y-47577980D01*
X180849440Y-47567820D01*
X180831660Y-47562740D01*
X180844360Y-47560200D01*
X180844360Y-47560200D01*
X180874840Y-47552580D01*
X180905320Y-47539880D01*
X180915480Y-47532260D01*
X180935800Y-47514480D01*
X180953580Y-47496700D01*
X180968820Y-47478920D01*
X180976440Y-47463680D01*
X180989140Y-47438280D01*
X180994220Y-47417960D01*
X180996760Y-47407800D01*
X180999300Y-47402720D01*
X180999300Y-47405260D01*
X181001840Y-47415420D01*
X181009460Y-47440820D01*
X181027240Y-47476380D01*
X181052640Y-47506860D01*
X181080580Y-47529720D01*
X181113600Y-47550040D01*
X181154240Y-47560200D01*
X181166940Y-47562740D01*
X181149160Y-47567820D01*
X181131380Y-47572900D01*
X181095820Y-47588140D01*
X181062800Y-47611000D01*
X181037400Y-47638940D01*
X181027240Y-47649100D01*
X181019620Y-47666880D01*
X181009460Y-47687200D01*
X181004380Y-47699900D01*
X181001840Y-47715140D01*
X181001840Y-47715140D01*
X180999300Y-47722760D01*
X180999300Y-47725300D01*
X180999300Y-47776100D01*
X180999300Y-47778640D01*
X181001840Y-47788800D01*
X181004380Y-47801500D01*
X181017080Y-47829440D01*
X181029780Y-47854840D01*
X181042480Y-47870080D01*
X181070420Y-47898020D01*
X181103440Y-47918340D01*
X181141540Y-47933580D01*
X181156780Y-47936120D01*
X181182180Y-47938660D01*
X181210120Y-47936120D01*
X181232980Y-47933580D01*
X181235520Y-47933580D01*
X181273620Y-47918340D01*
X181306640Y-47895480D01*
X181332040Y-47867540D01*
X181354900Y-47834520D01*
X181367600Y-47796420D01*
X181372680Y-47781180D01*
X181372680Y-47753240D01*
X181372680Y-47727840D01*
X181367600Y-47704980D01*
X181362520Y-47684660D01*
X181349820Y-47659260D01*
X181334580Y-47633860D01*
X181316800Y-47616080D01*
X181293940Y-47598300D01*
X181268540Y-47583060D01*
X181260920Y-47577980D01*
X181243140Y-47572900D01*
X181225360Y-47567820D01*
X181212660Y-47565280D01*
X181210120Y-47565280D01*
X181215200Y-47562740D01*
X181225360Y-47560200D01*
X181248220Y-47552580D01*
X181271080Y-47542420D01*
X181291400Y-47532260D01*
X181296480Y-47527180D01*
X181321880Y-47506860D01*
X181342200Y-47478920D01*
X181357440Y-47450980D01*
X181365060Y-47438280D01*
X181372680Y-47400180D01*
X181372680Y-47362080D01*
X181367600Y-47323980D01*
X181365060Y-47316360D01*
X181347280Y-47280800D01*
X181324420Y-47250320D01*
X181296480Y-47224920D01*
X181263460Y-47204600D01*
X181225360Y-47191900D01*
X181220280Y-47191900D01*
X181194880Y-47189360D01*
X181166940Y-47189360D01*
X181144080Y-47194440D01*
X181136460Y-47194440D01*
X181100900Y-47209680D01*
X181067880Y-47230000D01*
X181039940Y-47260480D01*
X181017080Y-47293500D01*
X181012000Y-47303660D01*
X181006920Y-47321440D01*
X181001840Y-47336680D01*
X181001840Y-47349380D01*
X181001840Y-47351920D01*
X180999300Y-47351920D01*
X180996760Y-47346840D01*
X180994220Y-47336680D01*
X180989140Y-47311280D01*
X180971360Y-47278260D01*
X180948500Y-47250320D01*
X180920560Y-47224920D01*
X180887540Y-47204600D01*
X180887540Y-47204600D01*
X180854520Y-47194440D01*
X180816420Y-47189360D01*
X180778320Y-47191900D01*
X180742760Y-47202060D01*
X180722440Y-47212220D01*
X180689420Y-47232540D01*
X180664020Y-47260480D01*
X180643700Y-47293500D01*
X180628460Y-47331600D01*
X180628460Y-47339220D01*
X180623380Y-47369700D01*
X180625920Y-47397640D01*
X180633540Y-47433200D01*
X180648780Y-47468760D01*
X180671640Y-47499240D01*
X180699580Y-47527180D01*
X180732600Y-47547500D01*
X180770700Y-47560200D01*
X180778320Y-47562740D01*
X180785940Y-47565280D01*
X180785940Y-47565280D01*
X180775780Y-47565280D01*
X180752920Y-47572900D01*
X180730060Y-47583060D01*
X180707200Y-47595760D01*
X180686880Y-47611000D01*
X180661480Y-47638940D01*
X180641160Y-47674500D01*
X180638620Y-47679580D01*
X180625920Y-47715140D01*
X180623380Y-47753240D01*
X180628460Y-47793880D01*
X180641160Y-47829440D01*
X180648780Y-47847220D01*
X180661480Y-47862460D01*
X180676720Y-47880240D01*
X180676720Y-47882780D01*
X180707200Y-47908180D01*
X180742760Y-47925960D01*
X180778320Y-47936120D01*
X180783400Y-47936120D01*
X180821500Y-47938660D01*
G36*
X189590680Y-50346200D02*
X189608460Y-50338580D01*
X189641480Y-50315720D01*
X189692280Y-50282700D01*
X189750700Y-50244600D01*
X189811660Y-50203960D01*
X189859920Y-50170940D01*
X189895480Y-50148080D01*
X189908180Y-50140460D01*
X189915800Y-50143000D01*
X189943740Y-50158240D01*
X189984380Y-50178560D01*
X190009780Y-50191260D01*
X190047880Y-50206500D01*
X190065660Y-50211580D01*
X190068200Y-50206500D01*
X190083440Y-50176020D01*
X190103760Y-50127760D01*
X190131700Y-50061720D01*
X190164720Y-49985520D01*
X190200280Y-49904240D01*
X190233300Y-49820420D01*
X190266320Y-49741680D01*
X190296800Y-49668020D01*
X190319660Y-49609600D01*
X190334900Y-49568960D01*
X190342520Y-49551180D01*
X190339980Y-49548640D01*
X190322200Y-49530860D01*
X190289180Y-49505460D01*
X190218060Y-49447040D01*
X190146940Y-49360680D01*
X190103760Y-49261620D01*
X190091060Y-49149860D01*
X190101220Y-49048260D01*
X190141860Y-48951740D01*
X190210440Y-48862840D01*
X190294260Y-48796800D01*
X190390780Y-48756160D01*
X190500000Y-48743460D01*
X190604140Y-48753620D01*
X190703200Y-48794260D01*
X190792100Y-48860300D01*
X190830200Y-48903480D01*
X190881000Y-48994920D01*
X190911480Y-49088900D01*
X190914020Y-49111760D01*
X190908940Y-49218440D01*
X190878460Y-49320040D01*
X190822580Y-49408940D01*
X190746380Y-49482600D01*
X190736220Y-49490220D01*
X190700660Y-49518160D01*
X190675260Y-49535940D01*
X190657480Y-49551180D01*
X190792100Y-49873760D01*
X190812420Y-49924560D01*
X190850520Y-50013460D01*
X190881000Y-50089660D01*
X190908940Y-50150620D01*
X190926720Y-50191260D01*
X190934340Y-50206500D01*
X190934340Y-50206500D01*
X190947040Y-50209040D01*
X190969900Y-50201420D01*
X191015620Y-50178560D01*
X191046100Y-50163320D01*
X191079120Y-50148080D01*
X191094360Y-50140460D01*
X191109600Y-50148080D01*
X191142620Y-50168400D01*
X191188340Y-50201420D01*
X191246760Y-50239520D01*
X191302640Y-50277620D01*
X191353440Y-50310640D01*
X191389000Y-50336040D01*
X191406780Y-50343660D01*
X191409320Y-50343660D01*
X191427100Y-50336040D01*
X191455040Y-50310640D01*
X191498220Y-50270000D01*
X191561720Y-50209040D01*
X191571880Y-50198880D01*
X191622680Y-50148080D01*
X191663320Y-50102360D01*
X191691260Y-50071880D01*
X191701420Y-50059180D01*
X191701420Y-50059180D01*
X191691260Y-50041400D01*
X191668400Y-50003300D01*
X191635380Y-49952500D01*
X191594740Y-49891540D01*
X191488060Y-49736600D01*
X191546480Y-49591820D01*
X191564260Y-49546100D01*
X191587120Y-49490220D01*
X191604900Y-49452120D01*
X191612520Y-49434340D01*
X191630300Y-49429260D01*
X191668400Y-49419100D01*
X191726820Y-49408940D01*
X191797940Y-49396240D01*
X191863980Y-49383540D01*
X191922400Y-49370840D01*
X191965580Y-49363220D01*
X191985900Y-49360680D01*
X191990980Y-49355600D01*
X191993520Y-49347980D01*
X191996060Y-49327660D01*
X191998600Y-49289560D01*
X191998600Y-49233680D01*
X191998600Y-49149860D01*
X191998600Y-49142240D01*
X191998600Y-49063500D01*
X191996060Y-49000000D01*
X191993520Y-48961900D01*
X191990980Y-48944120D01*
X191990980Y-48944120D01*
X191973200Y-48939040D01*
X191930020Y-48931420D01*
X191871600Y-48918720D01*
X191800480Y-48906020D01*
X191795400Y-48906020D01*
X191724280Y-48890780D01*
X191665860Y-48878080D01*
X191622680Y-48870460D01*
X191604900Y-48862840D01*
X191602360Y-48857760D01*
X191587120Y-48829820D01*
X191566800Y-48786640D01*
X191543940Y-48733300D01*
X191521080Y-48677420D01*
X191500760Y-48626620D01*
X191488060Y-48591060D01*
X191482980Y-48573280D01*
X191482980Y-48573280D01*
X191493140Y-48555500D01*
X191518540Y-48519940D01*
X191554100Y-48469140D01*
X191594740Y-48408180D01*
X191597280Y-48403100D01*
X191637920Y-48342140D01*
X191670940Y-48291340D01*
X191693800Y-48255780D01*
X191701420Y-48240540D01*
X191701420Y-48238000D01*
X191688720Y-48220220D01*
X191658240Y-48187200D01*
X191612520Y-48141480D01*
X191561720Y-48088140D01*
X191543940Y-48072900D01*
X191485520Y-48014480D01*
X191444880Y-47978920D01*
X191419480Y-47958600D01*
X191409320Y-47953520D01*
X191406780Y-47953520D01*
X191389000Y-47963680D01*
X191350900Y-47989080D01*
X191300100Y-48024640D01*
X191239140Y-48065280D01*
X191236600Y-48067820D01*
X191175640Y-48108460D01*
X191124840Y-48144020D01*
X191089280Y-48166880D01*
X191074040Y-48174500D01*
X191071500Y-48174500D01*
X191048640Y-48169420D01*
X191005460Y-48154180D01*
X190952120Y-48133860D01*
X190896240Y-48111000D01*
X190845440Y-48090680D01*
X190809880Y-48072900D01*
X190792100Y-48062740D01*
X190789560Y-48062740D01*
X190784480Y-48039880D01*
X190774320Y-47994160D01*
X190761620Y-47933200D01*
X190746380Y-47859540D01*
X190743840Y-47849380D01*
X190731140Y-47775720D01*
X190720980Y-47717300D01*
X190710820Y-47676660D01*
X190708280Y-47658880D01*
X190698120Y-47658880D01*
X190662560Y-47656340D01*
X190609220Y-47653800D01*
X190543180Y-47653800D01*
X190477140Y-47653800D01*
X190411100Y-47653800D01*
X190355220Y-47656340D01*
X190314580Y-47658880D01*
X190296800Y-47663960D01*
X190296800Y-47663960D01*
X190291720Y-47686820D01*
X190281560Y-47730000D01*
X190268860Y-47793500D01*
X190253620Y-47867160D01*
X190251080Y-47879860D01*
X190238380Y-47950980D01*
X190225680Y-48009400D01*
X190218060Y-48050040D01*
X190212980Y-48065280D01*
X190207900Y-48067820D01*
X190177420Y-48083060D01*
X190129160Y-48100840D01*
X190070740Y-48126240D01*
X189933580Y-48182120D01*
X189765940Y-48065280D01*
X189750700Y-48055120D01*
X189689740Y-48014480D01*
X189638940Y-47981460D01*
X189603380Y-47958600D01*
X189590680Y-47950980D01*
X189588140Y-47950980D01*
X189572900Y-47966220D01*
X189539880Y-47996700D01*
X189494160Y-48042420D01*
X189440820Y-48093220D01*
X189400180Y-48133860D01*
X189354460Y-48179580D01*
X189326520Y-48212600D01*
X189308740Y-48232920D01*
X189303660Y-48245620D01*
X189306200Y-48253240D01*
X189316360Y-48271020D01*
X189341760Y-48306580D01*
X189374780Y-48359920D01*
X189415420Y-48418340D01*
X189450980Y-48469140D01*
X189486540Y-48525020D01*
X189509400Y-48565660D01*
X189519560Y-48583440D01*
X189517020Y-48593600D01*
X189504320Y-48626620D01*
X189484000Y-48674880D01*
X189458600Y-48735840D01*
X189400180Y-48867920D01*
X189313820Y-48885700D01*
X189260480Y-48895860D01*
X189186820Y-48908560D01*
X189115700Y-48923800D01*
X189003940Y-48944120D01*
X189001400Y-49347980D01*
X189019180Y-49355600D01*
X189034420Y-49360680D01*
X189075060Y-49370840D01*
X189133480Y-49381000D01*
X189202060Y-49393700D01*
X189263020Y-49406400D01*
X189321440Y-49416560D01*
X189364620Y-49424180D01*
X189382400Y-49429260D01*
X189387480Y-49434340D01*
X189402720Y-49464820D01*
X189423040Y-49510540D01*
X189445900Y-49563880D01*
X189471300Y-49622300D01*
X189491620Y-49673100D01*
X189506860Y-49713740D01*
X189511940Y-49734060D01*
X189504320Y-49749300D01*
X189481460Y-49784860D01*
X189448440Y-49835660D01*
X189407800Y-49894080D01*
X189367160Y-49952500D01*
X189334140Y-50003300D01*
X189308740Y-50038860D01*
X189301120Y-50056640D01*
X189306200Y-50066800D01*
X189329060Y-50094740D01*
X189372240Y-50140460D01*
X189438280Y-50206500D01*
X189450980Y-50216660D01*
X189501780Y-50267460D01*
X189547500Y-50308100D01*
X189577980Y-50336040D01*
X189590680Y-50346200D01*
X189590680Y-50346200D01*
G37*
X189590680Y-50346200D02*
X189608460Y-50338580D01*
X189641480Y-50315720D01*
X189692280Y-50282700D01*
X189750700Y-50244600D01*
X189811660Y-50203960D01*
X189859920Y-50170940D01*
X189895480Y-50148080D01*
X189908180Y-50140460D01*
X189915800Y-50143000D01*
X189943740Y-50158240D01*
X189984380Y-50178560D01*
X190009780Y-50191260D01*
X190047880Y-50206500D01*
X190065660Y-50211580D01*
X190068200Y-50206500D01*
X190083440Y-50176020D01*
X190103760Y-50127760D01*
X190131700Y-50061720D01*
X190164720Y-49985520D01*
X190200280Y-49904240D01*
X190233300Y-49820420D01*
X190266320Y-49741680D01*
X190296800Y-49668020D01*
X190319660Y-49609600D01*
X190334900Y-49568960D01*
X190342520Y-49551180D01*
X190339980Y-49548640D01*
X190322200Y-49530860D01*
X190289180Y-49505460D01*
X190218060Y-49447040D01*
X190146940Y-49360680D01*
X190103760Y-49261620D01*
X190091060Y-49149860D01*
X190101220Y-49048260D01*
X190141860Y-48951740D01*
X190210440Y-48862840D01*
X190294260Y-48796800D01*
X190390780Y-48756160D01*
X190500000Y-48743460D01*
X190604140Y-48753620D01*
X190703200Y-48794260D01*
X190792100Y-48860300D01*
X190830200Y-48903480D01*
X190881000Y-48994920D01*
X190911480Y-49088900D01*
X190914020Y-49111760D01*
X190908940Y-49218440D01*
X190878460Y-49320040D01*
X190822580Y-49408940D01*
X190746380Y-49482600D01*
X190736220Y-49490220D01*
X190700660Y-49518160D01*
X190675260Y-49535940D01*
X190657480Y-49551180D01*
X190792100Y-49873760D01*
X190812420Y-49924560D01*
X190850520Y-50013460D01*
X190881000Y-50089660D01*
X190908940Y-50150620D01*
X190926720Y-50191260D01*
X190934340Y-50206500D01*
X190934340Y-50206500D01*
X190947040Y-50209040D01*
X190969900Y-50201420D01*
X191015620Y-50178560D01*
X191046100Y-50163320D01*
X191079120Y-50148080D01*
X191094360Y-50140460D01*
X191109600Y-50148080D01*
X191142620Y-50168400D01*
X191188340Y-50201420D01*
X191246760Y-50239520D01*
X191302640Y-50277620D01*
X191353440Y-50310640D01*
X191389000Y-50336040D01*
X191406780Y-50343660D01*
X191409320Y-50343660D01*
X191427100Y-50336040D01*
X191455040Y-50310640D01*
X191498220Y-50270000D01*
X191561720Y-50209040D01*
X191571880Y-50198880D01*
X191622680Y-50148080D01*
X191663320Y-50102360D01*
X191691260Y-50071880D01*
X191701420Y-50059180D01*
X191701420Y-50059180D01*
X191691260Y-50041400D01*
X191668400Y-50003300D01*
X191635380Y-49952500D01*
X191594740Y-49891540D01*
X191488060Y-49736600D01*
X191546480Y-49591820D01*
X191564260Y-49546100D01*
X191587120Y-49490220D01*
X191604900Y-49452120D01*
X191612520Y-49434340D01*
X191630300Y-49429260D01*
X191668400Y-49419100D01*
X191726820Y-49408940D01*
X191797940Y-49396240D01*
X191863980Y-49383540D01*
X191922400Y-49370840D01*
X191965580Y-49363220D01*
X191985900Y-49360680D01*
X191990980Y-49355600D01*
X191993520Y-49347980D01*
X191996060Y-49327660D01*
X191998600Y-49289560D01*
X191998600Y-49233680D01*
X191998600Y-49149860D01*
X191998600Y-49142240D01*
X191998600Y-49063500D01*
X191996060Y-49000000D01*
X191993520Y-48961900D01*
X191990980Y-48944120D01*
X191990980Y-48944120D01*
X191973200Y-48939040D01*
X191930020Y-48931420D01*
X191871600Y-48918720D01*
X191800480Y-48906020D01*
X191795400Y-48906020D01*
X191724280Y-48890780D01*
X191665860Y-48878080D01*
X191622680Y-48870460D01*
X191604900Y-48862840D01*
X191602360Y-48857760D01*
X191587120Y-48829820D01*
X191566800Y-48786640D01*
X191543940Y-48733300D01*
X191521080Y-48677420D01*
X191500760Y-48626620D01*
X191488060Y-48591060D01*
X191482980Y-48573280D01*
X191482980Y-48573280D01*
X191493140Y-48555500D01*
X191518540Y-48519940D01*
X191554100Y-48469140D01*
X191594740Y-48408180D01*
X191597280Y-48403100D01*
X191637920Y-48342140D01*
X191670940Y-48291340D01*
X191693800Y-48255780D01*
X191701420Y-48240540D01*
X191701420Y-48238000D01*
X191688720Y-48220220D01*
X191658240Y-48187200D01*
X191612520Y-48141480D01*
X191561720Y-48088140D01*
X191543940Y-48072900D01*
X191485520Y-48014480D01*
X191444880Y-47978920D01*
X191419480Y-47958600D01*
X191409320Y-47953520D01*
X191406780Y-47953520D01*
X191389000Y-47963680D01*
X191350900Y-47989080D01*
X191300100Y-48024640D01*
X191239140Y-48065280D01*
X191236600Y-48067820D01*
X191175640Y-48108460D01*
X191124840Y-48144020D01*
X191089280Y-48166880D01*
X191074040Y-48174500D01*
X191071500Y-48174500D01*
X191048640Y-48169420D01*
X191005460Y-48154180D01*
X190952120Y-48133860D01*
X190896240Y-48111000D01*
X190845440Y-48090680D01*
X190809880Y-48072900D01*
X190792100Y-48062740D01*
X190789560Y-48062740D01*
X190784480Y-48039880D01*
X190774320Y-47994160D01*
X190761620Y-47933200D01*
X190746380Y-47859540D01*
X190743840Y-47849380D01*
X190731140Y-47775720D01*
X190720980Y-47717300D01*
X190710820Y-47676660D01*
X190708280Y-47658880D01*
X190698120Y-47658880D01*
X190662560Y-47656340D01*
X190609220Y-47653800D01*
X190543180Y-47653800D01*
X190477140Y-47653800D01*
X190411100Y-47653800D01*
X190355220Y-47656340D01*
X190314580Y-47658880D01*
X190296800Y-47663960D01*
X190296800Y-47663960D01*
X190291720Y-47686820D01*
X190281560Y-47730000D01*
X190268860Y-47793500D01*
X190253620Y-47867160D01*
X190251080Y-47879860D01*
X190238380Y-47950980D01*
X190225680Y-48009400D01*
X190218060Y-48050040D01*
X190212980Y-48065280D01*
X190207900Y-48067820D01*
X190177420Y-48083060D01*
X190129160Y-48100840D01*
X190070740Y-48126240D01*
X189933580Y-48182120D01*
X189765940Y-48065280D01*
X189750700Y-48055120D01*
X189689740Y-48014480D01*
X189638940Y-47981460D01*
X189603380Y-47958600D01*
X189590680Y-47950980D01*
X189588140Y-47950980D01*
X189572900Y-47966220D01*
X189539880Y-47996700D01*
X189494160Y-48042420D01*
X189440820Y-48093220D01*
X189400180Y-48133860D01*
X189354460Y-48179580D01*
X189326520Y-48212600D01*
X189308740Y-48232920D01*
X189303660Y-48245620D01*
X189306200Y-48253240D01*
X189316360Y-48271020D01*
X189341760Y-48306580D01*
X189374780Y-48359920D01*
X189415420Y-48418340D01*
X189450980Y-48469140D01*
X189486540Y-48525020D01*
X189509400Y-48565660D01*
X189519560Y-48583440D01*
X189517020Y-48593600D01*
X189504320Y-48626620D01*
X189484000Y-48674880D01*
X189458600Y-48735840D01*
X189400180Y-48867920D01*
X189313820Y-48885700D01*
X189260480Y-48895860D01*
X189186820Y-48908560D01*
X189115700Y-48923800D01*
X189003940Y-48944120D01*
X189001400Y-49347980D01*
X189019180Y-49355600D01*
X189034420Y-49360680D01*
X189075060Y-49370840D01*
X189133480Y-49381000D01*
X189202060Y-49393700D01*
X189263020Y-49406400D01*
X189321440Y-49416560D01*
X189364620Y-49424180D01*
X189382400Y-49429260D01*
X189387480Y-49434340D01*
X189402720Y-49464820D01*
X189423040Y-49510540D01*
X189445900Y-49563880D01*
X189471300Y-49622300D01*
X189491620Y-49673100D01*
X189506860Y-49713740D01*
X189511940Y-49734060D01*
X189504320Y-49749300D01*
X189481460Y-49784860D01*
X189448440Y-49835660D01*
X189407800Y-49894080D01*
X189367160Y-49952500D01*
X189334140Y-50003300D01*
X189308740Y-50038860D01*
X189301120Y-50056640D01*
X189306200Y-50066800D01*
X189329060Y-50094740D01*
X189372240Y-50140460D01*
X189438280Y-50206500D01*
X189450980Y-50216660D01*
X189501780Y-50267460D01*
X189547500Y-50308100D01*
X189577980Y-50336040D01*
X189590680Y-50346200D01*
D11*
X183509508Y-31690599D02*
X183461889Y-31738218D01*
X183319032Y-31785837D01*
X183223794Y-31785837D01*
X183080936Y-31738218D01*
X182985698Y-31642980D01*
X182938079Y-31547742D01*
X182890460Y-31357266D01*
X182890460Y-31214408D01*
X182938079Y-31023932D01*
X182985698Y-30928694D01*
X183080936Y-30833456D01*
X183223794Y-30785837D01*
X183319032Y-30785837D01*
X183461889Y-30833456D01*
X183509508Y-30881075D01*
X184461889Y-31785837D02*
X183890460Y-31785837D01*
X184176174Y-31785837D02*
X184176174Y-30785837D01*
X184080936Y-30928694D01*
X183985698Y-31023932D01*
X183890460Y-31071551D01*
X188733334Y-41757143D02*
X188685715Y-41804762D01*
X188542858Y-41852381D01*
X188447620Y-41852381D01*
X188304762Y-41804762D01*
X188209524Y-41709524D01*
X188161905Y-41614286D01*
X188114286Y-41423810D01*
X188114286Y-41280952D01*
X188161905Y-41090476D01*
X188209524Y-40995238D01*
X188304762Y-40900000D01*
X188447620Y-40852381D01*
X188542858Y-40852381D01*
X188685715Y-40900000D01*
X188733334Y-40947619D01*
X189114286Y-40947619D02*
X189161905Y-40900000D01*
X189257143Y-40852381D01*
X189495239Y-40852381D01*
X189590477Y-40900000D01*
X189638096Y-40947619D01*
X189685715Y-41042857D01*
X189685715Y-41138095D01*
X189638096Y-41280952D01*
X189066667Y-41852381D01*
X189685715Y-41852381D01*
X187733334Y-48107143D02*
X187685715Y-48154762D01*
X187542858Y-48202381D01*
X187447620Y-48202381D01*
X187304762Y-48154762D01*
X187209524Y-48059524D01*
X187161905Y-47964286D01*
X187114286Y-47773810D01*
X187114286Y-47630952D01*
X187161905Y-47440476D01*
X187209524Y-47345238D01*
X187304762Y-47250000D01*
X187447620Y-47202381D01*
X187542858Y-47202381D01*
X187685715Y-47250000D01*
X187733334Y-47297619D01*
X188066667Y-47202381D02*
X188685715Y-47202381D01*
X188352381Y-47583333D01*
X188495239Y-47583333D01*
X188590477Y-47630952D01*
X188638096Y-47678571D01*
X188685715Y-47773810D01*
X188685715Y-48011905D01*
X188638096Y-48107143D01*
X188590477Y-48154762D01*
X188495239Y-48202381D01*
X188209524Y-48202381D01*
X188114286Y-48154762D01*
X188066667Y-48107143D01*
X187733334Y-45857143D02*
X187685715Y-45904762D01*
X187542858Y-45952381D01*
X187447620Y-45952381D01*
X187304762Y-45904762D01*
X187209524Y-45809524D01*
X187161905Y-45714286D01*
X187114286Y-45523810D01*
X187114286Y-45380952D01*
X187161905Y-45190476D01*
X187209524Y-45095238D01*
X187304762Y-45000000D01*
X187447620Y-44952381D01*
X187542858Y-44952381D01*
X187685715Y-45000000D01*
X187733334Y-45047619D01*
X188590477Y-45285714D02*
X188590477Y-45952381D01*
X188352381Y-44904762D02*
X188114286Y-45619048D01*
X188733334Y-45619048D01*
X182157143Y-32666666D02*
X182204762Y-32714285D01*
X182252381Y-32857142D01*
X182252381Y-32952380D01*
X182204762Y-33095238D01*
X182109524Y-33190476D01*
X182014286Y-33238095D01*
X181823810Y-33285714D01*
X181680952Y-33285714D01*
X181490476Y-33238095D01*
X181395238Y-33190476D01*
X181300000Y-33095238D01*
X181252381Y-32952380D01*
X181252381Y-32857142D01*
X181300000Y-32714285D01*
X181347619Y-32666666D01*
X181252381Y-31761904D02*
X181252381Y-32238095D01*
X181728571Y-32285714D01*
X181680952Y-32238095D01*
X181633333Y-32142857D01*
X181633333Y-31904761D01*
X181680952Y-31809523D01*
X181728571Y-31761904D01*
X181823810Y-31714285D01*
X182061905Y-31714285D01*
X182157143Y-31761904D01*
X182204762Y-31809523D01*
X182252381Y-31904761D01*
X182252381Y-32142857D01*
X182204762Y-32238095D01*
X182157143Y-32285714D01*
X178709508Y-31785837D02*
X178376174Y-31309646D01*
X178138079Y-31785837D02*
X178138079Y-30785837D01*
X178519032Y-30785837D01*
X178614270Y-30833456D01*
X178661889Y-30881075D01*
X178709508Y-30976313D01*
X178709508Y-31119170D01*
X178661889Y-31214408D01*
X178614270Y-31262027D01*
X178519032Y-31309646D01*
X178138079Y-31309646D01*
X179661889Y-31785837D02*
X179090460Y-31785837D01*
X179376174Y-31785837D02*
X179376174Y-30785837D01*
X179280936Y-30928694D01*
X179185698Y-31023932D01*
X179090460Y-31071551D01*
X180733334Y-45252381D02*
X180400000Y-44776190D01*
X180161905Y-45252381D02*
X180161905Y-44252381D01*
X180542858Y-44252381D01*
X180638096Y-44300000D01*
X180685715Y-44347619D01*
X180733334Y-44442857D01*
X180733334Y-44585714D01*
X180685715Y-44680952D01*
X180638096Y-44728571D01*
X180542858Y-44776190D01*
X180161905Y-44776190D01*
X181114286Y-44347619D02*
X181161905Y-44300000D01*
X181257143Y-44252381D01*
X181495239Y-44252381D01*
X181590477Y-44300000D01*
X181638096Y-44347619D01*
X181685715Y-44442857D01*
X181685715Y-44538095D01*
X181638096Y-44680952D01*
X181066667Y-45252381D01*
X181685715Y-45252381D01*
X178733334Y-51902381D02*
X178400000Y-51426190D01*
X178161905Y-51902381D02*
X178161905Y-50902381D01*
X178542858Y-50902381D01*
X178638096Y-50950000D01*
X178685715Y-50997619D01*
X178733334Y-51092857D01*
X178733334Y-51235714D01*
X178685715Y-51330952D01*
X178638096Y-51378571D01*
X178542858Y-51426190D01*
X178161905Y-51426190D01*
X179066667Y-50902381D02*
X179685715Y-50902381D01*
X179352381Y-51283333D01*
X179495239Y-51283333D01*
X179590477Y-51330952D01*
X179638096Y-51378571D01*
X179685715Y-51473810D01*
X179685715Y-51711905D01*
X179638096Y-51807143D01*
X179590477Y-51854762D01*
X179495239Y-51902381D01*
X179209524Y-51902381D01*
X179114286Y-51854762D01*
X179066667Y-51807143D01*
X182252381Y-51416666D02*
X181776190Y-51750000D01*
X182252381Y-51988095D02*
X181252381Y-51988095D01*
X181252381Y-51607142D01*
X181300000Y-51511904D01*
X181347619Y-51464285D01*
X181442857Y-51416666D01*
X181585714Y-51416666D01*
X181680952Y-51464285D01*
X181728571Y-51511904D01*
X181776190Y-51607142D01*
X181776190Y-51988095D01*
X181585714Y-50559523D02*
X182252381Y-50559523D01*
X181204762Y-50797619D02*
X181919048Y-51035714D01*
X181919048Y-50416666D01*
X190233334Y-51902381D02*
X189900000Y-51426190D01*
X189661905Y-51902381D02*
X189661905Y-50902381D01*
X190042858Y-50902381D01*
X190138096Y-50950000D01*
X190185715Y-50997619D01*
X190233334Y-51092857D01*
X190233334Y-51235714D01*
X190185715Y-51330952D01*
X190138096Y-51378571D01*
X190042858Y-51426190D01*
X189661905Y-51426190D01*
X191138096Y-50902381D02*
X190661905Y-50902381D01*
X190614286Y-51378571D01*
X190661905Y-51330952D01*
X190757143Y-51283333D01*
X190995239Y-51283333D01*
X191090477Y-51330952D01*
X191138096Y-51378571D01*
X191185715Y-51473810D01*
X191185715Y-51711905D01*
X191138096Y-51807143D01*
X191090477Y-51854762D01*
X190995239Y-51902381D01*
X190757143Y-51902381D01*
X190661905Y-51854762D01*
X190614286Y-51807143D01*
%LPC*%
D14*
X184926174Y-29233456D03*
X182426174Y-29233456D03*
X186350000Y-43100000D03*
X188850000Y-43100000D03*
X183250000Y-47750000D03*
X185750000Y-47750000D03*
X183250000Y-45500000D03*
X185750000Y-45500000D03*
X179950000Y-33300000D03*
X177450000Y-33300000D03*
D15*
X185800000Y-50700000D03*
D16*
X184600000Y-50700000D03*
D15*
X183400000Y-50700000D03*
D17*
X184900000Y-25400000D03*
X191770000Y-29210000D03*
X177800000Y-44450000D03*
X191770000Y-44450000D03*
D18*
X180226174Y-29233456D03*
X177526174Y-29233456D03*
X183650000Y-43100000D03*
X180950000Y-43100000D03*
X177650000Y-53250000D03*
X180350000Y-53250000D03*
X183350000Y-53250000D03*
X186050000Y-53250000D03*
X189050000Y-53250000D03*
X191750000Y-53250000D03*
D19*
X177699240Y-39300860D03*
X179700760Y-39300860D03*
D20*
X178700000Y-36049660D03*
D21*
X182295000Y-34325000D03*
X183565000Y-34325000D03*
X184835000Y-34325000D03*
X186105000Y-34325000D03*
X186105000Y-40675000D03*
X184835000Y-40675000D03*
X183565000Y-40675000D03*
X182295000Y-40675000D03*
D19*
X188499240Y-39300860D03*
X190500760Y-39300860D03*
D20*
X189500000Y-36049660D03*
M02*
