G04 #@! TF.FileFunction,Legend,Top*
%FSLAX46Y46*%
G04 Gerber Fmt 4.6, Leading zero omitted, Abs format (unit mm)*
G04 Created by KiCad (PCBNEW (2015-12-01 BZR 6337, Git 6f5a49b)-product) date Thu 03 Dec 2015 11:37:21 AM CET*
%MOMM*%
G01*
G04 APERTURE LIST*
%ADD10C,0.100000*%
%ADD11C,0.150000*%
%ADD12C,0.200000*%
%ADD13C,0.002540*%
%ADD14R,1.900000X1.650000*%
%ADD15R,1.400000X2.400000*%
%ADD16R,1.600000X2.600000*%
%ADD17R,2.050000X2.050000*%
%ADD18R,1.900000X1.700000*%
%ADD19R,1.598880X1.598880*%
%ADD20R,2.000200X1.901140*%
%ADD21R,0.908000X1.543000*%
G04 APERTURE END LIST*
D10*
D11*
X176942857Y-40552381D02*
X177276190Y-41552381D01*
X177609524Y-40552381D01*
X177942857Y-41552381D02*
X177942857Y-40885714D01*
X177942857Y-41076190D02*
X177990476Y-40980952D01*
X178038095Y-40933333D01*
X178133333Y-40885714D01*
X178228572Y-40885714D01*
X178942858Y-41504762D02*
X178847620Y-41552381D01*
X178657143Y-41552381D01*
X178561905Y-41504762D01*
X178514286Y-41409524D01*
X178514286Y-41028571D01*
X178561905Y-40933333D01*
X178657143Y-40885714D01*
X178847620Y-40885714D01*
X178942858Y-40933333D01*
X178990477Y-41028571D01*
X178990477Y-41123810D01*
X178514286Y-41219048D01*
X179276191Y-40885714D02*
X179657143Y-40885714D01*
X179419048Y-41552381D02*
X179419048Y-40695238D01*
X179466667Y-40600000D01*
X179561905Y-40552381D01*
X179657143Y-40552381D01*
X192614286Y-36721429D02*
X191804762Y-36721429D01*
X191709524Y-36673810D01*
X191661905Y-36626191D01*
X191614286Y-36530952D01*
X191614286Y-36388095D01*
X191661905Y-36292857D01*
X191995238Y-36721429D02*
X191947619Y-36626191D01*
X191947619Y-36435714D01*
X191995238Y-36340476D01*
X192042857Y-36292857D01*
X192138095Y-36245238D01*
X192423810Y-36245238D01*
X192519048Y-36292857D01*
X192566667Y-36340476D01*
X192614286Y-36435714D01*
X192614286Y-36626191D01*
X192566667Y-36721429D01*
X191947619Y-37626191D02*
X192471429Y-37626191D01*
X192566667Y-37578572D01*
X192614286Y-37483334D01*
X192614286Y-37292857D01*
X192566667Y-37197619D01*
X191995238Y-37626191D02*
X191947619Y-37530953D01*
X191947619Y-37292857D01*
X191995238Y-37197619D01*
X192090476Y-37150000D01*
X192185714Y-37150000D01*
X192280952Y-37197619D01*
X192328571Y-37292857D01*
X192328571Y-37530953D01*
X192376190Y-37626191D01*
X191947619Y-38102381D02*
X192614286Y-38102381D01*
X192947619Y-38102381D02*
X192900000Y-38054762D01*
X192852381Y-38102381D01*
X192900000Y-38150000D01*
X192947619Y-38102381D01*
X192852381Y-38102381D01*
X192614286Y-38578571D02*
X191947619Y-38578571D01*
X192519048Y-38578571D02*
X192566667Y-38626190D01*
X192614286Y-38721428D01*
X192614286Y-38864286D01*
X192566667Y-38959524D01*
X192471429Y-39007143D01*
X191947619Y-39007143D01*
X192672619Y-31326190D02*
X191672619Y-31659523D01*
X192672619Y-31992857D01*
X191672619Y-32469047D02*
X191720238Y-32373809D01*
X191767857Y-32326190D01*
X191863095Y-32278571D01*
X192148810Y-32278571D01*
X192244048Y-32326190D01*
X192291667Y-32373809D01*
X192339286Y-32469047D01*
X192339286Y-32611905D01*
X192291667Y-32707143D01*
X192244048Y-32754762D01*
X192148810Y-32802381D01*
X191863095Y-32802381D01*
X191767857Y-32754762D01*
X191720238Y-32707143D01*
X191672619Y-32611905D01*
X191672619Y-32469047D01*
X192339286Y-33659524D02*
X191672619Y-33659524D01*
X192339286Y-33230952D02*
X191815476Y-33230952D01*
X191720238Y-33278571D01*
X191672619Y-33373809D01*
X191672619Y-33516667D01*
X191720238Y-33611905D01*
X191767857Y-33659524D01*
X192339286Y-33992857D02*
X192339286Y-34373809D01*
X192672619Y-34135714D02*
X191815476Y-34135714D01*
X191720238Y-34183333D01*
X191672619Y-34278571D01*
X191672619Y-34373809D01*
X189741667Y-31254762D02*
X189789286Y-31207142D01*
X189932143Y-31111904D01*
X190027381Y-31064285D01*
X190170238Y-31016666D01*
X190408333Y-30969047D01*
X190598810Y-30969047D01*
X190836905Y-31016666D01*
X190979762Y-31064285D01*
X191075000Y-31111904D01*
X191217857Y-31207142D01*
X191265476Y-31254762D01*
X190789286Y-31588095D02*
X190789286Y-32302381D01*
X191217857Y-31873809D02*
X189932143Y-31588095D01*
X190360714Y-32207143D02*
X190360714Y-31492857D01*
X189932143Y-31921429D02*
X191217857Y-32207143D01*
X191027381Y-32588095D02*
X191075000Y-32635714D01*
X191122619Y-32730952D01*
X191122619Y-32969048D01*
X191075000Y-33064286D01*
X191027381Y-33111905D01*
X190932143Y-33159524D01*
X190836905Y-33159524D01*
X190694048Y-33111905D01*
X190122619Y-32540476D01*
X190122619Y-33159524D01*
X190694048Y-33730952D02*
X190741667Y-33635714D01*
X190789286Y-33588095D01*
X190884524Y-33540476D01*
X190932143Y-33540476D01*
X191027381Y-33588095D01*
X191075000Y-33635714D01*
X191122619Y-33730952D01*
X191122619Y-33921429D01*
X191075000Y-34016667D01*
X191027381Y-34064286D01*
X190932143Y-34111905D01*
X190884524Y-34111905D01*
X190789286Y-34064286D01*
X190741667Y-34016667D01*
X190694048Y-33921429D01*
X190694048Y-33730952D01*
X190646429Y-33635714D01*
X190598810Y-33588095D01*
X190503571Y-33540476D01*
X190313095Y-33540476D01*
X190217857Y-33588095D01*
X190170238Y-33635714D01*
X190122619Y-33730952D01*
X190122619Y-33921429D01*
X190170238Y-34016667D01*
X190217857Y-34064286D01*
X190313095Y-34111905D01*
X190503571Y-34111905D01*
X190598810Y-34064286D01*
X190646429Y-34016667D01*
X190694048Y-33921429D01*
X189741667Y-34445238D02*
X189789286Y-34492857D01*
X189932143Y-34588095D01*
X190027381Y-34635714D01*
X190170238Y-34683333D01*
X190408333Y-34730952D01*
X190598810Y-34730952D01*
X190836905Y-34683333D01*
X190979762Y-34635714D01*
X191075000Y-34588095D01*
X191217857Y-34492857D01*
X191265476Y-34445238D01*
X192725000Y-47288096D02*
X192772619Y-47192858D01*
X192772619Y-47050001D01*
X192725000Y-46907143D01*
X192629762Y-46811905D01*
X192534524Y-46764286D01*
X192344048Y-46716667D01*
X192201190Y-46716667D01*
X192010714Y-46764286D01*
X191915476Y-46811905D01*
X191820238Y-46907143D01*
X191772619Y-47050001D01*
X191772619Y-47145239D01*
X191820238Y-47288096D01*
X191867857Y-47335715D01*
X192201190Y-47335715D01*
X192201190Y-47145239D01*
X191772619Y-47764286D02*
X192772619Y-47764286D01*
X191772619Y-48335715D01*
X192772619Y-48335715D01*
X191772619Y-48811905D02*
X192772619Y-48811905D01*
X192772619Y-49050000D01*
X192725000Y-49192858D01*
X192629762Y-49288096D01*
X192534524Y-49335715D01*
X192344048Y-49383334D01*
X192201190Y-49383334D01*
X192010714Y-49335715D01*
X191915476Y-49288096D01*
X191820238Y-49192858D01*
X191772619Y-49050000D01*
X191772619Y-48811905D01*
X189841667Y-46454762D02*
X189889286Y-46407142D01*
X190032143Y-46311904D01*
X190127381Y-46264285D01*
X190270238Y-46216666D01*
X190508333Y-46169047D01*
X190698810Y-46169047D01*
X190936905Y-46216666D01*
X191079762Y-46264285D01*
X191175000Y-46311904D01*
X191317857Y-46407142D01*
X191365476Y-46454762D01*
X190889286Y-46788095D02*
X190889286Y-47502381D01*
X191317857Y-47073809D02*
X190032143Y-46788095D01*
X190460714Y-47407143D02*
X190460714Y-46692857D01*
X190032143Y-47121429D02*
X191317857Y-47407143D01*
X191127381Y-47788095D02*
X191175000Y-47835714D01*
X191222619Y-47930952D01*
X191222619Y-48169048D01*
X191175000Y-48264286D01*
X191127381Y-48311905D01*
X191032143Y-48359524D01*
X190936905Y-48359524D01*
X190794048Y-48311905D01*
X190222619Y-47740476D01*
X190222619Y-48359524D01*
X191127381Y-48740476D02*
X191175000Y-48788095D01*
X191222619Y-48883333D01*
X191222619Y-49121429D01*
X191175000Y-49216667D01*
X191127381Y-49264286D01*
X191032143Y-49311905D01*
X190936905Y-49311905D01*
X190794048Y-49264286D01*
X190222619Y-48692857D01*
X190222619Y-49311905D01*
X189841667Y-49645238D02*
X189889286Y-49692857D01*
X190032143Y-49788095D01*
X190127381Y-49835714D01*
X190270238Y-49883333D01*
X190508333Y-49930952D01*
X190698810Y-49930952D01*
X190936905Y-49883333D01*
X191079762Y-49835714D01*
X191175000Y-49788095D01*
X191317857Y-49692857D01*
X191365476Y-49645238D01*
X179622619Y-47409524D02*
X179622619Y-46933333D01*
X179146429Y-46885714D01*
X179194048Y-46933333D01*
X179241667Y-47028571D01*
X179241667Y-47266667D01*
X179194048Y-47361905D01*
X179146429Y-47409524D01*
X179051190Y-47457143D01*
X178813095Y-47457143D01*
X178717857Y-47409524D01*
X178670238Y-47361905D01*
X178622619Y-47266667D01*
X178622619Y-47028571D01*
X178670238Y-46933333D01*
X178717857Y-46885714D01*
X179622619Y-47742857D02*
X178622619Y-48076190D01*
X179622619Y-48409524D01*
X176691667Y-46480953D02*
X176739286Y-46433333D01*
X176882143Y-46338095D01*
X176977381Y-46290476D01*
X177120238Y-46242857D01*
X177358333Y-46195238D01*
X177548810Y-46195238D01*
X177786905Y-46242857D01*
X177929762Y-46290476D01*
X178025000Y-46338095D01*
X178167857Y-46433333D01*
X178215476Y-46480953D01*
X177739286Y-46814286D02*
X177739286Y-47528572D01*
X178167857Y-47100000D02*
X176882143Y-46814286D01*
X177310714Y-47433334D02*
X177310714Y-46719048D01*
X176882143Y-47147620D02*
X178167857Y-47433334D01*
X178072619Y-47766667D02*
X178072619Y-48433334D01*
X177072619Y-48004762D01*
X176691667Y-48719048D02*
X176739286Y-48766667D01*
X176882143Y-48861905D01*
X176977381Y-48909524D01*
X177120238Y-48957143D01*
X177358333Y-49004762D01*
X177548810Y-49004762D01*
X177786905Y-48957143D01*
X177929762Y-48909524D01*
X178025000Y-48861905D01*
X178167857Y-48766667D01*
X178215476Y-48719048D01*
X189345238Y-24421428D02*
X189297619Y-24516666D01*
X189297619Y-24707142D01*
X189345238Y-24802381D01*
X189440476Y-24850000D01*
X189488095Y-24850000D01*
X189583333Y-24802381D01*
X189630952Y-24707142D01*
X189630952Y-24564285D01*
X189678571Y-24469047D01*
X189773810Y-24421428D01*
X189821429Y-24421428D01*
X189916667Y-24469047D01*
X189964286Y-24564285D01*
X189964286Y-24707142D01*
X189916667Y-24802381D01*
X189345238Y-25659524D02*
X189297619Y-25564286D01*
X189297619Y-25373809D01*
X189345238Y-25278571D01*
X189440476Y-25230952D01*
X189821429Y-25230952D01*
X189916667Y-25278571D01*
X189964286Y-25373809D01*
X189964286Y-25564286D01*
X189916667Y-25659524D01*
X189821429Y-25707143D01*
X189726190Y-25707143D01*
X189630952Y-25230952D01*
X189964286Y-26135714D02*
X189297619Y-26135714D01*
X189869048Y-26135714D02*
X189916667Y-26183333D01*
X189964286Y-26278571D01*
X189964286Y-26421429D01*
X189916667Y-26516667D01*
X189821429Y-26564286D01*
X189297619Y-26564286D01*
X189345238Y-26992857D02*
X189297619Y-27088095D01*
X189297619Y-27278571D01*
X189345238Y-27373810D01*
X189440476Y-27421429D01*
X189488095Y-27421429D01*
X189583333Y-27373810D01*
X189630952Y-27278571D01*
X189630952Y-27135714D01*
X189678571Y-27040476D01*
X189773810Y-26992857D01*
X189821429Y-26992857D01*
X189916667Y-27040476D01*
X189964286Y-27135714D01*
X189964286Y-27278571D01*
X189916667Y-27373810D01*
X189345238Y-28230953D02*
X189297619Y-28135715D01*
X189297619Y-27945238D01*
X189345238Y-27850000D01*
X189440476Y-27802381D01*
X189821429Y-27802381D01*
X189916667Y-27850000D01*
X189964286Y-27945238D01*
X189964286Y-28135715D01*
X189916667Y-28230953D01*
X189821429Y-28278572D01*
X189726190Y-28278572D01*
X189630952Y-27802381D01*
X183176174Y-30083456D02*
X184176174Y-30083456D01*
X184176174Y-28383456D02*
X183176174Y-28383456D01*
X188100000Y-42250000D02*
X187100000Y-42250000D01*
X187100000Y-43950000D02*
X188100000Y-43950000D01*
X185000000Y-46900000D02*
X184000000Y-46900000D01*
X184000000Y-48600000D02*
X185000000Y-48600000D01*
X185000000Y-44650000D02*
X184000000Y-44650000D01*
X184000000Y-46350000D02*
X185000000Y-46350000D01*
X178200000Y-34150000D02*
X179200000Y-34150000D01*
X179200000Y-32450000D02*
X178200000Y-32450000D01*
D12*
X186500000Y-51900000D02*
X182700000Y-51900000D01*
X182700000Y-51900000D02*
X182700000Y-49500000D01*
X182700000Y-49500000D02*
X186500000Y-49500000D01*
X186500000Y-49500000D02*
X186500000Y-51900000D01*
X190500000Y-26870000D02*
X193040000Y-26870000D01*
X190500000Y-24330000D02*
X193040000Y-24330000D01*
X193040000Y-24330000D02*
X193040000Y-26870000D01*
X190500000Y-26870000D02*
X190500000Y-24330000D01*
X190500000Y-30480000D02*
X193040000Y-30480000D01*
X190500000Y-27940000D02*
X193040000Y-27940000D01*
X193040000Y-27940000D02*
X193040000Y-30480000D01*
X190500000Y-30480000D02*
X190500000Y-27940000D01*
X176530000Y-45720000D02*
X179070000Y-45720000D01*
X176530000Y-43180000D02*
X179070000Y-43180000D01*
X179070000Y-43180000D02*
X179070000Y-45720000D01*
X176530000Y-45720000D02*
X176530000Y-43180000D01*
X190500000Y-45720000D02*
X193040000Y-45720000D01*
X190500000Y-43180000D02*
X193040000Y-43180000D01*
X193040000Y-43180000D02*
X193040000Y-45720000D01*
X190500000Y-45720000D02*
X190500000Y-43180000D01*
D11*
X178276174Y-28358456D02*
X179476174Y-28358456D01*
X179476174Y-30108456D02*
X178276174Y-30108456D01*
X181700000Y-42225000D02*
X182900000Y-42225000D01*
X182900000Y-43975000D02*
X181700000Y-43975000D01*
X179600000Y-54125000D02*
X178400000Y-54125000D01*
X178400000Y-52375000D02*
X179600000Y-52375000D01*
X185300000Y-54125000D02*
X184100000Y-54125000D01*
X184100000Y-52375000D02*
X185300000Y-52375000D01*
X191000000Y-54125000D02*
X189800000Y-54125000D01*
X189800000Y-52375000D02*
X191000000Y-52375000D01*
D12*
X177899900Y-37500000D02*
X179500100Y-37500000D01*
X178700000Y-36699900D02*
X178700000Y-38300100D01*
X179997403Y-37500000D02*
G75*
G03X179997403Y-37500000I-1297403J0D01*
G01*
X178700000Y-35749940D02*
X180500860Y-35749940D01*
X180500860Y-35749940D02*
X180500860Y-39498980D01*
X180500860Y-39498980D02*
X176899140Y-39498980D01*
X176899140Y-39498980D02*
X176899140Y-35749940D01*
X176899140Y-35749940D02*
X178700000Y-35749940D01*
D11*
X181660000Y-35214000D02*
X186740000Y-35214000D01*
X186740000Y-35214000D02*
X186740000Y-39786000D01*
X186740000Y-39786000D02*
X181660000Y-39786000D01*
X181660000Y-39786000D02*
X181660000Y-35214000D01*
X181660000Y-36738000D02*
X182168000Y-36738000D01*
X182168000Y-36738000D02*
X182168000Y-38008000D01*
X182168000Y-38008000D02*
X181660000Y-38008000D01*
D12*
X188699900Y-37500000D02*
X190300100Y-37500000D01*
X189500000Y-36699900D02*
X189500000Y-38300100D01*
X190797403Y-37500000D02*
G75*
G03X190797403Y-37500000I-1297403J0D01*
G01*
X189500000Y-35749940D02*
X191300860Y-35749940D01*
X191300860Y-35749940D02*
X191300860Y-39498980D01*
X191300860Y-39498980D02*
X187699140Y-39498980D01*
X187699140Y-39498980D02*
X187699140Y-35749940D01*
X187699140Y-35749940D02*
X189500000Y-35749940D01*
D13*
G36*
X187416420Y-33160640D02*
X187454520Y-33155560D01*
X187487540Y-33145400D01*
X187502780Y-33137780D01*
X187535800Y-33114920D01*
X187561200Y-33086980D01*
X187578980Y-33056500D01*
X187591680Y-33020940D01*
X187599300Y-32985380D01*
X187596760Y-32947280D01*
X187589140Y-32911720D01*
X187571360Y-32876160D01*
X187561200Y-32860920D01*
X187545960Y-32843140D01*
X187528180Y-32827900D01*
X187512940Y-32815200D01*
X187507860Y-32812660D01*
X187474840Y-32797420D01*
X187441820Y-32789800D01*
X187403720Y-32787260D01*
X187391020Y-32787260D01*
X187370700Y-32789800D01*
X187352920Y-32794880D01*
X187332600Y-32805040D01*
X187309740Y-32815200D01*
X187279260Y-32840600D01*
X187256400Y-32871080D01*
X187236080Y-32904100D01*
X187231000Y-32919340D01*
X187225920Y-32939660D01*
X187223380Y-32952360D01*
X187223380Y-32954900D01*
X187223380Y-32954900D01*
X187223380Y-32947280D01*
X187223380Y-32947280D01*
X187215760Y-32921880D01*
X187208140Y-32899020D01*
X187195440Y-32876160D01*
X187175120Y-32848220D01*
X187147180Y-32822820D01*
X187114160Y-32802500D01*
X187076060Y-32789800D01*
X187037960Y-32787260D01*
X187027800Y-32787260D01*
X186997320Y-32789800D01*
X186969380Y-32797420D01*
X186964300Y-32799960D01*
X186931280Y-32817740D01*
X186903340Y-32840600D01*
X186880480Y-32871080D01*
X186862700Y-32901560D01*
X186852540Y-32934580D01*
X186852540Y-32937120D01*
X186850000Y-32944740D01*
X186850000Y-32949820D01*
X186850000Y-32949820D01*
X186850000Y-32944740D01*
X186847460Y-32934580D01*
X186847460Y-32932040D01*
X186834760Y-32899020D01*
X186816980Y-32866000D01*
X186794120Y-32838060D01*
X186771260Y-32820280D01*
X186738240Y-32802500D01*
X186702680Y-32789800D01*
X186662040Y-32787260D01*
X186634100Y-32789800D01*
X186598540Y-32797420D01*
X186562980Y-32815200D01*
X186532500Y-32838060D01*
X186509640Y-32868540D01*
X186504560Y-32873620D01*
X186496940Y-32886320D01*
X186491860Y-32899020D01*
X186489320Y-32906640D01*
X186481700Y-32924420D01*
X186479160Y-32939660D01*
X186476620Y-32952360D01*
X186476620Y-32954900D01*
X186476620Y-32954900D01*
X186474080Y-32947280D01*
X186471540Y-32926960D01*
X186461380Y-32901560D01*
X186451220Y-32878700D01*
X186428360Y-32848220D01*
X186397880Y-32822820D01*
X186364860Y-32802500D01*
X186329300Y-32789800D01*
X186291200Y-32787260D01*
X186255640Y-32789800D01*
X186217540Y-32799960D01*
X186184520Y-32817740D01*
X186154040Y-32843140D01*
X186138800Y-32860920D01*
X186126100Y-32881240D01*
X186113400Y-32904100D01*
X186108320Y-32924420D01*
X186100700Y-32962520D01*
X186103240Y-32998080D01*
X186110860Y-33033640D01*
X186126100Y-33066660D01*
X186146420Y-33094600D01*
X186171820Y-33120000D01*
X186202300Y-33140320D01*
X186235320Y-33153020D01*
X186273420Y-33160640D01*
X186278500Y-33160640D01*
X186316600Y-33160640D01*
X186352160Y-33150480D01*
X186385180Y-33135240D01*
X186397880Y-33125080D01*
X186423280Y-33104760D01*
X186446140Y-33076820D01*
X186461380Y-33048880D01*
X186463920Y-33038720D01*
X186469000Y-33023480D01*
X186474080Y-33005700D01*
X186476620Y-32993000D01*
X186476620Y-32985380D01*
X186476620Y-32993000D01*
X186476620Y-33000620D01*
X186481700Y-33015860D01*
X186486780Y-33036180D01*
X186491860Y-33051420D01*
X186502020Y-33069200D01*
X186524880Y-33099680D01*
X186552820Y-33125080D01*
X186585840Y-33145400D01*
X186623940Y-33158100D01*
X186629020Y-33158100D01*
X186654420Y-33160640D01*
X186682360Y-33160640D01*
X186707760Y-33155560D01*
X186733160Y-33147940D01*
X186766180Y-33130160D01*
X186799200Y-33104760D01*
X186799200Y-33102220D01*
X186822060Y-33076820D01*
X186837300Y-33043800D01*
X186847460Y-33013320D01*
X186847460Y-33010780D01*
X186850000Y-33003160D01*
X186850000Y-32998080D01*
X186850000Y-33000620D01*
X186852540Y-33008240D01*
X186852540Y-33010780D01*
X186857620Y-33031100D01*
X186865240Y-33051420D01*
X186877940Y-33071740D01*
X186893180Y-33094600D01*
X186921120Y-33122540D01*
X186954140Y-33142860D01*
X186992240Y-33155560D01*
X186997320Y-33158100D01*
X187022720Y-33160640D01*
X187050660Y-33160640D01*
X187076060Y-33158100D01*
X187096380Y-33150480D01*
X187131940Y-33135240D01*
X187162420Y-33112380D01*
X187187820Y-33084440D01*
X187208140Y-33051420D01*
X187210680Y-33041260D01*
X187218300Y-33023480D01*
X187220840Y-33005700D01*
X187223380Y-32993000D01*
X187223380Y-32993000D01*
X187223380Y-32993000D01*
X187225920Y-33000620D01*
X187225920Y-33000620D01*
X187231000Y-33023480D01*
X187241160Y-33048880D01*
X187251320Y-33071740D01*
X187256400Y-33079360D01*
X187279260Y-33107300D01*
X187309740Y-33130160D01*
X187342760Y-33147940D01*
X187378320Y-33158100D01*
X187416420Y-33160640D01*
X187416420Y-33160640D01*
G37*
X187416420Y-33160640D02*
X187454520Y-33155560D01*
X187487540Y-33145400D01*
X187502780Y-33137780D01*
X187535800Y-33114920D01*
X187561200Y-33086980D01*
X187578980Y-33056500D01*
X187591680Y-33020940D01*
X187599300Y-32985380D01*
X187596760Y-32947280D01*
X187589140Y-32911720D01*
X187571360Y-32876160D01*
X187561200Y-32860920D01*
X187545960Y-32843140D01*
X187528180Y-32827900D01*
X187512940Y-32815200D01*
X187507860Y-32812660D01*
X187474840Y-32797420D01*
X187441820Y-32789800D01*
X187403720Y-32787260D01*
X187391020Y-32787260D01*
X187370700Y-32789800D01*
X187352920Y-32794880D01*
X187332600Y-32805040D01*
X187309740Y-32815200D01*
X187279260Y-32840600D01*
X187256400Y-32871080D01*
X187236080Y-32904100D01*
X187231000Y-32919340D01*
X187225920Y-32939660D01*
X187223380Y-32952360D01*
X187223380Y-32954900D01*
X187223380Y-32954900D01*
X187223380Y-32947280D01*
X187223380Y-32947280D01*
X187215760Y-32921880D01*
X187208140Y-32899020D01*
X187195440Y-32876160D01*
X187175120Y-32848220D01*
X187147180Y-32822820D01*
X187114160Y-32802500D01*
X187076060Y-32789800D01*
X187037960Y-32787260D01*
X187027800Y-32787260D01*
X186997320Y-32789800D01*
X186969380Y-32797420D01*
X186964300Y-32799960D01*
X186931280Y-32817740D01*
X186903340Y-32840600D01*
X186880480Y-32871080D01*
X186862700Y-32901560D01*
X186852540Y-32934580D01*
X186852540Y-32937120D01*
X186850000Y-32944740D01*
X186850000Y-32949820D01*
X186850000Y-32949820D01*
X186850000Y-32944740D01*
X186847460Y-32934580D01*
X186847460Y-32932040D01*
X186834760Y-32899020D01*
X186816980Y-32866000D01*
X186794120Y-32838060D01*
X186771260Y-32820280D01*
X186738240Y-32802500D01*
X186702680Y-32789800D01*
X186662040Y-32787260D01*
X186634100Y-32789800D01*
X186598540Y-32797420D01*
X186562980Y-32815200D01*
X186532500Y-32838060D01*
X186509640Y-32868540D01*
X186504560Y-32873620D01*
X186496940Y-32886320D01*
X186491860Y-32899020D01*
X186489320Y-32906640D01*
X186481700Y-32924420D01*
X186479160Y-32939660D01*
X186476620Y-32952360D01*
X186476620Y-32954900D01*
X186476620Y-32954900D01*
X186474080Y-32947280D01*
X186471540Y-32926960D01*
X186461380Y-32901560D01*
X186451220Y-32878700D01*
X186428360Y-32848220D01*
X186397880Y-32822820D01*
X186364860Y-32802500D01*
X186329300Y-32789800D01*
X186291200Y-32787260D01*
X186255640Y-32789800D01*
X186217540Y-32799960D01*
X186184520Y-32817740D01*
X186154040Y-32843140D01*
X186138800Y-32860920D01*
X186126100Y-32881240D01*
X186113400Y-32904100D01*
X186108320Y-32924420D01*
X186100700Y-32962520D01*
X186103240Y-32998080D01*
X186110860Y-33033640D01*
X186126100Y-33066660D01*
X186146420Y-33094600D01*
X186171820Y-33120000D01*
X186202300Y-33140320D01*
X186235320Y-33153020D01*
X186273420Y-33160640D01*
X186278500Y-33160640D01*
X186316600Y-33160640D01*
X186352160Y-33150480D01*
X186385180Y-33135240D01*
X186397880Y-33125080D01*
X186423280Y-33104760D01*
X186446140Y-33076820D01*
X186461380Y-33048880D01*
X186463920Y-33038720D01*
X186469000Y-33023480D01*
X186474080Y-33005700D01*
X186476620Y-32993000D01*
X186476620Y-32985380D01*
X186476620Y-32993000D01*
X186476620Y-33000620D01*
X186481700Y-33015860D01*
X186486780Y-33036180D01*
X186491860Y-33051420D01*
X186502020Y-33069200D01*
X186524880Y-33099680D01*
X186552820Y-33125080D01*
X186585840Y-33145400D01*
X186623940Y-33158100D01*
X186629020Y-33158100D01*
X186654420Y-33160640D01*
X186682360Y-33160640D01*
X186707760Y-33155560D01*
X186733160Y-33147940D01*
X186766180Y-33130160D01*
X186799200Y-33104760D01*
X186799200Y-33102220D01*
X186822060Y-33076820D01*
X186837300Y-33043800D01*
X186847460Y-33013320D01*
X186847460Y-33010780D01*
X186850000Y-33003160D01*
X186850000Y-32998080D01*
X186850000Y-33000620D01*
X186852540Y-33008240D01*
X186852540Y-33010780D01*
X186857620Y-33031100D01*
X186865240Y-33051420D01*
X186877940Y-33071740D01*
X186893180Y-33094600D01*
X186921120Y-33122540D01*
X186954140Y-33142860D01*
X186992240Y-33155560D01*
X186997320Y-33158100D01*
X187022720Y-33160640D01*
X187050660Y-33160640D01*
X187076060Y-33158100D01*
X187096380Y-33150480D01*
X187131940Y-33135240D01*
X187162420Y-33112380D01*
X187187820Y-33084440D01*
X187208140Y-33051420D01*
X187210680Y-33041260D01*
X187218300Y-33023480D01*
X187220840Y-33005700D01*
X187223380Y-32993000D01*
X187223380Y-32993000D01*
X187223380Y-32993000D01*
X187225920Y-33000620D01*
X187225920Y-33000620D01*
X187231000Y-33023480D01*
X187241160Y-33048880D01*
X187251320Y-33071740D01*
X187256400Y-33079360D01*
X187279260Y-33107300D01*
X187309740Y-33130160D01*
X187342760Y-33147940D01*
X187378320Y-33158100D01*
X187416420Y-33160640D01*
G36*
X185902580Y-32787260D02*
X185925440Y-32784720D01*
X185945760Y-32784720D01*
X185971160Y-32777100D01*
X186006720Y-32761860D01*
X186037200Y-32739000D01*
X186062600Y-32711060D01*
X186082920Y-32678040D01*
X186095620Y-32642480D01*
X186100700Y-32604380D01*
X186098160Y-32566280D01*
X186088000Y-32530720D01*
X186072760Y-32497700D01*
X186047360Y-32467220D01*
X186016880Y-32441820D01*
X186009260Y-32436740D01*
X185971160Y-32421500D01*
X185935600Y-32411340D01*
X185894960Y-32411340D01*
X185856860Y-32418960D01*
X185826380Y-32431660D01*
X185793360Y-32454520D01*
X185767960Y-32482460D01*
X185745100Y-32515480D01*
X185732400Y-32553580D01*
X185727320Y-32571360D01*
X185727320Y-32596760D01*
X185727320Y-32619620D01*
X185729860Y-32639940D01*
X185732400Y-32647560D01*
X185747640Y-32685660D01*
X185767960Y-32718680D01*
X185798440Y-32746620D01*
X185831460Y-32766940D01*
X185846700Y-32774560D01*
X185869560Y-32782180D01*
X185889880Y-32784720D01*
X185902580Y-32787260D01*
X185902580Y-32787260D01*
G37*
X185902580Y-32787260D02*
X185925440Y-32784720D01*
X185945760Y-32784720D01*
X185971160Y-32777100D01*
X186006720Y-32761860D01*
X186037200Y-32739000D01*
X186062600Y-32711060D01*
X186082920Y-32678040D01*
X186095620Y-32642480D01*
X186100700Y-32604380D01*
X186098160Y-32566280D01*
X186088000Y-32530720D01*
X186072760Y-32497700D01*
X186047360Y-32467220D01*
X186016880Y-32441820D01*
X186009260Y-32436740D01*
X185971160Y-32421500D01*
X185935600Y-32411340D01*
X185894960Y-32411340D01*
X185856860Y-32418960D01*
X185826380Y-32431660D01*
X185793360Y-32454520D01*
X185767960Y-32482460D01*
X185745100Y-32515480D01*
X185732400Y-32553580D01*
X185727320Y-32571360D01*
X185727320Y-32596760D01*
X185727320Y-32619620D01*
X185729860Y-32639940D01*
X185732400Y-32647560D01*
X185747640Y-32685660D01*
X185767960Y-32718680D01*
X185798440Y-32746620D01*
X185831460Y-32766940D01*
X185846700Y-32774560D01*
X185869560Y-32782180D01*
X185889880Y-32784720D01*
X185902580Y-32787260D01*
G36*
X187789800Y-32787260D02*
X187827900Y-32782180D01*
X187866000Y-32769480D01*
X187901560Y-32746620D01*
X187909180Y-32741540D01*
X187934580Y-32713600D01*
X187954900Y-32680580D01*
X187967600Y-32645020D01*
X187972680Y-32624700D01*
X187972680Y-32601840D01*
X187972680Y-32576440D01*
X187970140Y-32558660D01*
X187967600Y-32548500D01*
X187952360Y-32510400D01*
X187932040Y-32479920D01*
X187904100Y-32451980D01*
X187871080Y-32431660D01*
X187835520Y-32418960D01*
X187797420Y-32411340D01*
X187782180Y-32411340D01*
X187744080Y-32416420D01*
X187708520Y-32426580D01*
X187678040Y-32446900D01*
X187650100Y-32469760D01*
X187627240Y-32500240D01*
X187612000Y-32533260D01*
X187601840Y-32568820D01*
X187599300Y-32606920D01*
X187601840Y-32629780D01*
X187606920Y-32650100D01*
X187614540Y-32672960D01*
X187629780Y-32700900D01*
X187652640Y-32731380D01*
X187683120Y-32754240D01*
X187716140Y-32772020D01*
X187751700Y-32782180D01*
X187789800Y-32787260D01*
X187789800Y-32787260D01*
G37*
X187789800Y-32787260D02*
X187827900Y-32782180D01*
X187866000Y-32769480D01*
X187901560Y-32746620D01*
X187909180Y-32741540D01*
X187934580Y-32713600D01*
X187954900Y-32680580D01*
X187967600Y-32645020D01*
X187972680Y-32624700D01*
X187972680Y-32601840D01*
X187972680Y-32576440D01*
X187970140Y-32558660D01*
X187967600Y-32548500D01*
X187952360Y-32510400D01*
X187932040Y-32479920D01*
X187904100Y-32451980D01*
X187871080Y-32431660D01*
X187835520Y-32418960D01*
X187797420Y-32411340D01*
X187782180Y-32411340D01*
X187744080Y-32416420D01*
X187708520Y-32426580D01*
X187678040Y-32446900D01*
X187650100Y-32469760D01*
X187627240Y-32500240D01*
X187612000Y-32533260D01*
X187601840Y-32568820D01*
X187599300Y-32606920D01*
X187601840Y-32629780D01*
X187606920Y-32650100D01*
X187614540Y-32672960D01*
X187629780Y-32700900D01*
X187652640Y-32731380D01*
X187683120Y-32754240D01*
X187716140Y-32772020D01*
X187751700Y-32782180D01*
X187789800Y-32787260D01*
G36*
X185529200Y-32411340D02*
X185554600Y-32411340D01*
X185577460Y-32406260D01*
X185605400Y-32398640D01*
X185638420Y-32380860D01*
X185671440Y-32355460D01*
X185691760Y-32332600D01*
X185709540Y-32299580D01*
X185722240Y-32264020D01*
X185724780Y-32248780D01*
X185724780Y-32225920D01*
X185724780Y-32203060D01*
X185722240Y-32185280D01*
X185719700Y-32172580D01*
X185704460Y-32137020D01*
X185684140Y-32104000D01*
X185656200Y-32076060D01*
X185620640Y-32055740D01*
X185607940Y-32050660D01*
X185585080Y-32040500D01*
X185559680Y-32037960D01*
X185531740Y-32037960D01*
X185513960Y-32037960D01*
X185493640Y-32040500D01*
X185475860Y-32045580D01*
X185455540Y-32055740D01*
X185442840Y-32063360D01*
X185412360Y-32086220D01*
X185386960Y-32114160D01*
X185366640Y-32149720D01*
X185353940Y-32187820D01*
X185353940Y-32195440D01*
X185351400Y-32218300D01*
X185351400Y-32241160D01*
X185353940Y-32261480D01*
X185356480Y-32274180D01*
X185371720Y-32309740D01*
X185394580Y-32342760D01*
X185419980Y-32370700D01*
X185455540Y-32391020D01*
X185491100Y-32406260D01*
X185503800Y-32408800D01*
X185529200Y-32411340D01*
X185529200Y-32411340D01*
G37*
X185529200Y-32411340D02*
X185554600Y-32411340D01*
X185577460Y-32406260D01*
X185605400Y-32398640D01*
X185638420Y-32380860D01*
X185671440Y-32355460D01*
X185691760Y-32332600D01*
X185709540Y-32299580D01*
X185722240Y-32264020D01*
X185724780Y-32248780D01*
X185724780Y-32225920D01*
X185724780Y-32203060D01*
X185722240Y-32185280D01*
X185719700Y-32172580D01*
X185704460Y-32137020D01*
X185684140Y-32104000D01*
X185656200Y-32076060D01*
X185620640Y-32055740D01*
X185607940Y-32050660D01*
X185585080Y-32040500D01*
X185559680Y-32037960D01*
X185531740Y-32037960D01*
X185513960Y-32037960D01*
X185493640Y-32040500D01*
X185475860Y-32045580D01*
X185455540Y-32055740D01*
X185442840Y-32063360D01*
X185412360Y-32086220D01*
X185386960Y-32114160D01*
X185366640Y-32149720D01*
X185353940Y-32187820D01*
X185353940Y-32195440D01*
X185351400Y-32218300D01*
X185351400Y-32241160D01*
X185353940Y-32261480D01*
X185356480Y-32274180D01*
X185371720Y-32309740D01*
X185394580Y-32342760D01*
X185419980Y-32370700D01*
X185455540Y-32391020D01*
X185491100Y-32406260D01*
X185503800Y-32408800D01*
X185529200Y-32411340D01*
G36*
X187032880Y-32411340D02*
X187068440Y-32408800D01*
X187104000Y-32398640D01*
X187126860Y-32388480D01*
X187157340Y-32365620D01*
X187185280Y-32337680D01*
X187205600Y-32304660D01*
X187218300Y-32269100D01*
X187220840Y-32261480D01*
X187223380Y-32231000D01*
X187223380Y-32203060D01*
X187215760Y-32170040D01*
X187200520Y-32131940D01*
X187177660Y-32101460D01*
X187149720Y-32076060D01*
X187116700Y-32055740D01*
X187078600Y-32040500D01*
X187055740Y-32035420D01*
X187068440Y-32032880D01*
X187070980Y-32032880D01*
X187096380Y-32025260D01*
X187124320Y-32012560D01*
X187152260Y-31997320D01*
X187154800Y-31992240D01*
X187182740Y-31966840D01*
X187203060Y-31933820D01*
X187215760Y-31898260D01*
X187223380Y-31862700D01*
X187223380Y-31827140D01*
X187213220Y-31791580D01*
X187197980Y-31756020D01*
X187197980Y-31753480D01*
X187172580Y-31723000D01*
X187144640Y-31697600D01*
X187114160Y-31679820D01*
X187078600Y-31669660D01*
X187043040Y-31664580D01*
X187007480Y-31667120D01*
X186971920Y-31674740D01*
X186938900Y-31692520D01*
X186905880Y-31715380D01*
X186890640Y-31733160D01*
X186872860Y-31761100D01*
X186857620Y-31789040D01*
X186852540Y-31816980D01*
X186850000Y-31824600D01*
X186850000Y-31827140D01*
X186850000Y-31824600D01*
X186847460Y-31816980D01*
X186842380Y-31791580D01*
X186829680Y-31766180D01*
X186814440Y-31740780D01*
X186804280Y-31728080D01*
X186776340Y-31702680D01*
X186743320Y-31682360D01*
X186707760Y-31669660D01*
X186669660Y-31664580D01*
X186631560Y-31667120D01*
X186608700Y-31672200D01*
X186573140Y-31687440D01*
X186542660Y-31707760D01*
X186514720Y-31735700D01*
X186494400Y-31768720D01*
X186481700Y-31806820D01*
X186479160Y-31824600D01*
X186476620Y-31862700D01*
X186484240Y-31898260D01*
X186496940Y-31933820D01*
X186517260Y-31966840D01*
X186545200Y-31992240D01*
X186578220Y-32015100D01*
X186593460Y-32022720D01*
X186611240Y-32027800D01*
X186626480Y-32032880D01*
X186639180Y-32035420D01*
X186639180Y-32035420D01*
X186639180Y-32035420D01*
X186631560Y-32037960D01*
X186613780Y-32043040D01*
X186588380Y-32053200D01*
X186565520Y-32063360D01*
X186555360Y-32070980D01*
X186529960Y-32093840D01*
X186507100Y-32119240D01*
X186491860Y-32147180D01*
X186481700Y-32180200D01*
X186476620Y-32213220D01*
X186476620Y-32246240D01*
X186479160Y-32251320D01*
X186489320Y-32291960D01*
X186507100Y-32324980D01*
X186532500Y-32355460D01*
X186552820Y-32375780D01*
X186585840Y-32396100D01*
X186623940Y-32406260D01*
X186636640Y-32408800D01*
X186656960Y-32411340D01*
X186679820Y-32408800D01*
X186700140Y-32408800D01*
X186715380Y-32403720D01*
X186728080Y-32401180D01*
X186763640Y-32383400D01*
X186794120Y-32358000D01*
X186819520Y-32327520D01*
X186829680Y-32312280D01*
X186839840Y-32286880D01*
X186847460Y-32261480D01*
X186847460Y-32261480D01*
X186850000Y-32251320D01*
X186850000Y-32248780D01*
X186850000Y-32248780D01*
X186850000Y-32197980D01*
X186850000Y-32197980D01*
X186850000Y-32195440D01*
X186847460Y-32185280D01*
X186847460Y-32182740D01*
X186834760Y-32149720D01*
X186816980Y-32116700D01*
X186794120Y-32088760D01*
X186766180Y-32065900D01*
X186733160Y-32050660D01*
X186730620Y-32048120D01*
X186715380Y-32043040D01*
X186700140Y-32040500D01*
X186682360Y-32035420D01*
X186697600Y-32032880D01*
X186720460Y-32027800D01*
X186753480Y-32012560D01*
X186783960Y-31992240D01*
X186811900Y-31964300D01*
X186832220Y-31933820D01*
X186837300Y-31918580D01*
X186844920Y-31898260D01*
X186847460Y-31883020D01*
X186850000Y-31875400D01*
X186850000Y-31872860D01*
X186850000Y-31875400D01*
X186852540Y-31883020D01*
X186855080Y-31895720D01*
X186860160Y-31916040D01*
X186867780Y-31933820D01*
X186880480Y-31954140D01*
X186905880Y-31982080D01*
X186933820Y-32004940D01*
X186966840Y-32022720D01*
X187002400Y-32032880D01*
X187017640Y-32035420D01*
X187002400Y-32040500D01*
X186999860Y-32040500D01*
X186982080Y-32043040D01*
X186966840Y-32050660D01*
X186964300Y-32050660D01*
X186931280Y-32068440D01*
X186903340Y-32091300D01*
X186880480Y-32119240D01*
X186862700Y-32152260D01*
X186852540Y-32185280D01*
X186852540Y-32185280D01*
X186850000Y-32195440D01*
X186850000Y-32197980D01*
X186850000Y-32248780D01*
X186850000Y-32248780D01*
X186850000Y-32253860D01*
X186852540Y-32261480D01*
X186860160Y-32286880D01*
X186875400Y-32319900D01*
X186898260Y-32350380D01*
X186926200Y-32375780D01*
X186959220Y-32393560D01*
X186959220Y-32393560D01*
X186994780Y-32406260D01*
X187032880Y-32411340D01*
X187032880Y-32411340D01*
G37*
X187032880Y-32411340D02*
X187068440Y-32408800D01*
X187104000Y-32398640D01*
X187126860Y-32388480D01*
X187157340Y-32365620D01*
X187185280Y-32337680D01*
X187205600Y-32304660D01*
X187218300Y-32269100D01*
X187220840Y-32261480D01*
X187223380Y-32231000D01*
X187223380Y-32203060D01*
X187215760Y-32170040D01*
X187200520Y-32131940D01*
X187177660Y-32101460D01*
X187149720Y-32076060D01*
X187116700Y-32055740D01*
X187078600Y-32040500D01*
X187055740Y-32035420D01*
X187068440Y-32032880D01*
X187070980Y-32032880D01*
X187096380Y-32025260D01*
X187124320Y-32012560D01*
X187152260Y-31997320D01*
X187154800Y-31992240D01*
X187182740Y-31966840D01*
X187203060Y-31933820D01*
X187215760Y-31898260D01*
X187223380Y-31862700D01*
X187223380Y-31827140D01*
X187213220Y-31791580D01*
X187197980Y-31756020D01*
X187197980Y-31753480D01*
X187172580Y-31723000D01*
X187144640Y-31697600D01*
X187114160Y-31679820D01*
X187078600Y-31669660D01*
X187043040Y-31664580D01*
X187007480Y-31667120D01*
X186971920Y-31674740D01*
X186938900Y-31692520D01*
X186905880Y-31715380D01*
X186890640Y-31733160D01*
X186872860Y-31761100D01*
X186857620Y-31789040D01*
X186852540Y-31816980D01*
X186850000Y-31824600D01*
X186850000Y-31827140D01*
X186850000Y-31824600D01*
X186847460Y-31816980D01*
X186842380Y-31791580D01*
X186829680Y-31766180D01*
X186814440Y-31740780D01*
X186804280Y-31728080D01*
X186776340Y-31702680D01*
X186743320Y-31682360D01*
X186707760Y-31669660D01*
X186669660Y-31664580D01*
X186631560Y-31667120D01*
X186608700Y-31672200D01*
X186573140Y-31687440D01*
X186542660Y-31707760D01*
X186514720Y-31735700D01*
X186494400Y-31768720D01*
X186481700Y-31806820D01*
X186479160Y-31824600D01*
X186476620Y-31862700D01*
X186484240Y-31898260D01*
X186496940Y-31933820D01*
X186517260Y-31966840D01*
X186545200Y-31992240D01*
X186578220Y-32015100D01*
X186593460Y-32022720D01*
X186611240Y-32027800D01*
X186626480Y-32032880D01*
X186639180Y-32035420D01*
X186639180Y-32035420D01*
X186639180Y-32035420D01*
X186631560Y-32037960D01*
X186613780Y-32043040D01*
X186588380Y-32053200D01*
X186565520Y-32063360D01*
X186555360Y-32070980D01*
X186529960Y-32093840D01*
X186507100Y-32119240D01*
X186491860Y-32147180D01*
X186481700Y-32180200D01*
X186476620Y-32213220D01*
X186476620Y-32246240D01*
X186479160Y-32251320D01*
X186489320Y-32291960D01*
X186507100Y-32324980D01*
X186532500Y-32355460D01*
X186552820Y-32375780D01*
X186585840Y-32396100D01*
X186623940Y-32406260D01*
X186636640Y-32408800D01*
X186656960Y-32411340D01*
X186679820Y-32408800D01*
X186700140Y-32408800D01*
X186715380Y-32403720D01*
X186728080Y-32401180D01*
X186763640Y-32383400D01*
X186794120Y-32358000D01*
X186819520Y-32327520D01*
X186829680Y-32312280D01*
X186839840Y-32286880D01*
X186847460Y-32261480D01*
X186847460Y-32261480D01*
X186850000Y-32251320D01*
X186850000Y-32248780D01*
X186850000Y-32248780D01*
X186850000Y-32197980D01*
X186850000Y-32197980D01*
X186850000Y-32195440D01*
X186847460Y-32185280D01*
X186847460Y-32182740D01*
X186834760Y-32149720D01*
X186816980Y-32116700D01*
X186794120Y-32088760D01*
X186766180Y-32065900D01*
X186733160Y-32050660D01*
X186730620Y-32048120D01*
X186715380Y-32043040D01*
X186700140Y-32040500D01*
X186682360Y-32035420D01*
X186697600Y-32032880D01*
X186720460Y-32027800D01*
X186753480Y-32012560D01*
X186783960Y-31992240D01*
X186811900Y-31964300D01*
X186832220Y-31933820D01*
X186837300Y-31918580D01*
X186844920Y-31898260D01*
X186847460Y-31883020D01*
X186850000Y-31875400D01*
X186850000Y-31872860D01*
X186850000Y-31875400D01*
X186852540Y-31883020D01*
X186855080Y-31895720D01*
X186860160Y-31916040D01*
X186867780Y-31933820D01*
X186880480Y-31954140D01*
X186905880Y-31982080D01*
X186933820Y-32004940D01*
X186966840Y-32022720D01*
X187002400Y-32032880D01*
X187017640Y-32035420D01*
X187002400Y-32040500D01*
X186999860Y-32040500D01*
X186982080Y-32043040D01*
X186966840Y-32050660D01*
X186964300Y-32050660D01*
X186931280Y-32068440D01*
X186903340Y-32091300D01*
X186880480Y-32119240D01*
X186862700Y-32152260D01*
X186852540Y-32185280D01*
X186852540Y-32185280D01*
X186850000Y-32195440D01*
X186850000Y-32197980D01*
X186850000Y-32248780D01*
X186850000Y-32248780D01*
X186850000Y-32253860D01*
X186852540Y-32261480D01*
X186860160Y-32286880D01*
X186875400Y-32319900D01*
X186898260Y-32350380D01*
X186926200Y-32375780D01*
X186959220Y-32393560D01*
X186959220Y-32393560D01*
X186994780Y-32406260D01*
X187032880Y-32411340D01*
G36*
X188147940Y-32411340D02*
X188178420Y-32411340D01*
X188206360Y-32406260D01*
X188224140Y-32401180D01*
X188259700Y-32383400D01*
X188290180Y-32360540D01*
X188315580Y-32332600D01*
X188333360Y-32299580D01*
X188343520Y-32264020D01*
X188348600Y-32223380D01*
X188348600Y-32208140D01*
X188340980Y-32170040D01*
X188325740Y-32134480D01*
X188302880Y-32098920D01*
X188295260Y-32093840D01*
X188269860Y-32070980D01*
X188239380Y-32053200D01*
X188206360Y-32040500D01*
X188203820Y-32040500D01*
X188175880Y-32037960D01*
X188145400Y-32037960D01*
X188117460Y-32040500D01*
X188107300Y-32043040D01*
X188071740Y-32058280D01*
X188041260Y-32081140D01*
X188015860Y-32106540D01*
X187995540Y-32137020D01*
X187980300Y-32170040D01*
X187975220Y-32208140D01*
X187975220Y-32246240D01*
X187982840Y-32284340D01*
X187995540Y-32312280D01*
X188018400Y-32342760D01*
X188046340Y-32370700D01*
X188076820Y-32391020D01*
X188114920Y-32406260D01*
X188117460Y-32406260D01*
X188147940Y-32411340D01*
X188147940Y-32411340D01*
G37*
X188147940Y-32411340D02*
X188178420Y-32411340D01*
X188206360Y-32406260D01*
X188224140Y-32401180D01*
X188259700Y-32383400D01*
X188290180Y-32360540D01*
X188315580Y-32332600D01*
X188333360Y-32299580D01*
X188343520Y-32264020D01*
X188348600Y-32223380D01*
X188348600Y-32208140D01*
X188340980Y-32170040D01*
X188325740Y-32134480D01*
X188302880Y-32098920D01*
X188295260Y-32093840D01*
X188269860Y-32070980D01*
X188239380Y-32053200D01*
X188206360Y-32040500D01*
X188203820Y-32040500D01*
X188175880Y-32037960D01*
X188145400Y-32037960D01*
X188117460Y-32040500D01*
X188107300Y-32043040D01*
X188071740Y-32058280D01*
X188041260Y-32081140D01*
X188015860Y-32106540D01*
X187995540Y-32137020D01*
X187980300Y-32170040D01*
X187975220Y-32208140D01*
X187975220Y-32246240D01*
X187982840Y-32284340D01*
X187995540Y-32312280D01*
X188018400Y-32342760D01*
X188046340Y-32370700D01*
X188076820Y-32391020D01*
X188114920Y-32406260D01*
X188117460Y-32406260D01*
X188147940Y-32411340D01*
G36*
X186293740Y-31288660D02*
X186331840Y-31283580D01*
X186367400Y-31270880D01*
X186385180Y-31263260D01*
X186400420Y-31250560D01*
X186418200Y-31235320D01*
X186438520Y-31215000D01*
X186458840Y-31181980D01*
X186471540Y-31146420D01*
X186474080Y-31136260D01*
X186476620Y-31110860D01*
X186476620Y-31085460D01*
X186471540Y-31062600D01*
X186461380Y-31029580D01*
X186446140Y-30996560D01*
X186423280Y-30968620D01*
X186418200Y-30966080D01*
X186400420Y-30950840D01*
X186380100Y-30938140D01*
X186362320Y-30927980D01*
X186354700Y-30925440D01*
X186339460Y-30920360D01*
X186324220Y-30917820D01*
X186314060Y-30915280D01*
X186306440Y-30915280D01*
X186314060Y-30912740D01*
X186324220Y-30910200D01*
X186334380Y-30907660D01*
X186349620Y-30905120D01*
X186377560Y-30889880D01*
X186405500Y-30874640D01*
X186425820Y-30854320D01*
X186430900Y-30849240D01*
X186453760Y-30816220D01*
X186469000Y-30780660D01*
X186476620Y-30745100D01*
X186476620Y-30707000D01*
X186474080Y-30696840D01*
X186463920Y-30658740D01*
X186446140Y-30625720D01*
X186420740Y-30592700D01*
X186397880Y-30574920D01*
X186364860Y-30554600D01*
X186329300Y-30541900D01*
X186321680Y-30541900D01*
X186296280Y-30539360D01*
X186270880Y-30539360D01*
X186245480Y-30544440D01*
X186225160Y-30549520D01*
X186189600Y-30567300D01*
X186159120Y-30590160D01*
X186136260Y-30618100D01*
X186115940Y-30651120D01*
X186105780Y-30686680D01*
X186103240Y-30691760D01*
X186100700Y-30699380D01*
X186100700Y-30704460D01*
X186098160Y-30699380D01*
X186098160Y-30691760D01*
X186095620Y-30676520D01*
X186088000Y-30658740D01*
X186082920Y-30643500D01*
X186075300Y-30633340D01*
X186052440Y-30600320D01*
X186024500Y-30574920D01*
X185991480Y-30554600D01*
X185955920Y-30544440D01*
X185915280Y-30539360D01*
X185884800Y-30541900D01*
X185849240Y-30549520D01*
X185816220Y-30567300D01*
X185795900Y-30580000D01*
X185767960Y-30607940D01*
X185747640Y-30638420D01*
X185732400Y-30673980D01*
X185727320Y-30709540D01*
X185727320Y-30747640D01*
X185734940Y-30783200D01*
X185750180Y-30818760D01*
X185773040Y-30849240D01*
X185800980Y-30877180D01*
X185836540Y-30897500D01*
X185874640Y-30910200D01*
X185894960Y-30915280D01*
X185882260Y-30915280D01*
X185874640Y-30917820D01*
X185844160Y-30925440D01*
X185816220Y-30940680D01*
X185788280Y-30961000D01*
X185765420Y-30983860D01*
X185752720Y-31004180D01*
X185740020Y-31029580D01*
X185732400Y-31054980D01*
X185727320Y-31075300D01*
X185727320Y-31098160D01*
X185727320Y-31123560D01*
X185729860Y-31141340D01*
X185737480Y-31164200D01*
X185755260Y-31199760D01*
X185778120Y-31230240D01*
X185808600Y-31255640D01*
X185841620Y-31275960D01*
X185882260Y-31286120D01*
X185892420Y-31288660D01*
X185915280Y-31288660D01*
X185938140Y-31286120D01*
X185961000Y-31283580D01*
X185976240Y-31278500D01*
X186011800Y-31260720D01*
X186042280Y-31237860D01*
X186067680Y-31209920D01*
X186085460Y-31176900D01*
X186098160Y-31138800D01*
X186098160Y-31136260D01*
X186100700Y-31126100D01*
X186100700Y-31128640D01*
X186100700Y-31075300D01*
X186100700Y-31075300D01*
X186098160Y-31067680D01*
X186098160Y-31065140D01*
X186090540Y-31039740D01*
X186080380Y-31014340D01*
X186065140Y-30988940D01*
X186052440Y-30976240D01*
X186024500Y-30948300D01*
X185988940Y-30930520D01*
X185950840Y-30917820D01*
X185933060Y-30912740D01*
X185945760Y-30910200D01*
X185958460Y-30907660D01*
X185968620Y-30905120D01*
X185976240Y-30902580D01*
X186011800Y-30887340D01*
X186042280Y-30861940D01*
X186067680Y-30834000D01*
X186085460Y-30800980D01*
X186098160Y-30765420D01*
X186098160Y-30757800D01*
X186100700Y-30752720D01*
X186103240Y-30755260D01*
X186105780Y-30765420D01*
X186105780Y-30767960D01*
X186110860Y-30788280D01*
X186121020Y-30808600D01*
X186131180Y-30828920D01*
X186141340Y-30841620D01*
X186159120Y-30859400D01*
X186176900Y-30877180D01*
X186194680Y-30889880D01*
X186197220Y-30889880D01*
X186225160Y-30902580D01*
X186255640Y-30910200D01*
X186268340Y-30912740D01*
X186253100Y-30917820D01*
X186220080Y-30925440D01*
X186187060Y-30943220D01*
X186156580Y-30966080D01*
X186133720Y-30994020D01*
X186128640Y-31004180D01*
X186118480Y-31021960D01*
X186110860Y-31042280D01*
X186105780Y-31060060D01*
X186103240Y-31072760D01*
X186103240Y-31072760D01*
X186100700Y-31075300D01*
X186100700Y-31128640D01*
X186103240Y-31128640D01*
X186103240Y-31136260D01*
X186105780Y-31146420D01*
X186110860Y-31159120D01*
X186118480Y-31176900D01*
X186136260Y-31209920D01*
X186161660Y-31237860D01*
X186189600Y-31260720D01*
X186222620Y-31275960D01*
X186258180Y-31286120D01*
X186293740Y-31288660D01*
X186293740Y-31288660D01*
G37*
X186293740Y-31288660D02*
X186331840Y-31283580D01*
X186367400Y-31270880D01*
X186385180Y-31263260D01*
X186400420Y-31250560D01*
X186418200Y-31235320D01*
X186438520Y-31215000D01*
X186458840Y-31181980D01*
X186471540Y-31146420D01*
X186474080Y-31136260D01*
X186476620Y-31110860D01*
X186476620Y-31085460D01*
X186471540Y-31062600D01*
X186461380Y-31029580D01*
X186446140Y-30996560D01*
X186423280Y-30968620D01*
X186418200Y-30966080D01*
X186400420Y-30950840D01*
X186380100Y-30938140D01*
X186362320Y-30927980D01*
X186354700Y-30925440D01*
X186339460Y-30920360D01*
X186324220Y-30917820D01*
X186314060Y-30915280D01*
X186306440Y-30915280D01*
X186314060Y-30912740D01*
X186324220Y-30910200D01*
X186334380Y-30907660D01*
X186349620Y-30905120D01*
X186377560Y-30889880D01*
X186405500Y-30874640D01*
X186425820Y-30854320D01*
X186430900Y-30849240D01*
X186453760Y-30816220D01*
X186469000Y-30780660D01*
X186476620Y-30745100D01*
X186476620Y-30707000D01*
X186474080Y-30696840D01*
X186463920Y-30658740D01*
X186446140Y-30625720D01*
X186420740Y-30592700D01*
X186397880Y-30574920D01*
X186364860Y-30554600D01*
X186329300Y-30541900D01*
X186321680Y-30541900D01*
X186296280Y-30539360D01*
X186270880Y-30539360D01*
X186245480Y-30544440D01*
X186225160Y-30549520D01*
X186189600Y-30567300D01*
X186159120Y-30590160D01*
X186136260Y-30618100D01*
X186115940Y-30651120D01*
X186105780Y-30686680D01*
X186103240Y-30691760D01*
X186100700Y-30699380D01*
X186100700Y-30704460D01*
X186098160Y-30699380D01*
X186098160Y-30691760D01*
X186095620Y-30676520D01*
X186088000Y-30658740D01*
X186082920Y-30643500D01*
X186075300Y-30633340D01*
X186052440Y-30600320D01*
X186024500Y-30574920D01*
X185991480Y-30554600D01*
X185955920Y-30544440D01*
X185915280Y-30539360D01*
X185884800Y-30541900D01*
X185849240Y-30549520D01*
X185816220Y-30567300D01*
X185795900Y-30580000D01*
X185767960Y-30607940D01*
X185747640Y-30638420D01*
X185732400Y-30673980D01*
X185727320Y-30709540D01*
X185727320Y-30747640D01*
X185734940Y-30783200D01*
X185750180Y-30818760D01*
X185773040Y-30849240D01*
X185800980Y-30877180D01*
X185836540Y-30897500D01*
X185874640Y-30910200D01*
X185894960Y-30915280D01*
X185882260Y-30915280D01*
X185874640Y-30917820D01*
X185844160Y-30925440D01*
X185816220Y-30940680D01*
X185788280Y-30961000D01*
X185765420Y-30983860D01*
X185752720Y-31004180D01*
X185740020Y-31029580D01*
X185732400Y-31054980D01*
X185727320Y-31075300D01*
X185727320Y-31098160D01*
X185727320Y-31123560D01*
X185729860Y-31141340D01*
X185737480Y-31164200D01*
X185755260Y-31199760D01*
X185778120Y-31230240D01*
X185808600Y-31255640D01*
X185841620Y-31275960D01*
X185882260Y-31286120D01*
X185892420Y-31288660D01*
X185915280Y-31288660D01*
X185938140Y-31286120D01*
X185961000Y-31283580D01*
X185976240Y-31278500D01*
X186011800Y-31260720D01*
X186042280Y-31237860D01*
X186067680Y-31209920D01*
X186085460Y-31176900D01*
X186098160Y-31138800D01*
X186098160Y-31136260D01*
X186100700Y-31126100D01*
X186100700Y-31128640D01*
X186100700Y-31075300D01*
X186100700Y-31075300D01*
X186098160Y-31067680D01*
X186098160Y-31065140D01*
X186090540Y-31039740D01*
X186080380Y-31014340D01*
X186065140Y-30988940D01*
X186052440Y-30976240D01*
X186024500Y-30948300D01*
X185988940Y-30930520D01*
X185950840Y-30917820D01*
X185933060Y-30912740D01*
X185945760Y-30910200D01*
X185958460Y-30907660D01*
X185968620Y-30905120D01*
X185976240Y-30902580D01*
X186011800Y-30887340D01*
X186042280Y-30861940D01*
X186067680Y-30834000D01*
X186085460Y-30800980D01*
X186098160Y-30765420D01*
X186098160Y-30757800D01*
X186100700Y-30752720D01*
X186103240Y-30755260D01*
X186105780Y-30765420D01*
X186105780Y-30767960D01*
X186110860Y-30788280D01*
X186121020Y-30808600D01*
X186131180Y-30828920D01*
X186141340Y-30841620D01*
X186159120Y-30859400D01*
X186176900Y-30877180D01*
X186194680Y-30889880D01*
X186197220Y-30889880D01*
X186225160Y-30902580D01*
X186255640Y-30910200D01*
X186268340Y-30912740D01*
X186253100Y-30917820D01*
X186220080Y-30925440D01*
X186187060Y-30943220D01*
X186156580Y-30966080D01*
X186133720Y-30994020D01*
X186128640Y-31004180D01*
X186118480Y-31021960D01*
X186110860Y-31042280D01*
X186105780Y-31060060D01*
X186103240Y-31072760D01*
X186103240Y-31072760D01*
X186100700Y-31075300D01*
X186100700Y-31128640D01*
X186103240Y-31128640D01*
X186103240Y-31136260D01*
X186105780Y-31146420D01*
X186110860Y-31159120D01*
X186118480Y-31176900D01*
X186136260Y-31209920D01*
X186161660Y-31237860D01*
X186189600Y-31260720D01*
X186222620Y-31275960D01*
X186258180Y-31286120D01*
X186293740Y-31288660D01*
G36*
X187421500Y-31288660D02*
X187457060Y-31283580D01*
X187492620Y-31270880D01*
X187525640Y-31250560D01*
X187551040Y-31225160D01*
X187573900Y-31194680D01*
X187589140Y-31159120D01*
X187594220Y-31146420D01*
X187596760Y-31136260D01*
X187596760Y-31133720D01*
X187599300Y-31126100D01*
X187599300Y-31126100D01*
X187599300Y-31075300D01*
X187596760Y-31070220D01*
X187594220Y-31057520D01*
X187586600Y-31034660D01*
X187571360Y-31001640D01*
X187548500Y-30971160D01*
X187518020Y-30948300D01*
X187485000Y-30927980D01*
X187449440Y-30917820D01*
X187431660Y-30912740D01*
X187444360Y-30910200D01*
X187444360Y-30910200D01*
X187474840Y-30902580D01*
X187505320Y-30889880D01*
X187515480Y-30882260D01*
X187535800Y-30864480D01*
X187553580Y-30846700D01*
X187568820Y-30828920D01*
X187576440Y-30813680D01*
X187589140Y-30788280D01*
X187594220Y-30767960D01*
X187596760Y-30757800D01*
X187599300Y-30752720D01*
X187599300Y-30755260D01*
X187601840Y-30765420D01*
X187609460Y-30790820D01*
X187627240Y-30826380D01*
X187652640Y-30856860D01*
X187680580Y-30879720D01*
X187713600Y-30900040D01*
X187754240Y-30910200D01*
X187766940Y-30912740D01*
X187749160Y-30917820D01*
X187731380Y-30922900D01*
X187695820Y-30938140D01*
X187662800Y-30961000D01*
X187637400Y-30988940D01*
X187627240Y-30999100D01*
X187619620Y-31016880D01*
X187609460Y-31037200D01*
X187604380Y-31049900D01*
X187601840Y-31065140D01*
X187601840Y-31065140D01*
X187599300Y-31072760D01*
X187599300Y-31075300D01*
X187599300Y-31126100D01*
X187599300Y-31128640D01*
X187601840Y-31138800D01*
X187604380Y-31151500D01*
X187617080Y-31179440D01*
X187629780Y-31204840D01*
X187642480Y-31220080D01*
X187670420Y-31248020D01*
X187703440Y-31268340D01*
X187741540Y-31283580D01*
X187756780Y-31286120D01*
X187782180Y-31288660D01*
X187810120Y-31286120D01*
X187832980Y-31283580D01*
X187835520Y-31283580D01*
X187873620Y-31268340D01*
X187906640Y-31245480D01*
X187932040Y-31217540D01*
X187954900Y-31184520D01*
X187967600Y-31146420D01*
X187972680Y-31131180D01*
X187972680Y-31103240D01*
X187972680Y-31077840D01*
X187967600Y-31054980D01*
X187962520Y-31034660D01*
X187949820Y-31009260D01*
X187934580Y-30983860D01*
X187916800Y-30966080D01*
X187893940Y-30948300D01*
X187868540Y-30933060D01*
X187860920Y-30927980D01*
X187843140Y-30922900D01*
X187825360Y-30917820D01*
X187812660Y-30915280D01*
X187810120Y-30915280D01*
X187815200Y-30912740D01*
X187825360Y-30910200D01*
X187848220Y-30902580D01*
X187871080Y-30892420D01*
X187891400Y-30882260D01*
X187896480Y-30877180D01*
X187921880Y-30856860D01*
X187942200Y-30828920D01*
X187957440Y-30800980D01*
X187965060Y-30788280D01*
X187972680Y-30750180D01*
X187972680Y-30712080D01*
X187967600Y-30673980D01*
X187965060Y-30666360D01*
X187947280Y-30630800D01*
X187924420Y-30600320D01*
X187896480Y-30574920D01*
X187863460Y-30554600D01*
X187825360Y-30541900D01*
X187820280Y-30541900D01*
X187794880Y-30539360D01*
X187766940Y-30539360D01*
X187744080Y-30544440D01*
X187736460Y-30544440D01*
X187700900Y-30559680D01*
X187667880Y-30580000D01*
X187639940Y-30610480D01*
X187617080Y-30643500D01*
X187612000Y-30653660D01*
X187606920Y-30671440D01*
X187601840Y-30686680D01*
X187601840Y-30699380D01*
X187601840Y-30701920D01*
X187599300Y-30701920D01*
X187596760Y-30696840D01*
X187594220Y-30686680D01*
X187589140Y-30661280D01*
X187571360Y-30628260D01*
X187548500Y-30600320D01*
X187520560Y-30574920D01*
X187487540Y-30554600D01*
X187487540Y-30554600D01*
X187454520Y-30544440D01*
X187416420Y-30539360D01*
X187378320Y-30541900D01*
X187342760Y-30552060D01*
X187322440Y-30562220D01*
X187289420Y-30582540D01*
X187264020Y-30610480D01*
X187243700Y-30643500D01*
X187228460Y-30681600D01*
X187228460Y-30689220D01*
X187223380Y-30719700D01*
X187225920Y-30747640D01*
X187233540Y-30783200D01*
X187248780Y-30818760D01*
X187271640Y-30849240D01*
X187299580Y-30877180D01*
X187332600Y-30897500D01*
X187370700Y-30910200D01*
X187378320Y-30912740D01*
X187385940Y-30915280D01*
X187385940Y-30915280D01*
X187375780Y-30915280D01*
X187352920Y-30922900D01*
X187330060Y-30933060D01*
X187307200Y-30945760D01*
X187286880Y-30961000D01*
X187261480Y-30988940D01*
X187241160Y-31024500D01*
X187238620Y-31029580D01*
X187225920Y-31065140D01*
X187223380Y-31103240D01*
X187228460Y-31143880D01*
X187241160Y-31179440D01*
X187248780Y-31197220D01*
X187261480Y-31212460D01*
X187276720Y-31230240D01*
X187276720Y-31232780D01*
X187307200Y-31258180D01*
X187342760Y-31275960D01*
X187378320Y-31286120D01*
X187383400Y-31286120D01*
X187421500Y-31288660D01*
X187421500Y-31288660D01*
G37*
X187421500Y-31288660D02*
X187457060Y-31283580D01*
X187492620Y-31270880D01*
X187525640Y-31250560D01*
X187551040Y-31225160D01*
X187573900Y-31194680D01*
X187589140Y-31159120D01*
X187594220Y-31146420D01*
X187596760Y-31136260D01*
X187596760Y-31133720D01*
X187599300Y-31126100D01*
X187599300Y-31126100D01*
X187599300Y-31075300D01*
X187596760Y-31070220D01*
X187594220Y-31057520D01*
X187586600Y-31034660D01*
X187571360Y-31001640D01*
X187548500Y-30971160D01*
X187518020Y-30948300D01*
X187485000Y-30927980D01*
X187449440Y-30917820D01*
X187431660Y-30912740D01*
X187444360Y-30910200D01*
X187444360Y-30910200D01*
X187474840Y-30902580D01*
X187505320Y-30889880D01*
X187515480Y-30882260D01*
X187535800Y-30864480D01*
X187553580Y-30846700D01*
X187568820Y-30828920D01*
X187576440Y-30813680D01*
X187589140Y-30788280D01*
X187594220Y-30767960D01*
X187596760Y-30757800D01*
X187599300Y-30752720D01*
X187599300Y-30755260D01*
X187601840Y-30765420D01*
X187609460Y-30790820D01*
X187627240Y-30826380D01*
X187652640Y-30856860D01*
X187680580Y-30879720D01*
X187713600Y-30900040D01*
X187754240Y-30910200D01*
X187766940Y-30912740D01*
X187749160Y-30917820D01*
X187731380Y-30922900D01*
X187695820Y-30938140D01*
X187662800Y-30961000D01*
X187637400Y-30988940D01*
X187627240Y-30999100D01*
X187619620Y-31016880D01*
X187609460Y-31037200D01*
X187604380Y-31049900D01*
X187601840Y-31065140D01*
X187601840Y-31065140D01*
X187599300Y-31072760D01*
X187599300Y-31075300D01*
X187599300Y-31126100D01*
X187599300Y-31128640D01*
X187601840Y-31138800D01*
X187604380Y-31151500D01*
X187617080Y-31179440D01*
X187629780Y-31204840D01*
X187642480Y-31220080D01*
X187670420Y-31248020D01*
X187703440Y-31268340D01*
X187741540Y-31283580D01*
X187756780Y-31286120D01*
X187782180Y-31288660D01*
X187810120Y-31286120D01*
X187832980Y-31283580D01*
X187835520Y-31283580D01*
X187873620Y-31268340D01*
X187906640Y-31245480D01*
X187932040Y-31217540D01*
X187954900Y-31184520D01*
X187967600Y-31146420D01*
X187972680Y-31131180D01*
X187972680Y-31103240D01*
X187972680Y-31077840D01*
X187967600Y-31054980D01*
X187962520Y-31034660D01*
X187949820Y-31009260D01*
X187934580Y-30983860D01*
X187916800Y-30966080D01*
X187893940Y-30948300D01*
X187868540Y-30933060D01*
X187860920Y-30927980D01*
X187843140Y-30922900D01*
X187825360Y-30917820D01*
X187812660Y-30915280D01*
X187810120Y-30915280D01*
X187815200Y-30912740D01*
X187825360Y-30910200D01*
X187848220Y-30902580D01*
X187871080Y-30892420D01*
X187891400Y-30882260D01*
X187896480Y-30877180D01*
X187921880Y-30856860D01*
X187942200Y-30828920D01*
X187957440Y-30800980D01*
X187965060Y-30788280D01*
X187972680Y-30750180D01*
X187972680Y-30712080D01*
X187967600Y-30673980D01*
X187965060Y-30666360D01*
X187947280Y-30630800D01*
X187924420Y-30600320D01*
X187896480Y-30574920D01*
X187863460Y-30554600D01*
X187825360Y-30541900D01*
X187820280Y-30541900D01*
X187794880Y-30539360D01*
X187766940Y-30539360D01*
X187744080Y-30544440D01*
X187736460Y-30544440D01*
X187700900Y-30559680D01*
X187667880Y-30580000D01*
X187639940Y-30610480D01*
X187617080Y-30643500D01*
X187612000Y-30653660D01*
X187606920Y-30671440D01*
X187601840Y-30686680D01*
X187601840Y-30699380D01*
X187601840Y-30701920D01*
X187599300Y-30701920D01*
X187596760Y-30696840D01*
X187594220Y-30686680D01*
X187589140Y-30661280D01*
X187571360Y-30628260D01*
X187548500Y-30600320D01*
X187520560Y-30574920D01*
X187487540Y-30554600D01*
X187487540Y-30554600D01*
X187454520Y-30544440D01*
X187416420Y-30539360D01*
X187378320Y-30541900D01*
X187342760Y-30552060D01*
X187322440Y-30562220D01*
X187289420Y-30582540D01*
X187264020Y-30610480D01*
X187243700Y-30643500D01*
X187228460Y-30681600D01*
X187228460Y-30689220D01*
X187223380Y-30719700D01*
X187225920Y-30747640D01*
X187233540Y-30783200D01*
X187248780Y-30818760D01*
X187271640Y-30849240D01*
X187299580Y-30877180D01*
X187332600Y-30897500D01*
X187370700Y-30910200D01*
X187378320Y-30912740D01*
X187385940Y-30915280D01*
X187385940Y-30915280D01*
X187375780Y-30915280D01*
X187352920Y-30922900D01*
X187330060Y-30933060D01*
X187307200Y-30945760D01*
X187286880Y-30961000D01*
X187261480Y-30988940D01*
X187241160Y-31024500D01*
X187238620Y-31029580D01*
X187225920Y-31065140D01*
X187223380Y-31103240D01*
X187228460Y-31143880D01*
X187241160Y-31179440D01*
X187248780Y-31197220D01*
X187261480Y-31212460D01*
X187276720Y-31230240D01*
X187276720Y-31232780D01*
X187307200Y-31258180D01*
X187342760Y-31275960D01*
X187378320Y-31286120D01*
X187383400Y-31286120D01*
X187421500Y-31288660D01*
G36*
X190790680Y-42796200D02*
X190808460Y-42788580D01*
X190841480Y-42765720D01*
X190892280Y-42732700D01*
X190950700Y-42694600D01*
X191011660Y-42653960D01*
X191059920Y-42620940D01*
X191095480Y-42598080D01*
X191108180Y-42590460D01*
X191115800Y-42593000D01*
X191143740Y-42608240D01*
X191184380Y-42628560D01*
X191209780Y-42641260D01*
X191247880Y-42656500D01*
X191265660Y-42661580D01*
X191268200Y-42656500D01*
X191283440Y-42626020D01*
X191303760Y-42577760D01*
X191331700Y-42511720D01*
X191364720Y-42435520D01*
X191400280Y-42354240D01*
X191433300Y-42270420D01*
X191466320Y-42191680D01*
X191496800Y-42118020D01*
X191519660Y-42059600D01*
X191534900Y-42018960D01*
X191542520Y-42001180D01*
X191539980Y-41998640D01*
X191522200Y-41980860D01*
X191489180Y-41955460D01*
X191418060Y-41897040D01*
X191346940Y-41810680D01*
X191303760Y-41711620D01*
X191291060Y-41599860D01*
X191301220Y-41498260D01*
X191341860Y-41401740D01*
X191410440Y-41312840D01*
X191494260Y-41246800D01*
X191590780Y-41206160D01*
X191700000Y-41193460D01*
X191804140Y-41203620D01*
X191903200Y-41244260D01*
X191992100Y-41310300D01*
X192030200Y-41353480D01*
X192081000Y-41444920D01*
X192111480Y-41538900D01*
X192114020Y-41561760D01*
X192108940Y-41668440D01*
X192078460Y-41770040D01*
X192022580Y-41858940D01*
X191946380Y-41932600D01*
X191936220Y-41940220D01*
X191900660Y-41968160D01*
X191875260Y-41985940D01*
X191857480Y-42001180D01*
X191992100Y-42323760D01*
X192012420Y-42374560D01*
X192050520Y-42463460D01*
X192081000Y-42539660D01*
X192108940Y-42600620D01*
X192126720Y-42641260D01*
X192134340Y-42656500D01*
X192134340Y-42656500D01*
X192147040Y-42659040D01*
X192169900Y-42651420D01*
X192215620Y-42628560D01*
X192246100Y-42613320D01*
X192279120Y-42598080D01*
X192294360Y-42590460D01*
X192309600Y-42598080D01*
X192342620Y-42618400D01*
X192388340Y-42651420D01*
X192446760Y-42689520D01*
X192502640Y-42727620D01*
X192553440Y-42760640D01*
X192589000Y-42786040D01*
X192606780Y-42793660D01*
X192609320Y-42793660D01*
X192627100Y-42786040D01*
X192655040Y-42760640D01*
X192698220Y-42720000D01*
X192761720Y-42659040D01*
X192771880Y-42648880D01*
X192822680Y-42598080D01*
X192863320Y-42552360D01*
X192891260Y-42521880D01*
X192901420Y-42509180D01*
X192901420Y-42509180D01*
X192891260Y-42491400D01*
X192868400Y-42453300D01*
X192835380Y-42402500D01*
X192794740Y-42341540D01*
X192688060Y-42186600D01*
X192746480Y-42041820D01*
X192764260Y-41996100D01*
X192787120Y-41940220D01*
X192804900Y-41902120D01*
X192812520Y-41884340D01*
X192830300Y-41879260D01*
X192868400Y-41869100D01*
X192926820Y-41858940D01*
X192997940Y-41846240D01*
X193063980Y-41833540D01*
X193122400Y-41820840D01*
X193165580Y-41813220D01*
X193185900Y-41810680D01*
X193190980Y-41805600D01*
X193193520Y-41797980D01*
X193196060Y-41777660D01*
X193198600Y-41739560D01*
X193198600Y-41683680D01*
X193198600Y-41599860D01*
X193198600Y-41592240D01*
X193198600Y-41513500D01*
X193196060Y-41450000D01*
X193193520Y-41411900D01*
X193190980Y-41394120D01*
X193190980Y-41394120D01*
X193173200Y-41389040D01*
X193130020Y-41381420D01*
X193071600Y-41368720D01*
X193000480Y-41356020D01*
X192995400Y-41356020D01*
X192924280Y-41340780D01*
X192865860Y-41328080D01*
X192822680Y-41320460D01*
X192804900Y-41312840D01*
X192802360Y-41307760D01*
X192787120Y-41279820D01*
X192766800Y-41236640D01*
X192743940Y-41183300D01*
X192721080Y-41127420D01*
X192700760Y-41076620D01*
X192688060Y-41041060D01*
X192682980Y-41023280D01*
X192682980Y-41023280D01*
X192693140Y-41005500D01*
X192718540Y-40969940D01*
X192754100Y-40919140D01*
X192794740Y-40858180D01*
X192797280Y-40853100D01*
X192837920Y-40792140D01*
X192870940Y-40741340D01*
X192893800Y-40705780D01*
X192901420Y-40690540D01*
X192901420Y-40688000D01*
X192888720Y-40670220D01*
X192858240Y-40637200D01*
X192812520Y-40591480D01*
X192761720Y-40538140D01*
X192743940Y-40522900D01*
X192685520Y-40464480D01*
X192644880Y-40428920D01*
X192619480Y-40408600D01*
X192609320Y-40403520D01*
X192606780Y-40403520D01*
X192589000Y-40413680D01*
X192550900Y-40439080D01*
X192500100Y-40474640D01*
X192439140Y-40515280D01*
X192436600Y-40517820D01*
X192375640Y-40558460D01*
X192324840Y-40594020D01*
X192289280Y-40616880D01*
X192274040Y-40624500D01*
X192271500Y-40624500D01*
X192248640Y-40619420D01*
X192205460Y-40604180D01*
X192152120Y-40583860D01*
X192096240Y-40561000D01*
X192045440Y-40540680D01*
X192009880Y-40522900D01*
X191992100Y-40512740D01*
X191989560Y-40512740D01*
X191984480Y-40489880D01*
X191974320Y-40444160D01*
X191961620Y-40383200D01*
X191946380Y-40309540D01*
X191943840Y-40299380D01*
X191931140Y-40225720D01*
X191920980Y-40167300D01*
X191910820Y-40126660D01*
X191908280Y-40108880D01*
X191898120Y-40108880D01*
X191862560Y-40106340D01*
X191809220Y-40103800D01*
X191743180Y-40103800D01*
X191677140Y-40103800D01*
X191611100Y-40103800D01*
X191555220Y-40106340D01*
X191514580Y-40108880D01*
X191496800Y-40113960D01*
X191496800Y-40113960D01*
X191491720Y-40136820D01*
X191481560Y-40180000D01*
X191468860Y-40243500D01*
X191453620Y-40317160D01*
X191451080Y-40329860D01*
X191438380Y-40400980D01*
X191425680Y-40459400D01*
X191418060Y-40500040D01*
X191412980Y-40515280D01*
X191407900Y-40517820D01*
X191377420Y-40533060D01*
X191329160Y-40550840D01*
X191270740Y-40576240D01*
X191133580Y-40632120D01*
X190965940Y-40515280D01*
X190950700Y-40505120D01*
X190889740Y-40464480D01*
X190838940Y-40431460D01*
X190803380Y-40408600D01*
X190790680Y-40400980D01*
X190788140Y-40400980D01*
X190772900Y-40416220D01*
X190739880Y-40446700D01*
X190694160Y-40492420D01*
X190640820Y-40543220D01*
X190600180Y-40583860D01*
X190554460Y-40629580D01*
X190526520Y-40662600D01*
X190508740Y-40682920D01*
X190503660Y-40695620D01*
X190506200Y-40703240D01*
X190516360Y-40721020D01*
X190541760Y-40756580D01*
X190574780Y-40809920D01*
X190615420Y-40868340D01*
X190650980Y-40919140D01*
X190686540Y-40975020D01*
X190709400Y-41015660D01*
X190719560Y-41033440D01*
X190717020Y-41043600D01*
X190704320Y-41076620D01*
X190684000Y-41124880D01*
X190658600Y-41185840D01*
X190600180Y-41317920D01*
X190513820Y-41335700D01*
X190460480Y-41345860D01*
X190386820Y-41358560D01*
X190315700Y-41373800D01*
X190203940Y-41394120D01*
X190201400Y-41797980D01*
X190219180Y-41805600D01*
X190234420Y-41810680D01*
X190275060Y-41820840D01*
X190333480Y-41831000D01*
X190402060Y-41843700D01*
X190463020Y-41856400D01*
X190521440Y-41866560D01*
X190564620Y-41874180D01*
X190582400Y-41879260D01*
X190587480Y-41884340D01*
X190602720Y-41914820D01*
X190623040Y-41960540D01*
X190645900Y-42013880D01*
X190671300Y-42072300D01*
X190691620Y-42123100D01*
X190706860Y-42163740D01*
X190711940Y-42184060D01*
X190704320Y-42199300D01*
X190681460Y-42234860D01*
X190648440Y-42285660D01*
X190607800Y-42344080D01*
X190567160Y-42402500D01*
X190534140Y-42453300D01*
X190508740Y-42488860D01*
X190501120Y-42506640D01*
X190506200Y-42516800D01*
X190529060Y-42544740D01*
X190572240Y-42590460D01*
X190638280Y-42656500D01*
X190650980Y-42666660D01*
X190701780Y-42717460D01*
X190747500Y-42758100D01*
X190777980Y-42786040D01*
X190790680Y-42796200D01*
X190790680Y-42796200D01*
G37*
X190790680Y-42796200D02*
X190808460Y-42788580D01*
X190841480Y-42765720D01*
X190892280Y-42732700D01*
X190950700Y-42694600D01*
X191011660Y-42653960D01*
X191059920Y-42620940D01*
X191095480Y-42598080D01*
X191108180Y-42590460D01*
X191115800Y-42593000D01*
X191143740Y-42608240D01*
X191184380Y-42628560D01*
X191209780Y-42641260D01*
X191247880Y-42656500D01*
X191265660Y-42661580D01*
X191268200Y-42656500D01*
X191283440Y-42626020D01*
X191303760Y-42577760D01*
X191331700Y-42511720D01*
X191364720Y-42435520D01*
X191400280Y-42354240D01*
X191433300Y-42270420D01*
X191466320Y-42191680D01*
X191496800Y-42118020D01*
X191519660Y-42059600D01*
X191534900Y-42018960D01*
X191542520Y-42001180D01*
X191539980Y-41998640D01*
X191522200Y-41980860D01*
X191489180Y-41955460D01*
X191418060Y-41897040D01*
X191346940Y-41810680D01*
X191303760Y-41711620D01*
X191291060Y-41599860D01*
X191301220Y-41498260D01*
X191341860Y-41401740D01*
X191410440Y-41312840D01*
X191494260Y-41246800D01*
X191590780Y-41206160D01*
X191700000Y-41193460D01*
X191804140Y-41203620D01*
X191903200Y-41244260D01*
X191992100Y-41310300D01*
X192030200Y-41353480D01*
X192081000Y-41444920D01*
X192111480Y-41538900D01*
X192114020Y-41561760D01*
X192108940Y-41668440D01*
X192078460Y-41770040D01*
X192022580Y-41858940D01*
X191946380Y-41932600D01*
X191936220Y-41940220D01*
X191900660Y-41968160D01*
X191875260Y-41985940D01*
X191857480Y-42001180D01*
X191992100Y-42323760D01*
X192012420Y-42374560D01*
X192050520Y-42463460D01*
X192081000Y-42539660D01*
X192108940Y-42600620D01*
X192126720Y-42641260D01*
X192134340Y-42656500D01*
X192134340Y-42656500D01*
X192147040Y-42659040D01*
X192169900Y-42651420D01*
X192215620Y-42628560D01*
X192246100Y-42613320D01*
X192279120Y-42598080D01*
X192294360Y-42590460D01*
X192309600Y-42598080D01*
X192342620Y-42618400D01*
X192388340Y-42651420D01*
X192446760Y-42689520D01*
X192502640Y-42727620D01*
X192553440Y-42760640D01*
X192589000Y-42786040D01*
X192606780Y-42793660D01*
X192609320Y-42793660D01*
X192627100Y-42786040D01*
X192655040Y-42760640D01*
X192698220Y-42720000D01*
X192761720Y-42659040D01*
X192771880Y-42648880D01*
X192822680Y-42598080D01*
X192863320Y-42552360D01*
X192891260Y-42521880D01*
X192901420Y-42509180D01*
X192901420Y-42509180D01*
X192891260Y-42491400D01*
X192868400Y-42453300D01*
X192835380Y-42402500D01*
X192794740Y-42341540D01*
X192688060Y-42186600D01*
X192746480Y-42041820D01*
X192764260Y-41996100D01*
X192787120Y-41940220D01*
X192804900Y-41902120D01*
X192812520Y-41884340D01*
X192830300Y-41879260D01*
X192868400Y-41869100D01*
X192926820Y-41858940D01*
X192997940Y-41846240D01*
X193063980Y-41833540D01*
X193122400Y-41820840D01*
X193165580Y-41813220D01*
X193185900Y-41810680D01*
X193190980Y-41805600D01*
X193193520Y-41797980D01*
X193196060Y-41777660D01*
X193198600Y-41739560D01*
X193198600Y-41683680D01*
X193198600Y-41599860D01*
X193198600Y-41592240D01*
X193198600Y-41513500D01*
X193196060Y-41450000D01*
X193193520Y-41411900D01*
X193190980Y-41394120D01*
X193190980Y-41394120D01*
X193173200Y-41389040D01*
X193130020Y-41381420D01*
X193071600Y-41368720D01*
X193000480Y-41356020D01*
X192995400Y-41356020D01*
X192924280Y-41340780D01*
X192865860Y-41328080D01*
X192822680Y-41320460D01*
X192804900Y-41312840D01*
X192802360Y-41307760D01*
X192787120Y-41279820D01*
X192766800Y-41236640D01*
X192743940Y-41183300D01*
X192721080Y-41127420D01*
X192700760Y-41076620D01*
X192688060Y-41041060D01*
X192682980Y-41023280D01*
X192682980Y-41023280D01*
X192693140Y-41005500D01*
X192718540Y-40969940D01*
X192754100Y-40919140D01*
X192794740Y-40858180D01*
X192797280Y-40853100D01*
X192837920Y-40792140D01*
X192870940Y-40741340D01*
X192893800Y-40705780D01*
X192901420Y-40690540D01*
X192901420Y-40688000D01*
X192888720Y-40670220D01*
X192858240Y-40637200D01*
X192812520Y-40591480D01*
X192761720Y-40538140D01*
X192743940Y-40522900D01*
X192685520Y-40464480D01*
X192644880Y-40428920D01*
X192619480Y-40408600D01*
X192609320Y-40403520D01*
X192606780Y-40403520D01*
X192589000Y-40413680D01*
X192550900Y-40439080D01*
X192500100Y-40474640D01*
X192439140Y-40515280D01*
X192436600Y-40517820D01*
X192375640Y-40558460D01*
X192324840Y-40594020D01*
X192289280Y-40616880D01*
X192274040Y-40624500D01*
X192271500Y-40624500D01*
X192248640Y-40619420D01*
X192205460Y-40604180D01*
X192152120Y-40583860D01*
X192096240Y-40561000D01*
X192045440Y-40540680D01*
X192009880Y-40522900D01*
X191992100Y-40512740D01*
X191989560Y-40512740D01*
X191984480Y-40489880D01*
X191974320Y-40444160D01*
X191961620Y-40383200D01*
X191946380Y-40309540D01*
X191943840Y-40299380D01*
X191931140Y-40225720D01*
X191920980Y-40167300D01*
X191910820Y-40126660D01*
X191908280Y-40108880D01*
X191898120Y-40108880D01*
X191862560Y-40106340D01*
X191809220Y-40103800D01*
X191743180Y-40103800D01*
X191677140Y-40103800D01*
X191611100Y-40103800D01*
X191555220Y-40106340D01*
X191514580Y-40108880D01*
X191496800Y-40113960D01*
X191496800Y-40113960D01*
X191491720Y-40136820D01*
X191481560Y-40180000D01*
X191468860Y-40243500D01*
X191453620Y-40317160D01*
X191451080Y-40329860D01*
X191438380Y-40400980D01*
X191425680Y-40459400D01*
X191418060Y-40500040D01*
X191412980Y-40515280D01*
X191407900Y-40517820D01*
X191377420Y-40533060D01*
X191329160Y-40550840D01*
X191270740Y-40576240D01*
X191133580Y-40632120D01*
X190965940Y-40515280D01*
X190950700Y-40505120D01*
X190889740Y-40464480D01*
X190838940Y-40431460D01*
X190803380Y-40408600D01*
X190790680Y-40400980D01*
X190788140Y-40400980D01*
X190772900Y-40416220D01*
X190739880Y-40446700D01*
X190694160Y-40492420D01*
X190640820Y-40543220D01*
X190600180Y-40583860D01*
X190554460Y-40629580D01*
X190526520Y-40662600D01*
X190508740Y-40682920D01*
X190503660Y-40695620D01*
X190506200Y-40703240D01*
X190516360Y-40721020D01*
X190541760Y-40756580D01*
X190574780Y-40809920D01*
X190615420Y-40868340D01*
X190650980Y-40919140D01*
X190686540Y-40975020D01*
X190709400Y-41015660D01*
X190719560Y-41033440D01*
X190717020Y-41043600D01*
X190704320Y-41076620D01*
X190684000Y-41124880D01*
X190658600Y-41185840D01*
X190600180Y-41317920D01*
X190513820Y-41335700D01*
X190460480Y-41345860D01*
X190386820Y-41358560D01*
X190315700Y-41373800D01*
X190203940Y-41394120D01*
X190201400Y-41797980D01*
X190219180Y-41805600D01*
X190234420Y-41810680D01*
X190275060Y-41820840D01*
X190333480Y-41831000D01*
X190402060Y-41843700D01*
X190463020Y-41856400D01*
X190521440Y-41866560D01*
X190564620Y-41874180D01*
X190582400Y-41879260D01*
X190587480Y-41884340D01*
X190602720Y-41914820D01*
X190623040Y-41960540D01*
X190645900Y-42013880D01*
X190671300Y-42072300D01*
X190691620Y-42123100D01*
X190706860Y-42163740D01*
X190711940Y-42184060D01*
X190704320Y-42199300D01*
X190681460Y-42234860D01*
X190648440Y-42285660D01*
X190607800Y-42344080D01*
X190567160Y-42402500D01*
X190534140Y-42453300D01*
X190508740Y-42488860D01*
X190501120Y-42506640D01*
X190506200Y-42516800D01*
X190529060Y-42544740D01*
X190572240Y-42590460D01*
X190638280Y-42656500D01*
X190650980Y-42666660D01*
X190701780Y-42717460D01*
X190747500Y-42758100D01*
X190777980Y-42786040D01*
X190790680Y-42796200D01*
D11*
X181650000Y-49500000D02*
X181650000Y-46800000D01*
X180150000Y-49500000D02*
X180150000Y-46800000D01*
X181050000Y-48000000D02*
X180800000Y-48000000D01*
X180800000Y-48000000D02*
X180950000Y-48150000D01*
X180550000Y-48250000D02*
X181250000Y-48250000D01*
X180900000Y-47900000D02*
X180900000Y-47550000D01*
X180900000Y-48250000D02*
X180550000Y-47900000D01*
X180550000Y-47900000D02*
X181250000Y-47900000D01*
X181250000Y-47900000D02*
X180900000Y-48250000D01*
X190000000Y-51975000D02*
X188800000Y-51975000D01*
X188800000Y-50225000D02*
X190000000Y-50225000D01*
X183509508Y-31690599D02*
X183461889Y-31738218D01*
X183319032Y-31785837D01*
X183223794Y-31785837D01*
X183080936Y-31738218D01*
X182985698Y-31642980D01*
X182938079Y-31547742D01*
X182890460Y-31357266D01*
X182890460Y-31214408D01*
X182938079Y-31023932D01*
X182985698Y-30928694D01*
X183080936Y-30833456D01*
X183223794Y-30785837D01*
X183319032Y-30785837D01*
X183461889Y-30833456D01*
X183509508Y-30881075D01*
X184461889Y-31785837D02*
X183890460Y-31785837D01*
X184176174Y-31785837D02*
X184176174Y-30785837D01*
X184080936Y-30928694D01*
X183985698Y-31023932D01*
X183890460Y-31071551D01*
X188733334Y-41757143D02*
X188685715Y-41804762D01*
X188542858Y-41852381D01*
X188447620Y-41852381D01*
X188304762Y-41804762D01*
X188209524Y-41709524D01*
X188161905Y-41614286D01*
X188114286Y-41423810D01*
X188114286Y-41280952D01*
X188161905Y-41090476D01*
X188209524Y-40995238D01*
X188304762Y-40900000D01*
X188447620Y-40852381D01*
X188542858Y-40852381D01*
X188685715Y-40900000D01*
X188733334Y-40947619D01*
X189114286Y-40947619D02*
X189161905Y-40900000D01*
X189257143Y-40852381D01*
X189495239Y-40852381D01*
X189590477Y-40900000D01*
X189638096Y-40947619D01*
X189685715Y-41042857D01*
X189685715Y-41138095D01*
X189638096Y-41280952D01*
X189066667Y-41852381D01*
X189685715Y-41852381D01*
X187733334Y-48107143D02*
X187685715Y-48154762D01*
X187542858Y-48202381D01*
X187447620Y-48202381D01*
X187304762Y-48154762D01*
X187209524Y-48059524D01*
X187161905Y-47964286D01*
X187114286Y-47773810D01*
X187114286Y-47630952D01*
X187161905Y-47440476D01*
X187209524Y-47345238D01*
X187304762Y-47250000D01*
X187447620Y-47202381D01*
X187542858Y-47202381D01*
X187685715Y-47250000D01*
X187733334Y-47297619D01*
X188066667Y-47202381D02*
X188685715Y-47202381D01*
X188352381Y-47583333D01*
X188495239Y-47583333D01*
X188590477Y-47630952D01*
X188638096Y-47678571D01*
X188685715Y-47773810D01*
X188685715Y-48011905D01*
X188638096Y-48107143D01*
X188590477Y-48154762D01*
X188495239Y-48202381D01*
X188209524Y-48202381D01*
X188114286Y-48154762D01*
X188066667Y-48107143D01*
X187733334Y-45857143D02*
X187685715Y-45904762D01*
X187542858Y-45952381D01*
X187447620Y-45952381D01*
X187304762Y-45904762D01*
X187209524Y-45809524D01*
X187161905Y-45714286D01*
X187114286Y-45523810D01*
X187114286Y-45380952D01*
X187161905Y-45190476D01*
X187209524Y-45095238D01*
X187304762Y-45000000D01*
X187447620Y-44952381D01*
X187542858Y-44952381D01*
X187685715Y-45000000D01*
X187733334Y-45047619D01*
X188590477Y-45285714D02*
X188590477Y-45952381D01*
X188352381Y-44904762D02*
X188114286Y-45619048D01*
X188733334Y-45619048D01*
X182157143Y-32666666D02*
X182204762Y-32714285D01*
X182252381Y-32857142D01*
X182252381Y-32952380D01*
X182204762Y-33095238D01*
X182109524Y-33190476D01*
X182014286Y-33238095D01*
X181823810Y-33285714D01*
X181680952Y-33285714D01*
X181490476Y-33238095D01*
X181395238Y-33190476D01*
X181300000Y-33095238D01*
X181252381Y-32952380D01*
X181252381Y-32857142D01*
X181300000Y-32714285D01*
X181347619Y-32666666D01*
X181252381Y-31761904D02*
X181252381Y-32238095D01*
X181728571Y-32285714D01*
X181680952Y-32238095D01*
X181633333Y-32142857D01*
X181633333Y-31904761D01*
X181680952Y-31809523D01*
X181728571Y-31761904D01*
X181823810Y-31714285D01*
X182061905Y-31714285D01*
X182157143Y-31761904D01*
X182204762Y-31809523D01*
X182252381Y-31904761D01*
X182252381Y-32142857D01*
X182204762Y-32238095D01*
X182157143Y-32285714D01*
X178709508Y-31785837D02*
X178376174Y-31309646D01*
X178138079Y-31785837D02*
X178138079Y-30785837D01*
X178519032Y-30785837D01*
X178614270Y-30833456D01*
X178661889Y-30881075D01*
X178709508Y-30976313D01*
X178709508Y-31119170D01*
X178661889Y-31214408D01*
X178614270Y-31262027D01*
X178519032Y-31309646D01*
X178138079Y-31309646D01*
X179661889Y-31785837D02*
X179090460Y-31785837D01*
X179376174Y-31785837D02*
X179376174Y-30785837D01*
X179280936Y-30928694D01*
X179185698Y-31023932D01*
X179090460Y-31071551D01*
X180733334Y-41952381D02*
X180400000Y-41476190D01*
X180161905Y-41952381D02*
X180161905Y-40952381D01*
X180542858Y-40952381D01*
X180638096Y-41000000D01*
X180685715Y-41047619D01*
X180733334Y-41142857D01*
X180733334Y-41285714D01*
X180685715Y-41380952D01*
X180638096Y-41428571D01*
X180542858Y-41476190D01*
X180161905Y-41476190D01*
X181114286Y-41047619D02*
X181161905Y-41000000D01*
X181257143Y-40952381D01*
X181495239Y-40952381D01*
X181590477Y-41000000D01*
X181638096Y-41047619D01*
X181685715Y-41142857D01*
X181685715Y-41238095D01*
X181638096Y-41380952D01*
X181066667Y-41952381D01*
X181685715Y-41952381D01*
X177652381Y-51466666D02*
X177176190Y-51800000D01*
X177652381Y-52038095D02*
X176652381Y-52038095D01*
X176652381Y-51657142D01*
X176700000Y-51561904D01*
X176747619Y-51514285D01*
X176842857Y-51466666D01*
X176985714Y-51466666D01*
X177080952Y-51514285D01*
X177128571Y-51561904D01*
X177176190Y-51657142D01*
X177176190Y-52038095D01*
X176652381Y-51133333D02*
X176652381Y-50514285D01*
X177033333Y-50847619D01*
X177033333Y-50704761D01*
X177080952Y-50609523D01*
X177128571Y-50561904D01*
X177223810Y-50514285D01*
X177461905Y-50514285D01*
X177557143Y-50561904D01*
X177604762Y-50609523D01*
X177652381Y-50704761D01*
X177652381Y-50990476D01*
X177604762Y-51085714D01*
X177557143Y-51133333D01*
X182252381Y-51416666D02*
X181776190Y-51750000D01*
X182252381Y-51988095D02*
X181252381Y-51988095D01*
X181252381Y-51607142D01*
X181300000Y-51511904D01*
X181347619Y-51464285D01*
X181442857Y-51416666D01*
X181585714Y-51416666D01*
X181680952Y-51464285D01*
X181728571Y-51511904D01*
X181776190Y-51607142D01*
X181776190Y-51988095D01*
X181585714Y-50559523D02*
X182252381Y-50559523D01*
X181204762Y-50797619D02*
X181919048Y-51035714D01*
X181919048Y-50416666D01*
X192852381Y-51366666D02*
X192376190Y-51700000D01*
X192852381Y-51938095D02*
X191852381Y-51938095D01*
X191852381Y-51557142D01*
X191900000Y-51461904D01*
X191947619Y-51414285D01*
X192042857Y-51366666D01*
X192185714Y-51366666D01*
X192280952Y-51414285D01*
X192328571Y-51461904D01*
X192376190Y-51557142D01*
X192376190Y-51938095D01*
X191852381Y-50461904D02*
X191852381Y-50938095D01*
X192328571Y-50985714D01*
X192280952Y-50938095D01*
X192233333Y-50842857D01*
X192233333Y-50604761D01*
X192280952Y-50509523D01*
X192328571Y-50461904D01*
X192423810Y-50414285D01*
X192661905Y-50414285D01*
X192757143Y-50461904D01*
X192804762Y-50509523D01*
X192852381Y-50604761D01*
X192852381Y-50842857D01*
X192804762Y-50938095D01*
X192757143Y-50985714D01*
X178361905Y-50152381D02*
X178361905Y-49152381D01*
X178600000Y-49152381D01*
X178742858Y-49200000D01*
X178838096Y-49295238D01*
X178885715Y-49390476D01*
X178933334Y-49580952D01*
X178933334Y-49723810D01*
X178885715Y-49914286D01*
X178838096Y-50009524D01*
X178742858Y-50104762D01*
X178600000Y-50152381D01*
X178361905Y-50152381D01*
X179885715Y-50152381D02*
X179314286Y-50152381D01*
X179600000Y-50152381D02*
X179600000Y-49152381D01*
X179504762Y-49295238D01*
X179409524Y-49390476D01*
X179314286Y-49438095D01*
X187833334Y-49852381D02*
X187500000Y-49376190D01*
X187261905Y-49852381D02*
X187261905Y-48852381D01*
X187642858Y-48852381D01*
X187738096Y-48900000D01*
X187785715Y-48947619D01*
X187833334Y-49042857D01*
X187833334Y-49185714D01*
X187785715Y-49280952D01*
X187738096Y-49328571D01*
X187642858Y-49376190D01*
X187261905Y-49376190D01*
X188690477Y-48852381D02*
X188500000Y-48852381D01*
X188404762Y-48900000D01*
X188357143Y-48947619D01*
X188261905Y-49090476D01*
X188214286Y-49280952D01*
X188214286Y-49661905D01*
X188261905Y-49757143D01*
X188309524Y-49804762D01*
X188404762Y-49852381D01*
X188595239Y-49852381D01*
X188690477Y-49804762D01*
X188738096Y-49757143D01*
X188785715Y-49661905D01*
X188785715Y-49423810D01*
X188738096Y-49328571D01*
X188690477Y-49280952D01*
X188595239Y-49233333D01*
X188404762Y-49233333D01*
X188309524Y-49280952D01*
X188261905Y-49328571D01*
X188214286Y-49423810D01*
%LPC*%
D14*
X184926174Y-29233456D03*
X182426174Y-29233456D03*
X186350000Y-43100000D03*
X188850000Y-43100000D03*
X183250000Y-47750000D03*
X185750000Y-47750000D03*
X183250000Y-45500000D03*
X185750000Y-45500000D03*
X179950000Y-33300000D03*
X177450000Y-33300000D03*
D15*
X185800000Y-50700000D03*
D16*
X184600000Y-50700000D03*
D15*
X183400000Y-50700000D03*
D17*
X191770000Y-25600000D03*
X191770000Y-29210000D03*
X177800000Y-44450000D03*
X191770000Y-44450000D03*
D18*
X180226174Y-29233456D03*
X177526174Y-29233456D03*
X183650000Y-43100000D03*
X180950000Y-43100000D03*
X177650000Y-53250000D03*
X180350000Y-53250000D03*
X183350000Y-53250000D03*
X186050000Y-53250000D03*
X189050000Y-53250000D03*
X191750000Y-53250000D03*
D19*
X177699240Y-39300860D03*
X179700760Y-39300860D03*
D20*
X178700000Y-36049660D03*
D21*
X182295000Y-34325000D03*
X183565000Y-34325000D03*
X184835000Y-34325000D03*
X186105000Y-34325000D03*
X186105000Y-40675000D03*
X184835000Y-40675000D03*
X183565000Y-40675000D03*
X182295000Y-40675000D03*
D19*
X188499240Y-39300860D03*
X190500760Y-39300860D03*
D20*
X189500000Y-36049660D03*
D19*
X180900000Y-46850980D03*
X180900000Y-48949020D03*
D18*
X188050000Y-51100000D03*
X190750000Y-51100000D03*
M02*
